/* XPM */
static char *_afcc445d1b74df3e2ffa465a379740asliKtL9HREIHtA9u[] = {
/* columns rows colors chars-per-pixel */
"89 50 256 2 ",
"   c None",
".  c #000002",
"X  c #01010C",
"o  c #0C0407",
"O  c #16050A",
"+  c #010113",
"@  c #01021B",
"#  c #0B0816",
"$  c #170617",
"%  c #191619",
"&  c #071215",
"*  c #270818",
"=  c #370917",
"-  c #281819",
";  c #381819",
":  c #2E0C07",
">  c #322516",
",  c #010124",
"<  c #01022B",
"1  c #040C2D",
"2  c #080B26",
"3  c #011C2E",
"4  c #07152D",
"5  c #181725",
"6  c #030B33",
"7  c #040634",
"8  c #0B1334",
"9  c #0C1B3C",
"0  c #061538",
"q  c #151939",
"w  c #140A2C",
"e  c #251B28",
"r  c #361929",
"t  c #310E27",
"y  c #05222D",
"u  c #1A2328",
"i  c #072635",
"p  c #162537",
"a  c #10353C",
"s  c #2B2B2B",
"d  c #282428",
"f  c #372928",
"g  c #3A332C",
"h  c #262834",
"j  c #362936",
"k  c #2B3537",
"l  c #383736",
"z  c #481517",
"x  c #4F0D0D",
"c  c #671C06",
"v  c #6D1107",
"b  c #49271A",
"n  c #582919",
"m  c #4F341B",
"M  c #6A230A",
"N  c #762505",
"B  c #6B2513",
"V  c #672719",
"C  c #742C18",
"Z  c #703716",
"A  c #491421",
"S  c #442A26",
"D  c #552C26",
"F  c #473629",
"G  c #5A3729",
"H  c #452A3C",
"J  c #473B36",
"K  c #583835",
"L  c #682B24",
"P  c #6A3629",
"I  c #753729",
"U  c #683B34",
"Y  c #743B35",
"T  c #742923",
"R  c #30413B",
"E  c #7A491F",
"W  c #49433A",
"Q  c #58483A",
"!  c #5A4D34",
"~  c #7A4428",
"^  c #674838",
"/  c #73443C",
"(  c #78473A",
")  c #79533A",
"_  c #6C5134",
"`  c #071942",
"'  c #0D1742",
"]  c #132A44",
"[  c #373648",
"{  c #2E334A",
"}  c #483546",
"|  c #0B4A51",
" . c #3B4846",
".. c #2A575B",
"X. c #385558",
"o. c #2D4A4F",
"O. c #325E62",
"+. c #356A68",
"@. c #2F716C",
"#. c #484745",
"$. c #564946",
"%. c #47554A",
"&. c #5B5349",
"*. c #495A55",
"=. c #515355",
"-. c #6B4C47",
";. c #764A43",
":. c #685749",
">. c #795849",
",. c #665D53",
"<. c #735652",
"1. c #55645A",
"2. c #4D625E",
"3. c #78654A",
"4. c #67665B",
"5. c #7A6855",
"6. c #6D6D53",
"7. c #5B6D66",
"8. c #467270",
"9. c #687569",
"0. c #6A7B79",
"q. c #726E6A",
"w. c #873919",
"e. c #8C3407",
"r. c #843A2B",
"t. c #932600",
"y. c #994919",
"u. c #914911",
"i. c #B65602",
"p. c #A44C17",
"a. c #A6551A",
"s. c #AD520D",
"d. c #BA630E",
"f. c #894729",
"g. c #9A5628",
"h. c #874837",
"j. c #914A34",
"k. c #875838",
"l. c #975638",
"z. c #914D28",
"x. c #A85A28",
"c. c #A75A34",
"v. c #A8532D",
"b. c #9B6436",
"n. c #B86528",
"m. c #B06B36",
"M. c #C96905",
"N. c #D77605",
"B. c #CC6F11",
"V. c #E37B06",
"C. c #E27C13",
"Z. c #D87937",
"A. c #CB752C",
"S. c #C35A00",
"D. c #855748",
"F. c #875D52",
"G. c #915447",
"H. c #876347",
"J. c #966647",
"K. c #886758",
"L. c #956955",
"P. c #8A755C",
"I. c #97745A",
"U. c #A96748",
"Y. c #A46A54",
"T. c #B77B57",
"R. c #AF734C",
"E. c #8A7666",
"W. c #957867",
"Q. c #8B7770",
"!. c #A77966",
"~. c #B87F62",
"^. c #A05C51",
"/. c #C9784F",
"(. c #37836E",
"). c #4D8A79",
"_. c #E88519",
"`. c #F18F16",
"'. c #D78738",
"]. c #E78727",
"[. c #F69626",
"{. c #FA9938",
"}. c #EB8C38",
"|. c #FDA93B",
" X c #FBB036",
".X c #FEA41E",
"XX c #B88558",
"oX c #B68553",
"OX c #9A8567",
"+X c #968778",
"@X c #8E8878",
"#X c #A78B78",
"$X c #BA9578",
"%X c #B18A6D",
"&X c #D78858",
"*X c #D08650",
"=X c #E49847",
"-X c #F1944C",
";X c #FAB74A",
":X c #FAAC50",
">X c #C79878",
",X c #D0946C",
"<X c #D2A37D",
"1X c #F2B071",
"2X c #E29866",
"3X c #FAC163",
"4X c #887D81",
"5X c #518D87",
"6X c #669389",
"7X c #71938C",
"8X c #78A597",
"9X c #6DA197",
"0X c #77B1A9",
"qX c #5EA09C",
"wX c #9B9688",
"eX c #999C94",
"rX c #8E8A84",
"tX c #A69889",
"yX c #B3988F",
"uX c #96A29C",
"iX c #A7A699",
"pX c #B5A796",
"aX c #8EB0A9",
"sX c #A9ACA5",
"dX c #B5B5AC",
"fX c #959BAA",
"gX c #D4A888",
"hX c #D8B599",
"jX c #CBAB90",
"kX c #E9B491",
"lX c #CBB8AC",
"zX c #E4BEAB",
"xX c #CE9D86",
"cX c #89C4BA",
"vX c #B3C5BA",
"bX c #D1C5B7",
"nX c #E9C9B6",
"mX c #D2C199",
"MX c #B1DBD3",
"NX c #A2D8D2",
"BX c #C9CDC4",
"VX c #D6DBD4",
"CX c #D0D2CC",
"ZX c #EBD8CD",
"AX c #D6E3DD",
"SX c #E7E2DD",
"DX c #F2E1CC",
"FX c #D1F2EC",
"GX c #E9E9E6",
"HX c #F2ECE8",
"JX c #E8F1EC",
"KX c #EEF1F1",
"LX c #F2F5F2",
"PX c #FBFDFB",
"IX c #F6FAF8",
"UX c #ECEFEF",
/* pixels */
"                                                                                                                                                                                  ",
"                                                                                                                                                                                  ",
"                                                                                                                                                                                  ",
"                              rXwXQ.K._ 5.wXiXeXrXrXrXrXeXeXeXeXiXsXsXsXiXeXeXeXuXiXsX                                                                                            ",
"k 0.[ l l [ %.=.W Q #.,.+XP.<.Q F m P k.N v c Z Q G m m b : b > > > g R  .=.7.9.9.).rX7X0.0.7XfXCXAXCXBXAX                                                                        ",
"  q.        9.OXI.K.I.5.} O . . X 2 s ! ~ z.Z D g j f 4 k %.a a o.|  .1.1.7...o.| | | | O.8.+.O.+.5X6XaXcXCXLX                                                                    ",
"            sXmX$XH.-.% . 5 5 . d J R i W g.E @ 4 k %.*.o.eX1.@ 3 2 :.6.6.9.%.%.o.o.X.o.o...O.7X7X6X5X).5X9XMXLXPX                                                                ",
"            dXAXpX_ , + e $ $ #.,.1.=.%. .k.z.2 , l 2.1.%.aX0.. @ R 3.3.6.! %. .{ X.X.X.X.....8.8X8X8X8X8X9XqXcXPXPXLX                                                            ",
"      L.F.I.P.#XOXX + W f k 7.9.1. . . .R H.g.d , s  .#.9.7X7., , #.1.W Q :.#.] ] |  . .X.X.O.| 8.9X8X9X8X0XaX0XcXFXPXLX                                                          ",
"    ( k.u.b.R.g.m u > F g 2.7.%.2.2.%. .| 3.x.F i d + {  .o.] < 4 3 < , 5 h a a | a X.#.X.8.*...] 8.6X6X6X9X9XaX0XcXFXPXJX        Q.                                              ",
"    b.g.b.m.XX3.. . > g l l % - 9.9.8.7.*.:.m.Z y g u , @ < < < p 5 2 4 3 4 3 i a ]  .#.X.X.o...(.@.@.@.@.8.5X6X9X8X0XMXFXFX    K p h                                             ",
"  k.n.n.A.M.x.g . W 6.R < . . + 9.).9.9.1.*.m.~ < g s e < 1 4 1 u p 4 3 4 y y y i y k  .[ o...X.(.(.@.(.(.@.@.@.).qX0XcXNXFXMX@XE.3.: .                                           ",
"  I i.N.N.d.b.& . k.oXb.) _ G Q wX6.*.9.2.2.oXg.1 g g s e < 4 < l h 3 y i y y y y i a [ #.&.7.*...+.(.@.@.(.(.@.@.5XqX0XNXNXFXNXuX3.5.tX                                          ",
". S a.N.N.d._ & x y.>X$X!.U.g.j.z.3.3.b.6.*.R.g.+ f s l l p 9 3 l k y p h p p y p i p i  .:.,.X.........O.@.(.@.@.(.5XqX0XcXMXMXvX9.eXHXPXKXLXdX@X                                ",
"%.6.u.d.N.d.m . n s.>XlX<X,XgX,XoXg.R.m.n.oXoXb.Q ^ ! ; S F g d l u y y y 3 3 3 3 3 3 i i { k { o.o...| | | | ] | | | ..8.8.6XaXvXaXdXBXVXGXIXVXdX-.u.m.                          ",
"%.6.u.d.M.d.U . V u.XX>Xi.,XnXhX<X*Xd.n.u.a.'.'.oXP.H.XXL.D.D.G.D.) ( / U P P G D D S b S A f S } #.#.%.0.fXvXvXfX4X7XQ.eXsXdXvXbXVXAXAXCXVXAXAXbXtX4.k.m.,XE.                    ",
"g #.I i.M.v.-.. c b.m.t.*X<X&XgX<XkX/.n.l.l.~ a.].*XH.P.XX%XOXW.L.F.L.F.F.F.G.L.K.L.L.L.L.W.W.W.wXtXwXyXpXpXsXdXbXBXbXBXCXAXSXJXHXLXIXIXJXJXJXJXJXCXiXrXq.dXpXq.rX                ",
"=.k n d.M.g.G . c g.c.y.gXhX<X<XmXDXxXn.m.g.g.~ w.s.m.P.D.b.R.%X#X#XL.K.F.F.F.D.D.D.>.F.F.F.F.K.K.L.L.Q.Q.Q.W.W.Q.+XtX+X@X+XwXiXsXMXAXGXJXFXJXPXJXVXiX+XwX@X@XE.>.Q.              ",
"4.k b a.i.y.m X x f.U.Y.hXhXgXkXHXDX,XA.*Xn.s.a.z.T v ~.tXK.F.Y.#X#XyX#X!.L.F.F.;.;.Y I Y Y Y U Y ;.;.F.F.K.E.K.E.P.>.pXiX@X+XtXtXiXsXvXvXvXdXvXdXeX#XOXP.K.<.<.:.P K.            ",
"- 1.K u.i.y.n X x w.R.$XhXxX>XgXZXbXM.B.].}.A.a.p.p.w.v !.D.Y ;.D.F.I.+X#X#XW.F.F.F.;.( I L P I I P Y U Y / ;.>.>.K.F.U iXtXK.P.E.W.OX+X+X+X+X@X@XQ.E.6.>.-.-./ U K P 5.          ",
"J %.W e.s.p.M . : Z J.$XhX>XT.gXhXm.u.a.M.=X'.'.n.p.y.z.w.j.Y Y ( ;.Y ;.;.K.!.W.L.D.D.D.D.I V B V V V V V V T L L L / ;.x E.W.>.5.F.K.E.K.P.P.E.q.5.<.>.;.^ U G U ^ / I F.        ",
"W - > u.s.p.f.. : c b.>XzXhX>XhXjXE X u a._.]._.A.A.x.v.l.G.F.F.D.D.D.;.;.Y Y ;.F.F.( Y ( D.) I V B B B B B c B V V B K P x 5.K./ <.>.<.F.5.H.5.5.;.-.^ U D D ^ / _ D.W.pX        ",
"g W W u.a.x.l.. - M w.$XhXhXmXmX$X. F ) 3.B.`.`._.A.A.c.U.U.Y.^.Y.^.G.L.F.F.;./ T Y ( / L T ( h.h.Y L B M c C B B c V c V L x ;.;.L U U U / / ;./ ^ ^ L n U / I ~ #XbXGXPXSX      ",
"W #.l Z a.x.x.S # w.t.Y.hXhXmXDX+X. ! W _ b._.[.`.C.Z./.~.hXzXlXyXyXyX!.^.G.h.h.D.D.Y ;.( Y V T I r.h.Y T B c c B B c V c c B v P V B V V P P Y L U ( P L M N I.dXGXIXPXIXdX      ",
"W #.. P y.a.x.~ $ y.p.t.xXhXhXDX@X. Q D Q ) A.[.[.{.}.*XxXHXPXHXHXGXSXBXlX$X!.Y.r.t.e.v t.T r.T C T r.r.h.r.P C c N M M B c B B c V c c V V I ~ L ) J.k.h.E.pXAXPXIXKXKXSXxX      ",
"&.W o > Z E g.z.$ v.n.e.XXhXhXZXq.J J h s -.n.|..X`.{.-X,XHXPXLXPXPXIXIXHXHXSXCXbXlXyXyXL.G.r.r.C v v e.u.y.l.G.Y B N N N B c B c M B B V C I ~ I L.XXz.x dXLXIXLXLXLXKXZXzX      ",
"J % - % g F _ k.x ) /.n.m.>XgXmX4.Q s h t J c.]. X;X{.-X-XkXHXIXHXKXLXIXIXPXLXLXLXLXSXUXSX4XF.Y j.Y.j.v v t.u.s.v.f.I T N N c M B B n L L P f.f.;.oX<XlXW.bXGXJXHXHXGXZXzXyXK.    ",
"J W - o m F ! k.k.Q R.Z.i.,X>XmX,.#.l j H k k.Z.;X1X:X|.:X-XkXDXUXKXLXLXKXUXLXLXUXUXHXHXUXfXX.7 U.1X2X/.A.m.x.s.s.s.p.j.r.r.N V ; - # o % f ^ E %XbX$XlXGXSXZXCXlXyXyX$XW.~ I.    ",
"  :.$ + X - F ^ k.3.! oX'.*X,X$X&.} ,.q j 5 _ A.:X;X X;X1X-X{.1XzXHXPXPXUXSXHXHXSXSXHXGXCXyXY j.n./.Z.Z.}.}.=X=X=XA.i.i.y.j.P O X . o o . & & . #XnXoXb.pXpXOX) ~ f.( ~ ) W.I.>.  ",
"    O + X . - S ! k._ m R.,X,X<X:.- #.j r e Q n.:X;X X;X|.[.-XZ.-XkXzXHXDXDXZXzXzXzXnXZXzX,X^.v.v.p.i.S.M._.[.`.`._.N.d.i.y.- . o X & . . o o . g I.oXm.m.N M E k./ ^ Q D J g f   ",
"                        > R.&X,X:.d A U } w Q b.].;X;X X{.{.-X-XZ.Z.Z./.2X2X2X,XxXxX~.!.^.G.j.r.w.w.t.t.y.i.d._.`.`.`.N.M.u.X o + O x x ; . o > . m b.$X%Xl.G.) G &.0.j q  .k R   ",
"                          % k.,X( p L G.=.f Q l.V..X;X`.C.A.Z.Z.-X1X-X-X2X2X2X/.,X/.~./.~.^.U.^.j.r.w.r.N N e.s.i._._.`.'.P X $ X h././.G.. O O . y k.%XI._ G > f W l o k =.W !   ",
"                              >.>.g D T * # J ) N.`. X;X[.A.n.c.^.j.J.U.R.T.,X!.^.^.^.^.^.^.^.U.U.U.c.c.v.g.y.w.p.s.M._.'.b . O . S G.r.x . o . o . G L : = d d d % . . . . - g   ",
"                                ^ S Q Q K d J ^ B._.[.|.;X:X{.*XD.} { ] ` ` { } } =.$.-.-.-.;./ r.h.r.r.f.r.f.z.f.w.w.u.b.W X X $ + . . . $ % o . . # $ e t - # . . . . . . & W   ",
"                                ! W H ^ -.. F ! n.V.].].`.[.].G 7 } [ } [ [ { { { { { { [ { { [ [ H } } H H K U L P G S ! l X = z = * * = O $ O . . # 5 % X . . . . . . . . s g   ",
"                                ! ! : T J f F S s.V.C.C.C.C.a.< } } $.q.=.' ] ] ` ` ` ` ` ` 7 ' ' ' ' ' ' q 6 q 0 < # f 6.g @ * A x * * : X . . . . # X . + X X X . . . . . u s   ",
"                                _ W x Y l g F d y.N.V.C.V.C.f., H j H q ' ` ` ` ` ] ` 0 ' ` 9 ' ' ' ] 0 7 7 7 7 < h f _ _ e , 2 = A * z A x = o . . + + + + + . X o o . o . % s   ",
"                                  3.F J d . F u u.M.N.V.V.C.b 2 H H [ q ` ' ` ` ] ' ' 9 ] p ' ' ] ' ] ' ` ' 7 q q F ^ _ ! 5 , 5 A A * A x z n O . o @ @ X + X . & o . . . . u l   ",
"                                  ) g l s e S 2 w.M.N.N.V.n.@ d F j j < 7 7 7 ` ' 9 9 9 9 q ] q ] ' 9 7 0 ] q q 6 g Q ! Q e 2 5 = A * = x z z * . . # % X + X o . . g :.W . u s   ",
"                                  W j g $.f f $ n p.M.M.V.y.@ S S f e < 7 7 7 ` 9 q 9 9 9 q q q q q q < 7 j j q 6 j S f F h w 5 t A * z n S n O . . % % X X X . X :.P.P.E.&.s     ",
"                                  ! > R 6.l r * u f P a.d.Z , f f f 5 < 7 < 8 6 0 0 9 q 9 8 q 8 q q 0 < < h l h 7 j S f S f < 4 t A * z z z ; O X . 5 % + & . l P.%XOXOX5.&.      ",
"                                  m m W l J r @ > F u y s % # d t e @ , < < 7 6 8 8 8 q 8 w 8 8 6 8 6 1 < < < 7 1 5 $.F f d , @ 5 * # + O O X X # . # & @ % 2 l P.OXOX!           ",
"                                    ! > S F + # f m m z O + d r - e @ w < < 1 1 8 8 8 8 8 1 8 8 8 8 6 < < 7 < 8 q 1 W 6.J 5 @ @ + + + X + X X . . & s & + 2 @ . . &.!             ",
"                                    m 3.:.- . d G ) OXOX>.% - f - f @ + , < < < 1 1 1 8 1 5 4 1 1 1 < < < 6 6 6 1 u l E.:.X + # 5 + + 5 o X X o . % l % + . d l u                 ",
"                                      ! W O + % f >.K.5.5.f s g ; r f s 2 w < < , < , , < X , < < , , , < , < < < , 5 ,.$.e # o 5 o . % + . . . X X # % #                         ",
"                                          O +           > e 5 d * % J Q e d d h h h h h 5 $.j , < , , , , @ @ @ , @ + X X h & . X X + @ + + + X X                                 ",
"                                                                                    d s d &.J h 5 2 1 1 4 1 2 2 @ 2 2 + 2 e e 5 5 d d w                                           ",
"                                                                                                                                                                                  ",
"                                                                                                                                                                                  ",
"                                                                                                                                                                                  "
};
