/* XPM */
static char *_69ae7f6a0064cd9ba257600d3ddeca3dgjxYL68EGkDMxhO[] = {
/* columns rows colors chars-per-pixel */
"60 60 13 1 ",
"  c None",
". c black",
"X c #681E1E",
"o c #7A3C3C",
"O c #32327A",
"+ c #C23232",
"@ c #AA7A3C",
"# c #F86844",
"$ c #DA9271",
"% c #71A2C2",
"& c #F8C292",
"* c #B2B2D2",
"= c #EAEAF8",
/* pixels */
"                                                            ",
"                                                            ",
"                  XXXXXXXXXXXXXXXXXXXXXXXX                  ",
"                  XXXXXXXXXXXXXXXXXXXXXXXX                  ",
"                  XXXXXXXXXXXXXXXXXXXXXXXX                  ",
"               XXX+++##################+++XXX               ",
"               XXX+++##################+++XXX               ",
"               XXX+++##################+++XXX               ",
"               XXX########################XXX               ",
"               XXX########################XXX               ",
"               XXX########################XXX               ",
"            XXX+++########################+++XXX            ",
"            XXX+++########################+++XXX            ",
"            XXX+++########################+++XXX            ",
"            ...++++++##################++++++...            ",
"            ...++++++##################++++++...            ",
"            ...++++++##################++++++...            ",
"            ...++++++++++++======++++++++++++...            ",
"            ...++++++++++++======++++++++++++...            ",
"            ...++++++++++++======++++++++++++...            ",
"         ...@@@XXX***+++***++++++***+++***XXX@@@...         ",
"         ...@@@XXX***+++***++++++***+++***XXX@@@...         ",
"         ...@@@XXX***+++***++++++***+++***XXX@@@...         ",
"         ...$$$...OOO==================OOO...$$$...         ",
"         ...$$$...OOO==================OOO...$$$...         ",
"         ...$$$...OOO==================OOO...$$$...         ",
"            ...ooo$$$OOOOOOOOOOOOOOOOOO$$$ooo...            ",
"            ...ooo$$$OOOOOOOOOOOOOOOOOO$$$ooo...            ",
"            ...ooo$$$OOOOOOOOOOOOOOOOOO$$$ooo...            ",
"            ...$$$$$$&&&...&&&&&&...&&&$$$$$$...            ",
"            ...$$$$$$&&&...&&&&&&...&&&$$$$$$...            ",
"            ...$$$$$$&&&...&&&&&&...&&&$$$$$$...            ",
"               ooo$$$$$$ooo&&&&&&ooo$$$$$$ooo               ",
"               ooo$$$$$$ooo&&&&&&ooo$$$$$$ooo               ",
"               ooo$$$$$$ooo&&&&&&ooo$$$$$$ooo               ",
"            ...OOO...ooo$$$$$$$$$$$$ooo...OOO...            ",
"            ...OOO...ooo$$$$$$$$$$$$ooo...OOO...            ",
"            ...OOO...ooo$$$$$$$$$$$$ooo...OOO...            ",
"         ooo&&&OOOOOO+++............+++OOOOOO&&&ooo         ",
"         ooo&&&OOOOOO+++............+++OOOOOO&&&ooo         ",
"         ooo&&&OOOOOO+++............+++OOOOOO&&&ooo         ",
"         ooo$$$$$$OOO++++++******++++++OOO$$$$$$ooo         ",
"         ooo$$$$$$OOO++++++******++++++OOO$$$$$$ooo         ",
"         ooo$$$$$$OOO++++++******++++++OOO$$$$$$ooo         ",
"            ooo......+++###======###+++......ooo            ",
"            ooo......+++###======###+++......ooo            ",
"            ooo......+++###======###+++......ooo            ",
"               OOO%%%OOO............OOO%%%OOO               ",
"               OOO%%%OOO............OOO%%%OOO               ",
"               OOO%%%OOO............OOO%%%OOO               ",
"               ......%%%%%%......%%%%%%......               ",
"               ......%%%%%%......%%%%%%......               ",
"               ......%%%%%%......%%%%%%......               ",
"               ...OOOOOO...      ...OOOOOO...               ",
"               ...OOOOOO...      ...OOOOOO...               ",
"               ...OOOOOO...      ...OOOOOO...               ",
"                  ......            ......                  ",
"                  ......            ......                  ",
"                  ......            ......                  ",
"                                                            "
};
