/* XPM */
static char *_cb24ff0763e4d52a78ebe3893eaaa66d48IymUW8YThJNLJ[] = {
/* columns rows colors chars-per-pixel */
"60 60 161 2 ",
"   c None",
".  c #201C1D",
"X  c #291D1D",
"o  c #301F1F",
"O  c #231F20",
"+  c #262122",
"@  c #292425",
"#  c #2B2728",
"$  c #2C292A",
"%  c #332222",
"&  c #3B2323",
"*  c #322D2E",
"=  c #312E30",
"-  c #353234",
";  c #3A3535",
":  c #363638",
">  c #393739",
",  c #3C3A3B",
"<  c #422423",
"1  c #4C2624",
"2  c #542726",
"3  c #502827",
"4  c #5D2826",
"5  c #4B3C3C",
"6  c #593636",
"7  c #523939",
"8  c #523636",
"9  c #622927",
"0  c #6F2825",
"q  c #6E2B28",
"w  c #742C29",
"e  c #7B2E2A",
"r  c #712926",
"t  c #7C322F",
"y  c #73302D",
"u  c #643533",
"i  c #6B3432",
"p  c #733330",
"a  c #4A3F40",
"s  c #454243",
"d  c #484445",
"f  c #494749",
"g  c #4B4A4C",
"h  c #514E4F",
"j  c #4E4F51",
"k  c #504F50",
"l  c #4F5154",
"z  c #535355",
"x  c #585657",
"c  c #565759",
"v  c #595758",
"b  c #57585A",
"n  c #58585A",
"m  c #775857",
"M  c #615F60",
"N  c #656263",
"B  c #696666",
"V  c #6C696A",
"C  c #706D6D",
"Z  c #716F70",
"A  c #757272",
"S  c #787576",
"D  c #7D7A7B",
"F  c #832F2A",
"G  c #84322E",
"H  c #8A332E",
"J  c #94322D",
"K  c #9B332E",
"L  c #A4352E",
"P  c #AA352F",
"I  c #B1362F",
"U  c #B63730",
"Y  c #BB3730",
"T  c #BD3831",
"R  c #C1352E",
"E  c #C23931",
"W  c #CB3A32",
"Q  c #D43B32",
"!  c #DC3D34",
"~  c #E53E35",
"^  c #ED3E35",
"/  c #F23E33",
"(  c #D24038",
")  c #EF4036",
"_  c #EF443A",
"`  c #F14036",
"'  c #F0473E",
"]  c #F0493F",
"[  c #92504D",
"{  c #AD4D48",
"}  c #807E7E",
"|  c #F14C43",
" . c #F05047",
".. c #F1534B",
"X. c #F25F57",
"o. c #F2675F",
"O. c #F26760",
"+. c #F36E66",
"@. c #F3746D",
"#. c #EE7770",
"$. c #F47D76",
"%. c #F47F78",
"&. c #848282",
"*. c #888686",
"=. c #8C898A",
"-. c #918E8E",
";. c #949192",
":. c #999595",
">. c #9D9A9A",
",. c #AA8C8B",
"<. c #A19E9E",
"1. c #A2A09F",
"2. c #A3A1A1",
"3. c #A9A6A6",
"4. c #AEACAC",
"5. c #B1AEAF",
"6. c #B1AFB0",
"7. c #B5B3B3",
"8. c #B8B7B7",
"9. c #BCBABA",
"0. c #F88D87",
"q. c #F68D87",
"w. c #EE9A95",
"e. c #F79E99",
"r. c #F7A29D",
"t. c #DEAEAC",
"y. c #C0BFBF",
"u. c #F8A9A5",
"i. c #F8ADA9",
"p. c #FABFBB",
"a. c #FAC1BD",
"s. c #C4C3C3",
"d. c #C9C7C7",
"f. c #CCCBCB",
"g. c #D0CFCF",
"h. c #D4D3D3",
"j. c #D9D7D7",
"k. c #DCDCDC",
"l. c #FBC7C4",
"z. c #E0DFDF",
"x. c #FBD4D2",
"c. c #FCDDDB",
"v. c #FCD9D7",
"b. c #FCE1DF",
"n. c #E0DFE0",
"m. c #E4E3E3",
"M. c #E8E7E7",
"N. c #E8E7E8",
"B. c #EBEBEB",
"V. c #FEE5E4",
"C. c #FCE8E7",
"Z. c #F3EFEE",
"A. c #FEEEED",
"S. c #F0EFF0",
"D. c #F3F3F3",
"F. c #FEF5F4",
"G. c #FFFBFA",
"H. c white",
"J. c #FFFEFE",
"K. c #FFFDFD",
"L. c #FFFFFF",
/* pixels */
"                                                + % < 1 2 4 4 2 1 < % +                                                 ",
"                                          & 4 F L E Q ! ~ ~ ~ ~ ! Q E L G 9 &                                           ",
"                                    & 9 K W ~ ` ` ` ` ` ) ) ) ` ` ` ` ` ^ ^ W K 9 %                                     ",
"                                & w Y ^ ` ` ) ) ` ` ` ) ) ) ) ) ) ) ` ) ` ` ` ` ^ T e &                                 ",
"                            o r R ^ ` ` ) ) ) ) ) ) ) ) ) ) ) ) ) ) ) ) ) ) ) ) ) ` ) E w @                             ",
"                          3 { #.0.q.@. .^ ) ) ) ) ) ) ) ) ) ) ) ) ) ) ) ) ) ) ) ) ) ) ` ^ P 3                           ",
"                      O m t.C.G.J.J.G.v.$.^ ` ` ) ) ) ) ) ) ) ) ) ) ) ) ) ) ) ) ) ) ) ) ^ ` Q w +                       ",
"                    ; :.Z.J.J.J.J.J.J.J.A.@.^ ` ) ) ) ) ) ) ) ) ) ) ) ) ) ) ) ) ) ) ) ) ` ` ` ^ J &                     ",
"                  5 6.J.J.J.J.J.J.J.J.J.J.a._ ` ) ) ) ) ) ) ) ) ) ) ) ) ) ) ) ) ) ) ) ) ) ) ) ) ^ L &                   ",
"                ; 5.J.J.J.J.J.J.J.J.J.J.J.V. .` ) ) ) ) ) ) ) ) ) ) ) ) ) ) ) ) ) ) ) ) ) ) ) ) ^ ` P &                 ",
"              % ,.J.J.J.J.J.J.J.J.J.J.J.J.C...^ ) ) ) ) ) ) ) ) ) ` ) ) ) ) ) ) ) ) ) ) ) ) ) ) ) ) ` L &               ",
"            X [ C.J.J.J.J.J.J.J.J.J.J.J.J.x.| ^ ) ) ) ) ) ) ) ) ) ) ) ) ) ) ) ) ) ) ) ) ) ) ) ) ) ) ` ` J +             ",
"            r w.J.J.J.J.J.J.J.J.J.J.J.J.J.u.) ) ) ) ) ) ) ) ) ) ) ) ) ) ) ) ) ) ) ) ) ) ) ) ) ) ) ) ) ` ~ w             ",
"          1 ( l.J.J.J.J.J.J.J.J.J.J.J.J.A.O.^ ` ) ) ) ) ) ) ) ) ) ) ) ) ) ) ) ) ) ) ) ) ) ) ) ) ) ) ) ) ` Q 3           ",
"        @ L | v.J.J.J.J.J.J.J.J.J.J.J.J.r.) ) ) ) ) ) ) ) ) ) ) ) ) ) ) ) ) ) ) ) ) ) ) ) ) ) ) ) ) ) ) ` ` P @         ",
"        0 ^ ] x.J.J.J.J.J.J.J.J.J.J.J.a.| ^ ) ` ) ) ) ) ) ) ) ) ) ` ` ` ^ ^ ` ` ) ) ) ) ) ) ) ) ) ) ) ) ) ` ^ q         ",
"      % T ` ` u.J.J.J.J.J.J.J.J.J.J.a. .^ ` ) ) ) ) ) ) ) ) ) ` ) E L t p p G L Q ^ ` ) ) ) ) ) ) ) ) ) ) ) ` T &       ",
"      w ^ ` ^ X.b.J.J.J.J.J.J.J.A.e.| ` ) ) ) ) ) ) ) ) ) ) ) T i 5 f l l z l f 5 G W ` ) ) ) ) ) ) ) ) ) ) ` ) w       ",
"    % U ` ) ) ^ O.l.F.G.J.F.V.i.o.) ^ ` ) ) ) ) ) ) ) ) ) ^ J 5 l n n n b c b n b g 8 P ) ) ) ) ) ) ) ) ) ) ) ` Y %     ",
"    4 ~ ) ) ) ) ^ ' o.$.$.@...` ^ ) ) ) ) ) ) ` ) ) ) ` ~ G s c n z g g v v h d z n z 5 L ) ) ) ) ) ) ) ) ) ) ) ~ 9     ",
"    J ` ) ) ) ) ^ ^ ^ / ^ ^ ^ ` ` ) ) ) ) ) ` ` ) ` ) ` K s b n g z >.h.B.B.n.4.N f b z 5 Y ) ) ) ) ) ) ) ) ) ) ` J     ",
"  & W ^ ) ) ) ) ^ ` ` ` ` ` ^ ^ ) ) ) ` ) ) ` ^ ` ` ` W 7 z n g N k.S.d.8.8.y.m.B.*.f b z 6 ~ ) ) ) ) ) ) ) ) ) ` W &   ",
"  4 ~ ) ) ) ) ) ) ) ) ) ` ` ^ ^ ` ` ` ` ^ ~ ~ Q W E T w g n z n m.k.4.h.B.S.k.8.d.D.D g n s L ` ) ) ) ) ) ) ) ) ` ~ 4   ",
"  e ` ) ) ) ) ) ) ` ) ) ` ` ^ ^ Q E L H p u 6 5 5 d d f n n f 8.N.4.D.J.J.J.J.J.9.g.n.z c z i ^ ` ` ) ) ) ) ) ) ) ` F   ",
"O K ` ` ) ) ) ) ^ / / _ Q U G u 7 a f j l z b b n n n n n c n B.8.m.J.J.J.J.J.J.G.4.D.} j b 5 H U Q ^ ` ` ) ) ) ) ` L O ",
"% Y ` ) ) ) ` ` ~ W K i 7 d j z b n n n n b b b n n n b n j S D.6.J.J.J.J.J.J.J.J.s.k.4.g n z g d 7 i L Q ) ` ` ` ` T % ",
"& W ` ` ^ ^ W J u a g z b n n n b b b b n n n n v v n v n j *.B.8.J.J.J.J.J.J.J.J.f.j.8.d b n n n x l f 7 t Y ^ ` ` W < ",
"1 ! ^ Q L i d g z b n n b b n n n b b b n n n n n n n n b j S D.4.J.J.J.J.J.J.J.J.y.n.3.g n n n v n n n x j 5 u L ~ ! 1 ",
"1 L t 7 g z n n n n n c n n n b n n n n n n n n b b n x n c v B.9.n.J.J.J.J.J.J.D.4.D.} j b b b n n n n n n n l s 6 H < ",
"@ = : l n v n n n c b n n b n x n b n n n x x z z z j z v n f 4.B.4.S.J.J.J.J.J.8.h.j.j x b n n x n b n b b n n b c f * ",
"# : : j n n n n n n b n b n b c z j g g g j x M V Z D v z n z x k.n.4.f.N.N.j.6.f.D.S j b n n b b n n b n v n b b n n , ",
"# : : , x b b n n n n c j g g z B } >.7.f.k.N.D.D.K.J.y.g b v j M g.D.g.9.9.s.B.N.} f z x f g j z b n n b n b n v n n > ",
"# : : : s l b b l j g n S 2.d.m.D.J.J.J.J.J.J.J.J.J.J.G.&.f n n l j =.f.m.m.h.2.n g n n f ;.7.=.V j f z c b n n n n x > ",
"@ : : : : ; a f z B -.N.J.J.J.J.J.J.J.J.J.J.J.J.J.J.J.J.B.V g n n x g g l z g f z n n f &.G.J.J.D.k.6.D v f g c n n x : ",
"+ - - = ; h C =.>.1.3.B.J.J.J.J.J.J.J.J.J.J.J.J.J.J.J.J.J.m.A f x x n b x x n b n x f *.S.J.J.J.J.J.J.J.M.9.&.n f l z $ ",
"O = f V =.<.2.<.>.1.<.g.J.J.J.J.J.J.J.J.J.J.J.J.J.J.J.J.J.J.B.>.z g l x x c z z g n 6.G.J.J.J.J.J.J.J.J.J.J.J.m.6.S s # ",
"  k >.<.<.<.<.<.<.<.>.8.G.J.J.J.J.J.J.J.J.J.J.J.J.J.J.J.J.J.J.J.n.<.A n z z n D 4.B.J.J.J.J.J.J.J.J.J.J.J.J.J.J.J.G.C   ",
"  f >.<.<.<.<.<.<.<.2.2.k.J.J.J.J.J.J.J.J.J.J.J.J.J.J.J.J.J.J.J.J.J.J.B.m.m.D.J.J.J.J.J.J.J.J.J.J.J.J.J.J.J.J.J.J.S.c   ",
"  = *.<.<.<.<.<.<.<.<.>.9.G.J.J.J.J.J.J.J.J.J.J.J.J.J.J.J.J.J.J.J.J.J.J.J.J.J.J.J.J.J.J.J.J.J.J.J.J.J.J.J.J.J.J.J.f.-   ",
"    B 2.<.<.<.<.<.<.1.>.2.m.J.J.J.J.J.J.J.J.J.J.J.J.J.J.J.J.J.J.J.J.J.J.J.J.J.J.J.J.J.J.J.J.J.J.J.J.J.J.J.J.J.J.J.;.    ",
"    d :.<.<.<.<.<.<.<.<.>.8.D.J.J.J.J.J.J.J.J.J.J.J.J.J.J.J.J.J.J.J.J.J.J.J.J.J.J.J.J.J.J.J.J.J.J.J.J.J.J.J.J.J.B.v     ",
"    $ } 1.<.<.<.<.<.<.<.2.<.f.J.J.J.J.J.J.J.J.J.J.J.J.J.J.J.J.J.J.J.J.J.J.J.J.J.J.J.J.J.J.J.J.J.J.J.J.J.J.J.J.J.9.$     ",
"      h >.<.<.<.<.<.<.<.<.<.3.m.J.J.J.J.J.J.J.J.J.J.J.J.J.J.J.J.J.J.J.J.J.J.J.J.J.J.J.J.J.J.J.J.J.J.J.J.J.J.J.G.V       ",
"      $ } 2.<.<.<.<.<.<.<.<.>.4.B.J.J.J.J.J.J.J.J.J.J.J.J.J.J.J.J.J.J.J.J.J.J.J.J.J.J.J.J.J.J.J.J.J.J.J.J.J.J.9.*       ",
"        g >.<.<.<.<.<.<.<.<.<.<.8.D.J.J.J.J.J.J.J.J.J.J.J.J.J.J.J.J.J.J.J.J.J.J.J.J.J.J.J.J.J.J.J.J.J.J.J.J.D.M         ",
"        @ C <.<.<.<.<.<.<.<.<.<.<.8.S.J.J.J.J.J.J.J.J.J.J.J.J.J.J.J.J.J.J.J.J.J.J.J.J.J.J.J.J.J.J.J.J.J.J.D.=.+         ",
"          ; =.2.<.<.<.<.<.<.<.<.<.>.7.B.J.J.J.J.J.J.J.J.J.J.J.J.J.J.J.J.J.J.J.J.J.J.J.J.J.J.J.J.J.J.J.J.D.<.-           ",
"            g :.<.<.<.<.<.<.<.<.<.<.<.5.k.J.J.J.J.J.J.J.J.J.J.J.J.J.J.J.J.J.J.J.J.J.J.J.J.J.J.J.J.J.J.m.3.d             ",
"            + n <.<.<.<.<.<.<.<.<.<.<.<.2.d.D.J.J.J.J.J.J.J.J.J.J.J.J.J.J.J.J.J.J.J.J.J.J.J.J.J.J.D.f.3.v +             ",
"              # N <.<.<.<.<.<.<.<.<.<.<.<.<.5.k.G.J.J.J.J.J.J.J.J.J.J.J.J.J.J.J.J.J.J.J.J.J.J.G.k.8.<.N @               ",
"                $ C <.<.<.<.<.<.<.<.<.<.<.<.<.<.7.j.D.G.J.J.J.J.J.J.J.J.J.J.J.J.J.J.J.J.J.D.k.9.2.>.V #                 ",
"                  $ N <.<.<.<.<.<.<.<.<.<.<.<.<.<.<.5.d.m.D.J.J.J.J.J.J.J.J.J.J.J.J.D.m.f.5.2.2.>.N @                   ",
"                    @ n :.2.<.<.<.<.<.<.<.<.<.<.<.<.<.<.<.3.y.g.j.m.m.B.B.B.m.j.f.9.5.2.<.<.<.:.v +                     ",
"                      O d *.<.<.<.<.<.<.<.<.<.<.<.<.<.<.<.<.<.<.<.1.3.2.2.2.2.<.1.>.<.<.<.<.*.d O                       ",
"                          - B :.1.<.<.<.<.<.<.<.<.<.<.<.<.<.<.<.<.<.<.<.<.<.<.<.>.2.>.2.:.B -                           ",
"                            + d S >.2.1.<.<.<.<.<.<.<.<.<.<.<.<.<.<.<.<.<.<.<.<.2.2.>.S 5 +                             ",
"                                @ d A ;.1.2.<.<.<.<.<.<.<.<.<.<.<.<.<.<.<.<.1.<.:.A d @                                 ",
"                                    + , n D :.<.<.<.2.<.<.<.<.<.<.<.2.2.<.;.} n > +                                     ",
"                                          @ ; h N A &.=.-.-.-.-.=.&.A N g > @                                           ",
"                                                . O # * - ; - - * @ + .                                                 "
};
