/* XPM */
static char *_7622b244956484d963d72e1abf964e1RddXKAO1xMGVbAXU[] = {
/* columns rows colors chars-per-pixel */
"60 60 207 2 ",
"   c None",
".  c #010102",
"X  c #070509",
"o  c #09060A",
"O  c #0D090D",
"+  c #080507",
"@  c #0E0913",
"#  c #120D13",
"$  c #130D1A",
"%  c #161015",
"&  c #1A121B",
"*  c #181017",
"=  c #20151F",
"-  c #1C1423",
";  c #1E152B",
":  c #221723",
">  c #241923",
",  c #281E26",
"<  c #2B1E2B",
"1  c #241C2C",
"2  c #251A35",
"3  c #281933",
"4  c #2F212E",
"5  c #30232D",
"6  c #2F2031",
"7  c #2F233C",
"8  c #332333",
"9  c #3B2A37",
"0  c #32233D",
"q  c #39263B",
"w  c #36293A",
"e  c #3C2A3C",
"r  c #362932",
"t  c #402A3D",
"y  c #2A1E42",
"u  c #2D2043",
"i  c #3E2B43",
"p  c #382848",
"a  c #3A2858",
"s  c #442C45",
"d  c #432C4B",
"f  c #413046",
"g  c #493346",
"h  c #4C334C",
"j  c #47354D",
"k  c #51364F",
"l  c #472C52",
"z  c #4B3254",
"x  c #473456",
"c  c #533953",
"v  c #54385C",
"b  c #5C3D5C",
"n  c #53365C",
"m  c #422F61",
"M  c #4C316D",
"N  c #553B64",
"B  c #5C3D64",
"V  c #5D3A6A",
"C  c #583666",
"Z  c #553A74",
"A  c #623E6C",
"S  c #653E78",
"D  c #5B426D",
"F  c #5A4262",
"G  c #5A4677",
"H  c #654464",
"J  c #6A446D",
"K  c #674969",
"L  c #69536B",
"P  c #654571",
"I  c #684674",
"U  c #724E73",
"Y  c #744F7A",
"T  c #784E7D",
"R  c #6C507E",
"E  c #7B547F",
"W  c #765878",
"Q  c #825B7D",
"!  c #3A39A3",
"~  c #583D8C",
"^  c #563B95",
"/  c #5D39A3",
"(  c #6439A3",
")  c #6E39A3",
"_  c #793AA3",
"`  c #624385",
"'  c #684A8A",
"]  c #7D4E86",
"[  c #6E528B",
"{  c #775988",
"}  c #664796",
"|  c #775199",
" . c #5647A5",
".. c #6C4CA4",
"X. c #6D44A4",
"o. c #7343A4",
"O. c #7D45A4",
"+. c #734CA5",
"@. c #7E59A9",
"#. c #6D55A6",
"$. c #8739A3",
"%. c #85598A",
"&. c #855B86",
"*. c #86559B",
"=. c #89668C",
"-. c #93668D",
";. c #956B8D",
":. c #8D6493",
">. c #8D629D",
",. c #876398",
"<. c #9A6B95",
"1. c #986898",
"2. c #9A7490",
"3. c #A46D9D",
"4. c #A27295",
"5. c #A5779C",
"6. c #8C4EA5",
"7. c #824AA3",
"8. c #8554A6",
"9. c #8C54A6",
"0. c #8C5CA6",
"q. c #8C57A8",
"w. c #845BAA",
"e. c #8C5CAA",
"r. c #825CA6",
"t. c #9454A6",
"y. c #9956A6",
"u. c #9459A7",
"i. c #9B5BA5",
"p. c #945CA9",
"a. c #995CA9",
"s. c #A15DA5",
"d. c #8362A5",
"f. c #8D63A5",
"g. c #8B62AB",
"h. c #846DAA",
"j. c #8C69AA",
"k. c #8763AA",
"l. c #9365A5",
"z. c #9B63A5",
"x. c #9A6BA7",
"c. c #9463A9",
"v. c #9B62A9",
"b. c #936BAA",
"n. c #9D6BAA",
"m. c #9D73AD",
"M. c #9D7CAB",
"N. c #9673A9",
"B. c #9B7DB2",
"V. c #A36BA6",
"C. c #A96BA6",
"Z. c #A464A9",
"A. c #AA66A8",
"S. c #A46DAA",
"D. c #AC6BAA",
"F. c #A364A3",
"G. c #B26DA9",
"H. c #B26CA6",
"J. c #A572A5",
"K. c #AD74A4",
"L. c #A473AB",
"P. c #AB74AB",
"I. c #A57AAB",
"U. c #AC7AAA",
"Y. c #B374AB",
"T. c #B47CAC",
"R. c #BA7CAB",
"E. c #B576A8",
"W. c #A77FB1",
"Q. c #C07FAC",
"!. c #AE829D",
"~. c #AB82AC",
"^. c #A883AA",
"/. c #B483AC",
"(. c #BB83AC",
"). c #B68CAE",
"_. c #BC8CAD",
"`. c #B987A5",
"'. c #BE96AF",
"]. c #B584B1",
"[. c #B48BB0",
"{. c #BB8DB0",
"}. c #C385AD",
"|. c #C48AAC",
" X c #C689AA",
".X c #C494AD",
"XX c #CC93AC",
"oX c #C298AD",
"OX c #CC9AAC",
"+X c #C390A6",
"@X c #D49CAC",
"#X c #D499AC",
"$X c #C38DB1",
"%X c #CD8FB0",
"&X c #CB96B1",
"*X c #CB9DB2",
"=X c #C396B1",
"-X c #D59BB2",
";X c #CFA3AF",
":X c #DCA3AD",
">X c #DCA9AF",
",X c #D1A3B4",
"<X c #DAA1B2",
"1X c #EFB9AF",
"2X c #E0A9B0",
"3X c #EFB8B1",
"4X c #E9B5B5",
/* pixels */
"                                                                                                                        ",
"                                                                                                                        ",
"                                                                                                                        ",
"                                                                                                                        ",
"                                                                                                                        ",
"                                                                                                                        ",
"                                                                                                                        ",
"                                                                                                                        ",
"                                        3X                        +.+.X.( (     ! ! !                                   ",
"                                      1X      =X'.      T.$X*X*X,X,X,X*X              ! ! !                             ",
"                                    3X      oX`.i.u.Y.                                                                  ",
"                                        '..XC.9.0.                                                                      ",
"                                      '._.v.9.          p.u.t.y.i.y.t.              h.^.                                ",
"                                    ).).v.g.      S.Z.s.s.s.i.i.s.C.G.R.R.D.i.          h.^.                            ",
"                            4X    M.~.e.      P.D.s.i.i.s.A.D.A.F.A.H.E.R. X X(.a.          h. .                        ",
"                          -X    g.I.w.    L.E.A.i.u.C.E.E.E.K.  x.z.V.Y.T. XXX@XOXS.o.        ! !                       ",
"                        D.4X  e.c.k.    L.G.  q.n.K.C.3.5.5.5.          I.T.}.@X@X#X/.o.(         !                     ",
"                        }.  a.e.b.k.  n.    0.J.3.4.5.4.;.-.-.-.<.<.:.      L.U.XX:X:X}.  (                             ",
"                      9.<X  q.e.k.  b.Z.  z.C.<.4.;.E P A F D P I Y E -.      I.U. X:X:X$X  (                           ",
"                      D.  p.q.g.    L.    3.-.-.T C z d i i i i d z n P { :.    I.L.(.XX  T.  (                         ",
"                      Q.  u.e.j.  L.    3.%.&.P z i 8 5 8 6 < 6 q i i h N R =.      I.U.  &XP.  (                       ",
"                      %X  p.w.m.r.P.  >.%.E P j 3 > : - * # # # & = < i z N P {     U.N.    &XZ._                       ",
"                  h.  -X  q.w.  0.x.| 1.Y J c r > & # O + X X X o O # : q j n P       P.@.  |.{.  _                     ",
"                        S.e.g.j.F.  :.%.K b 9 > % @ + X . . . . . X + # : 9 h C               $XL.  )                   ",
"                  L.    S.g.j.j.P.  :.U b g , % O + . . . . . . . . . O # > t c V           c.Y.(.  $./                 ",
"                  m.  ].n.w.  j.L.} %.H c 9 = O + . . . . . . . . . . X O $ < h n `           G.T.    _                 ",
"                  P.  W.m.@.  b.x.' Q b g 5 % + + . . . . . . . . . . . + # > t k V       D.  Y.C.b.  $.(               ",
"                  Y.  ].P.8.  c.>.' U k t 5 # + . . . . . . . . . . . . + O & 8 k n             G.9.    )               ",
"                  (.    P.g.  c.>.' P g q = O . . . . . . . . . . . . . . O * < h c         u.  Y.a.      !             ",
"              ~.  ].    U.n.  f.>.[ H h q = O . . . . . . . . . . . . . . O * , s A         v.  Q.A.      !             ",
"                  /.A.  P.L.  r.*.{ C h 8 = O . . . . . . . . . . . . . . O # 5 g H         D.    D.o.                  ",
"                ^.).E.  L./.  +.*.[ N h 8 = # X . . . . . . . . . . . . . O % 5 g J     ~.  P.9.  G.7.                  ",
"                N.  /.  c./.    | ` V l 8 > # o . . . . . . . . . . . . + O & 4 s U     [.  T.q.  G.6.                  ",
"                  j./.E.  P.    ( [ G z q > & O + . . . . . . . . . . . X # 4 r h U     [.  (.a.  E.6.                  ",
"                  ..  T.Y.v.}.    } ` N d < & # + + . . . . . . . . . X O & r q H     z.[.v.$Xv.  R.i.                  ",
"                  k.  I.R.n.Y.    ^ ` Z l u 1 * # + + . . . . . . X . o $ , e d W     J.).c.&XZ.  }.E.                  ",
"                  OX7.  U.R.z.(.    ~ Z m p 3 - # @ o X X X X X X X o # - 9 e b Q     ~.~.V.&X     XQ.                  ",
"                    /.    R.C.V.      ~ M a y 2 : $ @ o X X X X X @ % - r i d Q     0.oXf.(.XX    #XY.                  ",
"                    OXP.    (.V.P.    ,.` M a 2 2 3 - $ $ @ @ @ $ - 1 w i p I ;.    I.oX7.-X|.    ;X                    ",
"                      .XS.    (.V.U.&X  >.[ Z   y y 2 ; ; ; ; ; 1 0 i j   D ;.      ,XI.z.2XE.                          ",
"                        `.n.    ].Z.P.&X    ,.R D x p 7 7 7 w i k z x   I <.        ,X9. X>Xs.                          ",
"                          P.S.      D.S.`.      2.=.W W L L L K F     ] 1.        *XI.t.>XXX                            ",
"                            S.P.6.    L.Z.S.(.+X'.!.2.2.=.          1.      /.    '.O./.>XH.                            ",
"                              0.P.v.O.  L.P.S.x.N.>.j.>.>.      1.z.      ].    [.w.p.OX Xt.                            ",
"                            _.    n.P.v.9.    a.z.v.p.z.v.n.z.          $X    `.g.7..XXXD.                              ",
"                             .v.P.                                  }.|.    ~.n.      Y.n.                              ",
"                                o.q.D.W.I.                      |.{.      /.        }.P.                                ",
"                                    ( O.q.c.N.W.  B.      b.[.=XI.      }.l.                                            ",
"                                                  9.q.g.c.e.        U.J...                                              ",
"                                                                U.I.d.                                                  ",
"                                                            ..#.                                                        ",
"                                                                                                                        ",
"                                                                                                                        ",
"                                                                                                                        ",
"                                                                                                                        ",
"                                                                                                                        ",
"                                                                                                                        ",
"                                                                                                                        ",
"                                                                                                                        ",
"                                                                                                                        "
};
