/* XPM */
static char *_51bf30f0e2d4c5dd83f536f8ba2d9f7y8LQWWlBSNyQRmCx[] = {
/* columns rows colors chars-per-pixel */
"78 78 141 2 ",
"   c None",
".  c black",
"X  c #1D1015",
"o  c #332F2E",
"O  c #353032",
"+  c #3A3534",
"@  c #3C3738",
"#  c #3D383B",
"$  c #413D3E",
"%  c #43403F",
"&  c #423E40",
"*  c #454343",
"=  c #494545",
"-  c #4A4648",
";  c #4D494A",
":  c #514D4E",
">  c #524F50",
",  c #565455",
"<  c #595556",
"1  c #565559",
"2  c #595759",
"3  c #5D5A5B",
"4  c #605D5E",
"5  c #615E60",
"6  c #646263",
"7  c #696667",
"8  c #676669",
"9  c #686769",
"0  c #6B6A6C",
"q  c #706F6F",
"w  c #70706E",
"e  c #706E71",
"r  c #737273",
"t  c #777679",
"y  c #78777A",
"u  c #7B7A7D",
"i  c #7E7D80",
"p  c #807F81",
"a  c #7E8080",
"s  c #828184",
"d  c #868689",
"f  c #88878B",
"g  c #87888A",
"h  c #8A8A8D",
"j  c #8E8E90",
"k  c #908F93",
"l  c #8E9091",
"z  c #959595",
"x  c #999797",
"c  c #989897",
"v  c #969699",
"b  c #98969A",
"n  c #97989B",
"m  c #9B9C9D",
"M  c #9D9DA0",
"N  c #A09EA2",
"B  c #9FA1A2",
"V  c #A3A3A4",
"C  c #A7A6A9",
"Z  c #A8A7AA",
"A  c #A7A8A9",
"S  c #ABAAAD",
"D  c #AEAEB1",
"F  c #B0AFB3",
"G  c #B0AFB2",
"H  c #B0AFB3",
"J  c #AFB0B3",
"K  c #AFB0B4",
"L  c #AEB0B3",
"P  c #B1B0B3",
"I  c #B1B1B5",
"U  c #B2B1B5",
"Y  c #B1B3B5",
"T  c #B1B2B4",
"R  c #B2B3B5",
"E  c #B2B3B7",
"W  c #B3B4B7",
"Q  c #B1B2B4",
"!  c #B6B5B9",
"~  c #B7B6BA",
"^  c #B6B7BA",
"/  c #B6B6BA",
"(  c #B8B7BB",
")  c #B7B8BC",
"_  c #B7B8BB",
"`  c #B9BABD",
"'  c #BABABE",
"]  c #BBBCBF",
"[  c #BABABE",
"{  c #C0BFBF",
"}  c #BBBCC0",
"|  c #BDBEC1",
" . c #BEBEC1",
".. c #BEBFC2",
"X. c #BDBEC1",
"o. c #BDC0C1",
"O. c #BEC1C2",
"+. c #BFC0C3",
"@. c #BFC1C4",
"#. c #BEC0C3",
"$. c #C1C1C4",
"%. c #C1C1C5",
"&. c #C1C3C6",
"*. c #C2C2C6",
"=. c #C2C3C6",
"-. c #C2C4C7",
";. c #C1C2C5",
":. c #C8C7C7",
">. c #C4C4C8",
",. c #C5C5C8",
"<. c #C5C5C9",
"1. c #C5C7C8",
"2. c #C5C6CB",
"3. c #C6C6CA",
"4. c #C7C7CB",
"5. c #C5C6C9",
"6. c #C7C8CC",
"7. c #C7C9CC",
"8. c #C7CACD",
"9. c #C8C8CC",
"0. c #C9CBCD",
"q. c #CBCBCD",
"w. c #C8CBCE",
"e. c #CACBCE",
"r. c #CBCBCE",
"t. c #CDCBCE",
"y. c #C9CDCE",
"u. c #CBCDCF",
"i. c #CCCCCF",
"p. c #CBCCCE",
"a. c #CBCDD0",
"s. c #CBCED0",
"d. c #CDCDD0",
"f. c #CECCD1",
"g. c #CFCFD2",
"h. c #CECDD1",
"j. c #CED0D3",
"k. c #D3D2D4",
"l. c #D5D4D8",
"z. c #DCDCDC",
"x. c #E2E2E2",
/* pixels */
"A z c c z c z c c z v c c c z z x c z c c c c z z c z z c c c c z z c c z z c c c z z v z z c x c c z z c z z z c z c c z c z z z c c c z z c c z c c c c V ",
"V 3 > = N s 3 = e V > , ; b d 1 = t V 3 1 ; x h , % y m 8 ; > v g , @ p n 0 ; ; m s 3 o s v 0 : * N i 5 @ d v 9 1 * V y 6 @ p m 5 3 % V y 3 $ u M 2 2 ; 3 c ",
"V 6 ;   ,.b t     } ,     &.M 0     } e     ..B 4     E 0     ` m       I i     ..m       F t     &.v s     D i     7.j h     I r     9.h       ` 0   O 4 m ",
"V 6     h.b       ) 1     d.M       ` 0     1.m       K 0     O.m       P i     ,.v       D t     9.v       D s     a.j       I t     i.h       / 0     4 m ",
"V 6 ;   d.b       ) 1     7.M       ` 0     -.M       K 0     O.m       F i     +.b       D t     ,.v       D i     y.h       Y w     w.h       / 9     4 m ",
"A 6 ;   d.b       ) 2     y.M       ' 0     -.M       K 0     O.m       F p     &.m       D t     2.v       D a     y.z       Y r     t.f       / 8     4 m ",
"V 6 :   d.b       I 2     w.M       ` 0     -.m       J 0     ..m       F i     &.b       F t     ,.v       S s     w.h       Y r     t.f       ( 8     3 m ",
"V 6 ;   h.b       J 2     w.M       ` 0     -.M       J 0     ..M       F i     &.b       D t     ,.v       D s     9.z       P 0     w.h       / 9     4 m ",
"V 6 ;   d.b       I 3     7.M       ` 0     -.m       D 0     @.m       F i     &.b       F t     >.v       D p     y.z       P 0     i.h       ( 7     4 m ",
"V 5 ;   d.b       W 2     a.M       ' 0     -.M       D 8     ..m       P i     &.b       S t     >.c       S s     d.h       P 0     i.h       ( 9     4 m ",
"A 6 ;   f.n       / 2     w.M       ' 0     ,.M       D 0     O.M       F u     &.v       F t     ,.v       D a     i.l       P w     i.f       ( 7     4 m ",
"V 6 ;   t.b       / 2     y.M       ' 9     &.m       J 0     O.m       F p     &.m       F t     ,.v       S s     i.l       I r     i.f       ' 6     4 m ",
"V 6 ;   t.v       / 2     y.M       ` 0     -.M       K 0     ..m       D i     =.b       F t     2.v       D p     j.h       I w     d.h       ! 8     4 m ",
"A 6 ;   f.n       / 1     w.M       ` 0     -.m       J 0     &.M       F u     &.b       D t     ,.v       S a     i.h       Y w     d.f       ! 8     4 m ",
"V 6 ;   d.n       / 2     w.M       ` 0     -.m       J 0     @.m       D u     &.b       F t     ,.v       D p     w.z       Y w     t.h       / 9     4 m ",
"V 6 ;   d.b       / 1     w.M       ` 0     1.m       J 0     @.M       D u     &.b       D t     ,.v       S i     y.l       W 0     t.h       / 9     4 m ",
"V 6 ;   d.b       / 1     7.M       ' 0     -.m       J 0     O.m       D i     >.b       D y     ,.v       D i     w.k       I w     t.h       / 8     4 c ",
"V 6 ;   f.b       / 1     w.M       ` 9     -.M       K 0     @.m       D u     @.m       D y     ,.v       S i     y.j       Y r     i.h       ( 8     4 m ",
"A 6 =   h.b       _ 1     w.M       ` 0     -.m       K 8     @.M       D u     &.b       D y     ,.v       F u     w.l       W w     i.f       / 8     4 m ",
"V 6 =   f.b       / 1     w.M       ` 0     -.M       D 0     O.m       D u     &.b       D y     ,.v       D i     t.j       Y 0     i.f       / 8     4 m ",
"V 6 =   f.b       / 1     w.M       ` 9     -.m       J 0     O.m       D y     &.n       D y     ,.v       D u     i.h       W w     i.h       ( 8     4 m ",
"V 6 *   t.b       ) 1     y.M       ` 0     -.M       K 0     ..M       D i     &.n       D y     ,.v       D u     i.z       I w     i.f       / 8     4 m ",
"V 6 *   f.b       ` 1     y.M       ` 0     -.m       D 0     &.m       D y     &.v       D y     ,.v       D u     w.h       W 0     f.g       ( 8     4 m ",
"A 6 *   f.n       / 1     w.M       ] 0     -.m       J 0     &.M       D u     +.m       D u     ,.v       D u     w.z       Y r     w.h       / 7     4 m ",
"V 6 %   f.b       ` 1     y.M       ' 0     -.M       J 8     O.m       D y     *.n       D y     >.v       D u     i.l       I 0     i.h       ( 7     4 m ",
"V 6 *   f.b       ( 1     w.M       ` 0     -.m       L 0     O.m       D u     *.n       D t     >.c       D u     y.l       Y w     d.h       ( 0     4 m ",
"V 6 *   f.b       / 1     y.M       ' 0     -.m       D 0     @.M       D u     *.n       D t     ,.v       D u     y.j       W 0     i.h       ( 6     4 m ",
"A 6     f.b       / 1     y.M       ' 9     -.M       D 0     O.m       S u     *.m       D t     ,.v       D u     d.j       P 0     i.h       ( 9     4 c ",
"V 6     h.b       / 1     y.M       ' 0     -.m       J 0     &.m       D u     +.n       D t     2.v       D u     y.l       P w     i.h       ( 6     4 m ",
"V 6     h.b       / 1     w.M       ' 9     1.m       D 0     @.m       D y     &.n       S t     ,.v       D u     i.l       Y w     i.h       ! 7     4 m ",
"V 6     f.b       ) 1     w.M       ' 0     &.m       J 0     O.m       S u     +.n       D u     ,.v       D u     d.l       Y w     f.g       / 0     4 m ",
"V 6     f.b       _ 2     y.M       ' 0     =.m       J 8     @.M       D y     &.m       S y     ,.v       D u     d.h       Y w     w.h       / 8     4 m ",
"V 6     f.b       ) 2     w.M       ` 0     -.M       J 0     @.m       D u     +.b       F u     ,.v       D u     y.l       Y w     y.h       / 0     4 m ",
"A 6     f.n       ) 2     y.M       ' 9     &.m       J 8     @.m       S u     &.n       S u     ,.v       D u     y.h       W w     d.h       ( 8     4 m ",
"V 6     f.b       ) 2     y.M       ` 0     1.m       J 0     @.M       D u     >.n       F y     >.v       F u     i.z       I w     0.s       P ,     < m ",
"V 6 &   t.b       / 1     7.M       ( 0     &.m       S 0     O.m       S t     ..b       D t     >.c       S u     w.h       I w     k.W i.x.l.&.W     4 c ",
"A 7     k.b       ` 4     j.V       ..q     9.m       I 0     -.B       D i     :.m       F s     w.b       P u     g.z       _ r   k.x.z.x.d.z.z.x.k.x m V ",
"m >     q.k       I #     1.z       ! 1     $.c       S ,     ] c       Z 0     ] z       C 0     &.j       A 0     :.d       S 4   k.z.z.S . S z.z.d.r u z ",
"B z x m A m m m V V z B B A m m m V V z V m V B c B V V z m V V m b B V V b m V V m m B V V b m N A m m m A V c V m A m B m A V c m :.z.z.[ . { z.z.9.h l m ",
"m h z B A m b m V V z M m A m b m V V k m m A m c m V V z B m V m b b V V c m m A b c b V V b m m A b c b A B z m m A c x m V V c c q.z.z.P . R z.z.q.s s c ",
"V > X   f.k       / 1     4.v       ( 2     $.m       I 8     ] m       S t     ..j       C t     >.f       S 0     9.s       J 4   k.x.z.g . h z.z.f.u a c ",
"A 6 2   k.b       ` 0     a.M       } q     ,.V       ) t     &.V       I s     ,.m       S s     w.z       J y     j.l       W t   k.z.z.1.{ :.z.z.q.x c V ",
"V 6 >   f.v       / 9     7.M       ' 0     @.B       E r     O.B       F u     @.b       Z s     ,.j       J y     w.h       Y r   A ( m [ :.{ A S D   4 c ",
"A 6 <   h.b       / 8     y.m       ] 0     -.B       E r     O.V       P p     @.b       S s     ,.j       S y     i.h       Y w     ` 0 c m ! m q     4 m ",
"V 6 1   h.v       / 8     y.M       ' 0     -.B       / r     O.B       F u     @.n       S p     ,.j       J t     y.h       P w     l.h       ] r     6 x ",
"V 6 <   h.b       / 8     w.m       ' 9     &.B       Y r     ..V       I u     &.n       Z s     ,.j       J t     y.l       P 0     w.h       ! 7     4 m ",
"V 6 <   h.v       ) 9     y.M       ` 0     &.B       Y 0     O.B       F u     &.b       Z s     2.j       J y     i.h       P w     a.f       / 0     4 m ",
"V 6 <   h.b       ) 8     w.m       ` 0     -.B       I r     O.B       I u     &.v       A s     2.j       S y     s.h       J 0     f.h       / 0     5 m ",
"V 6 <   d.v       _ 8     y.m       ` 0     &.B       E r     O.V       U u     &.v       S s     ,.j       D t     y.h       I q     y.h       / 8     4 m ",
"V 6 <   f.z       _ 8     y.M       ' 0     &.B       / r     O.N       U u     $.v       S s     2.j       D y     j.h       W q     d.h       / 9     4 m ",
"V 6 <   d.v       _ 8     w.M       ' 0     1.V       / r     ..B       P u     $.b       S s     2.j       D t     a.h       W q     i.d       ) 8     4 m ",
"V 6 2   k.v       _ 8     y.m       ' 0     &.M       E r     O.V       U u     $.n       S s     ,.j       D t     y.h       Y w     i.h       / 8     4 m ",
"A 6 2   j.c       ` 8     w.M       ' 9     &.B       / r     O.B       P u     $.v       S s     2.j       D t     y.h       W 0     d.h       / 8     4 m ",
"V 6 2   j.c       / 9     y.m       ' 0     &.B       / r     O.B       I u     O.n       A s     >.j       D t     i.l       I w     d.f       / 8     4 m ",
"V 6 ,   d.v       / 8     y.M       ` 9     &.B       E r     O.V       F u     &.n       S s     2.j       D t     y.h       W r     t.h       / 8     4 m ",
"V 6 ,   d.v       ` 8     w.M       ` 0     &.B       _ r     O.B       P u     +.b       S s     2.j       D t     d.h       Y 0     a.h       ) 8     4 m ",
"V 6 1   h.v       _ 8     y.M       ` 0     &.B       / r     O.B       I u     ..M       S s     2.j       D y     w.h       I w     i.h       _ 8     4 m ",
"V 6 ,   h.v       / 8     y.m       ' 0     &.B       E r     ..V       F u     @.b       S s     ,.j       D y     w.z       W w     i.h       / 0     4 m ",
"V 6 <   h.b       / 9     w.M       ' 0     &.B       / r     O.M       F u     @.b       S s     2.j       J y     y.h       W w     i.h       / 8     4 m ",
"V 6 <   h.v       ` 8     a.m       ' 9     &.V       / r     ..B       I u     >.b       S s     ,.l       S y     y.h       I w     i.d       / 8     4 m ",
"V 6 <   h.b       ) 8     a.m       ` 0     -.B       / r     O.V       F u     ..b       S s     ,.k       P y     i.h       W w     i.h       / 8     4 m ",
"A 6 <   h.v       ` 8     a.M       ` 0     -.B       E r     O.B       P u     >.b       S s     2.k       J t     y.l       Y w     i.h       ( 9     4 m ",
"V 6 ,   h.v       ) 8     y.m       ` 0     -.B       E q     | B       I u     &.b       S s     2.j       J y     i.h       W 0     t.h       _ 8     4 m ",
"V 6 <   d.v       / 8     w.M       ` 0     -.B       E r     ..V       F y     &.v       S s     ,.k       S y     i.h       I 0     w.h       / 8     5 m ",
"V 6 2   j.c       / 8     y.M       ` 0     -.B       E t     O.M       I u     &.b       S p     ,.z       D t     w.z       I 0     i.h       / 8     4 m ",
"V 6 2   j.c       / 8     w.m       ` 0     -.B       E r     O.V       I t     &.b       S i     2.k       D y     w.h       P w     i.h       / 8     4 m ",
"A 6 ,   d.v       / 9     y.m       ` 0     -.B       E r     O.B       F u     &.n       S s     2.z       D t     y.l       Y r     i.h       / 9     4 m ",
"V 6 ,   h.v       _ 8     w.M       ' 0     $.M       / r     O.V       I y     +.n       D s     ,.j       D t     t.h       I w     i.h       / 9     4 m ",
"V 6 1   h.v       _ 8     w.M       ' 9     $.B       / r     O.M       I y     *.n       D s     ,.k       J t     y.l       R q     y.d       / 9     4 m ",
"V 6 ,   h.b       _ 8     w.m       ' 0     &.B       E r     O.V       I u     *.n       S s     >.z       D t     d.h       W 0     t.f       / 0     4 m ",
"V 6 <   h.v       ) 8     w.M       ` 0     ,.B       / r     O.M       P u     *.b       S s     ,.j       D y     i.h       W w     i.h       ( 9     4 m ",
"A 6 <   h.v       ) 8     w.m       ` 0     &.B       / r     O.V       I t     *.b       S s     2.z       D y     i.l       R w     a.h       ( 0     4 m ",
"V 6 <   h.b       ( 9     w.m       ` 0     1.M       / r     O.B       I t     &.b       D s     ,.z       D y     i.l       R w     d.h       / 9     4 x ",
"V 6 ,   t.v       ( 9     w.M       ` 9     $.B       / r     ..V       I y     &.b       S s     ,.z       D t     w.l       W w     t.h       / 0     4 m ",
"V 6 4   h.b       ) 9     j.M       ] 0     1.V       ) r     &.V       I y     =.m       S s     7.j       F u     h.z       W q     j.h       / 0     6 m ",
"A 5 ;   +.x r   z / 9     ` b 7   b _ 0     W m 6   V I r     Y m 7   S S u     ! n 0   F S i     } k e   I A y     ..h s   S S r     &.h s   A W 0   ; 3 m ",
"V 6 < : P d 7 > s I 3 7 > S h 6 , s P 5 6 4 A z 3 > h S 8 2 5 A j 3 * z A e < 4 S h 6 @ z V e 2 2 F d 0 O x V q 5 : W u w $ z Z 8 6 ; ! u 0 * j S 3 0 , 4 x ",
"S c m m A c c m V C z m m A b x m V V z m m A c c m V V c m M V x x m V V c m m C b b m V V x m m A x b m V B z m b S c m c V V z m m A c x m V V z N m b V "
};
