/* XPM */
static char *_030d1886da64beec930c94497c54b56DuGRfV3EWIP3obma[] = {
/* columns rows colors chars-per-pixel */
"72 65 210 2 ",
"   c None",
".  c #3D3D3D",
"X  c #413F3F",
"o  c #413920",
"O  c #51431D",
"+  c #434139",
"@  c #51482C",
"#  c #675C3B",
"$  c #374F68",
"%  c #464644",
"&  c #494947",
"*  c #4C4D4A",
"=  c #494645",
"-  c #4F504C",
";  c #53524F",
":  c #5F5845",
">  c #5B5A55",
",  c #5A5956",
"<  c #534E4F",
"1  c #625B46",
"2  c #645C49",
"3  c #605745",
"4  c #615E5A",
"5  c #66604D",
"6  c #6C644D",
"7  c #6D6648",
"8  c #726A4D",
"9  c #796E4E",
"0  c #726748",
"q  c #7E704F",
"w  c #6D6552",
"e  c #63625B",
"r  c #68675F",
"t  c #6F6853",
"y  c #736C54",
"u  c #746D59",
"i  c #786D53",
"p  c #7C7256",
"a  c #7B745C",
"s  c #7E785F",
"d  c #4B6279",
"f  c #6D6B64",
"g  c #6C6C69",
"h  c #656662",
"j  c #726E65",
"k  c #706D68",
"l  c #75736B",
"z  c #7B796E",
"x  c #777467",
"c  c #757471",
"v  c #7C7B73",
"b  c #7C7C77",
"n  c #616D75",
"m  c #81775A",
"M  c #847A5C",
"N  c #877B5B",
"B  c #897E60",
"V  c #857D64",
"C  c #817F75",
"Z  c #78897D",
"A  c #78917D",
"S  c #6E8F7B",
"D  c #8A8164",
"F  c #848275",
"G  c #86857B",
"H  c #8B8A7D",
"J  c #888578",
"K  c #948F7A",
"L  c #9A9277",
"P  c #A3987A",
"I  c #486886",
"U  c #56789A",
"Y  c #5B6E80",
"T  c #63798D",
"R  c #537BA3",
"E  c #537DA8",
"W  c #778483",
"Q  c #779E84",
"!  c #7AA288",
"~  c #7A94A6",
"^  c #6E97BC",
"/  c #7698B9",
"(  c #3E8ACF",
")  c #5993CC",
"_  c #4E95D7",
"`  c #5494D3",
"'  c #5698D9",
"]  c #5895D2",
"[  c #488CCD",
"{  c #6A99C7",
"}  c #639BD4",
"|  c #6C9ED2",
" . c #639DDB",
".. c #799DC4",
"X. c #7AA3CD",
"o. c #68A1DB",
"O. c #78A6D5",
"+. c #8E8D83",
"@. c #878880",
"#. c #918E83",
"$. c #889386",
"%. c #939285",
"&. c #9C9985",
"*. c #979689",
"=. c #98978A",
"-. c #9C9B8D",
";. c #969886",
":. c #9D9D91",
">. c #909A9E",
",. c #A09F8F",
"<. c #A59E83",
"1. c #A09F92",
"2. c #86A68B",
"3. c #8BAD90",
"4. c #97AC92",
"5. c #A3A18D",
"6. c #AFA88B",
"7. c #A8A287",
"8. c #A4A394",
"9. c #A9A794",
"0. c #ADAB95",
"q. c #A9A79A",
"w. c #ACAB9B",
"e. c #A6A798",
"r. c #B1AF9D",
"t. c #B3AC91",
"y. c #A7BB9D",
"u. c #B3B19E",
"i. c #BCBA9E",
"p. c #B7AF8E",
"a. c #8697A4",
"s. c #879FB8",
"d. c #96A4AC",
"f. c #8BA7B8",
"g. c #9AB7AA",
"h. c #AFAEA1",
"j. c #A7BDA2",
"k. c #ABB7A5",
"l. c #B5B3A2",
"z. c #B8B7A4",
"x. c #BCBAA5",
"c. c #BEBDA9",
"v. c #B2B7AB",
"b. c #A4B5BB",
"n. c #C1B99B",
"m. c #C1BEA4",
"M. c #C1BFAA",
"N. c #AFC2A5",
"B. c #B5C4AA",
"V. c #B7C6AA",
"C. c #BFC8BE",
"Z. c #C3C2A6",
"A. c #C4C2AC",
"S. c #C9C6AC",
"D. c #CCCAAD",
"F. c #C6C6A9",
"G. c #D5CDAA",
"H. c #D9D1AE",
"J. c #C6C5B2",
"K. c #C9C7B1",
"L. c #C4CCB2",
"P. c #CDCBB4",
"I. c #CCCDB9",
"U. c #D0CFB6",
"Y. c #D0CEB9",
"T. c #CBD3B5",
"R. c #CBD5BA",
"E. c #D3D2B5",
"W. c #DAD5B2",
"Q. c #D4D3BA",
"!. c #DAD6BB",
"~. c #D4D9BD",
"^. c #DCDABD",
"/. c #E2DBB6",
"(. c #E4DEB9",
"). c #E6E0BC",
"_. c #E9E2BD",
"`. c #E8E0B7",
"'. c #86A8CA",
"]. c #8EB1CF",
"[. c #9EB7CB",
"{. c #82ABD6",
"}. c #A9BCC7",
"|. c #AEC1C9",
" X c #B8CAD3",
".X c #B0C0C8",
"XX c #CFD5C5",
"oX c #DCDCC2",
"OX c #D8D9C0",
"+X c #C2CBC7",
"@X c #E0DEC3",
"#X c #DFE1CA",
"$X c #E4E2C6",
"%X c #EAE5C3",
"&X c #EEE9C5",
"*X c #E5E5CA",
"=X c #E8E7CA",
"-X c #EDEBCD",
";X c #F2EDC6",
":X c #F1EECE",
">X c #F1EDCE",
",X c #F8EFC8",
"<X c #F5F1CC",
"1X c #FAF3CA",
"2X c #EEEDD1",
"3X c #F2EFD1",
"4X c #F4F1D2",
"5X c #F9F5D6",
"6X c #FDFBDA",
"7X c #FCFAD7",
/* pixels */
"                                                                                                                                                ",
"                                                                                                                                                ",
"                                                                                                                                                ",
"                                                                                                                                                ",
"                                                                                                                                                ",
"                                                                                                                                                ",
"                                                                                                                                                ",
"                                                                                                                                                ",
"                                                                                  <X                                                            ",
"                                                                              4X4X6X&XW.                                                        ",
"                                                                        2X2X5XY.%.P.<X<X&X)./.H.                                                ",
"                                                                    4X4X6XP.8.+.l w.=X=X&X;X1X,X1X/.                                            ",
"                                                              4X4X5X@XM.q.=.q.=.G g A.-X%X&X&X%X_./.                                            ",
"                                                    '.] .X5X6X-XV.:.1.h.:.:.8.z.E.l.;.$X&X%X&X_.).;XW.                                          ",
"                                      -X<X3X-X:X-X<X.X_ {.+Xr.:.h.=.#.1.h.Y.$X-X-X-Xx.Z.-X=X&X&X_.)./.                                          ",
"                                =X>X7X3XoXP.x.e.e.q.1.^ ' s.K -.q.-.z.oX2XOXoX-X#X=X#Xu.(.&X&X&X&X).,X(.                                        ",
"                            ^.4X-XD.8.#.v b c 4 H e.9.a.} | v.A.!.-X-X!.J.J.x.$X=X*X-Xc.x.&X&X_.%X&X`._.                                        ",
"                        D.^.!.0.H b g c @.*.8.1.z.w.c.e.{ `  X:XoXP.J.c.w.A.E.-X-X=X=XoX8.!.>X%X_.=X_.&X^.                                      ",
"                      F.^.0.j g v c 8.z.P.oX2XY.M.z.J.Z.d.} | v.x.c.x.A.U.=X4X-X-X-X*X-Xc.l.-X%X%X%X_.`.,X                                      ",
"                    i.F.F j h v -.M.^.-X*X$XY.Q.8.A.z.K.u...o.f.S.V.w.z.K.E.-X-X-X-X&X*X$X1.!.>X%X_.%X)._.W.                                    ",
"                  0.i.x > f C x.!.=XE.J.A.M.l.M.c.z.P.J.S.a.} | J.K.K.U.oX=X-X:X-X-X-X&X-XJ.q.-X%X_.).%X(.,XW.                                  ",
"                  9.r - j %.D.E.m.1.z.z.u.A.M.z.A.M.M.K.E.Y.'.' }.>X3X3X4X3X-X:X-X-X-X2X=X=Xe.P.<X%X_.=X)./.).                                  ",
"                  #.> e x &.x.F.x.%.A.U.A.A.M.M.U.oX#X2XoXQ.g.' O.XX=X:X:X2X:X-X:X-X3X-X-X2XY.8.-X-X_.).%X(.;X).                                ",
"                    %.F H H G 5.x.E.$XoXK.Q.*X3X2XoX=XoX4.Q A {  .}.m.$X4X2X3X2X:X-X:X:X3X-X-Xh.A.4X&X_.).).`.&X                                ",
"                    +.F G H K %.,.F.$X$X-X2X2X:X2XV.J.L.S j.;.~  .'.k.V.-X-X:X2X:X>X-X-X:X2X3XOX1.@X3X%X(.%X`.,X(.                              ",
"                    #.G z G G H *.#.A.=X*X-X2X2X4X=Xx.N.Z k.N.Z { o.f.0.oX4X2X-X-X-X>X>X3X:X3X3XM.M.5X&X_.(._.`.;X                              ",
"                      G > x H G #.*.*.D.=X=X-X-X-X4XQ.l.2.Z y.4.~ o.].c.K.2X2X2X>X>X>X:X3X3X3X-X@X1.@X<X&X(._.(._./.                            ",
"                      1.z % z H #.=.%.9.^.=X=X-X-X2X-Xx.V.Q S 2.W ) O. XZ.*X4X-X3X>X>X:X:X3X5X3X4XM.l.3X;X_.(.(.(.;X(.                          ",
"                        #.> & G #.%.:.-.A.$X$X-X-X-X4XQ.J.OX$.Q A / ' [.oX4X-X-X~.-X:X-X<X4X=X^.2X=Xq.!.4X%X(.(.`.(.&X                          ",
"                        *.j . f #.%.-.5.e.^.=X=X=X-X2X-Xz.oX*XOX^.C.} | XX$XXXoXL.~.5X4X&XL.L.3.l.2XY.8.-X>X%X(.).`.&X^.                        ",
"                          r * X z 8.5.8.,.K.$X$X=X-X2X2X$XoX*X*X~.D.^ ` |.T.~.~.:X*XR.~.V.! V.N.4.3XoXc K.5X&X).(.(.).<X                        ",
"                            r ; = j *.8.-.u.$X$X=X-X#XT.#XR.L.T.L.~.b.` O.*X-X2X~.B.V.! j.B.B.XXoXI.:.+.8.-X:X%X(.(.`.%XW.                      ",
"                            z l * . > *.8.e.^.*X2X@XB.B.oX*XOX*X-X-XoX{.[ }.y.j.j.3.T.j.R.2X~.x.8.1.V.1.c M.>X@X(./.(.(.;X(.                    ",
"                              z , & * z ,.=.P.*X*X2X#X*X2X2X2X3XOXV.@Xb.( {.V.2.N.B.T.~.I.e.1.9.J.w.@.=.#.w.-X-X(.(././.(.@X                    ",
"                              j e = & r =.%.F.$X#X2X2X*X*X2XY.P.M.Y.U.v.X. ..XV.XXOXJ.q.8.h.e.q.@.=.w.Q.@X5X,X(.H.G.G.H.(.(.H.                  ",
"                              f > - % > *.*.x.#XoX2X=Xl.h.XXQ.!.@X=XOX@X[.` '.P.z.q.h.z.,.%.+.e.M.=X5X7X>X/.n.P P 7.p.6.p.n.t.                  ",
"                                f ; = ; G %.m.oX@X2X@XXXQ.E.@XOXK.c.h.0.>.| } d.z.z.q.#.+.l.!.4X6X5X/.n.P N m m N N D B m                       ",
"                                g ; & - j H Z.^.OXoX3X5X@XJ.h.:.e.r.l.l.9./ | '.8.C 1.P.*X5X5X%XM.<.N m 9 m N m M N i                           ",
"                                  f + X z H m.A.Y.OXI.1.q.q.1.M.w.q.,.#.j T | | v.oX>X5X3X!.t.B 9 0 m m m m i m u                               ",
"                                  g % X z +.S.U.m.1.=.M.A.u.G v +.+.9.u.S.P.X.]  X7X%XS.L 9 0 9 m m m 8 6 8 w i                                 ",
"                                    , r C *.i.H H 9.=.8.b G r.K.@X&X4X4X4X<X}.[ / t.V 7 0 p u i u w 5 6 8 8 i                                   ",
"                                    > f x z j &.,.%.l +.x.*X3X5X3X=X!.D.x.6.W E T 1 8 a s u w 6 6 7 0 8 i                                       ",
"                                      > . e ;.J e x i.$X3X:X(.m.<.D p w w O $ E T i y w 2 1 6 8 0 8                                             ",
"                                      e e &.z < &.E.$X^.S.<.x 7 6 u u u w @ d R Y # 2 6 y 6 8 y                                                 ",
"                                      e ;.K F u.E.E.i.K 6 : t u u 6 2 1 1 o I R n 0 u 8 8                                                       ",
"                                        z F r.D.i.K 0 : t a 8 1 1 2 2 2 1 + I U h 7                                                             ",
"                                        e 5.i.7.a w w u y 6 5 w 2 2 1 6 7 ; d                                                                   ",
"                                          0.&.6 w r u w 6 5 2 : 2 6 w 6                                                                         ",
"                                          &.V w t w 2 2 : 2 2 6 6 6                                                                             ",
"                                            u V u u y t y w 6 w                                                                                 ",
"                                              u u t t t w                                                                                       ",
"                                                                                                                                                ",
"                                                                                                                                                ",
"                                                                                                                                                ",
"                                                                                                                                                ",
"                                                                                                                                                ",
"                                                                                                                                                ",
"                                                                                                                                                ",
"                                                                                                                                                ",
"                                                                                                                                                ",
"                                                                                                                                                ",
"                                                                                                                                                ",
"                                                                                                                                                ",
"                                                                                                                                                ",
"                                                                                                                                                "
};
