/* XPM */
static char *result[] = {
/* columns rows colors chars-per-pixel */
"42 117 213 2 ",
"   c #010000",
".  c #0B0201",
"X  c #0F0805",
"o  c #0F0D0B",
"O  c #120503",
"+  c #140905",
"@  c #140D0B",
"#  c #190E0B",
"$  c #1A0C03",
"%  c #16110E",
"&  c #1A110E",
"*  c #161211",
"=  c #1B1615",
"-  c #1E1916",
";  c #1C1718",
":  c #1E1919",
">  c #11101A",
",  c #00071D",
"<  c #390500",
"1  c #201614",
"2  c #211A17",
"3  c #221C1B",
"4  c #291F1D",
"5  c #26211E",
"6  c #2A211F",
"7  c #1F1D21",
"8  c #261F20",
"9  c #281D24",
"0  c #262121",
"q  c #2A2422",
"w  c #2D2827",
"e  c #2B2728",
"r  c #2E2929",
"t  c #232428",
"y  c #312826",
"u  c #322C2B",
"i  c #302624",
"p  c #35302F",
"a  c #2D3236",
"s  c #363133",
"d  c #3B3534",
"f  c #3E3836",
"g  c #3D3A3B",
"h  c #3B3739",
"j  c #282C30",
"k  c #492304",
"l  c #462B1A",
"z  c #51311A",
"x  c #4F3227",
"c  c #593A2B",
"v  c #433936",
"b  c #433C3C",
"n  c #403634",
"m  c #563D35",
"M  c #603D2B",
"N  c #48413F",
"B  c #67442A",
"V  c #644A39",
"C  c #714B33",
"Z  c #795132",
"A  c #433E41",
"S  c #364349",
"D  c #454243",
"F  c #4B4443",
"G  c #4E4847",
"H  c #4D4A4A",
"J  c #474649",
"K  c #534D4D",
"L  c #564B44",
"P  c #55514F",
"I  c #4E4550",
"U  c #534F51",
"Y  c #555252",
"T  c #5A5555",
"R  c #5D5856",
"E  c #5D595A",
"W  c #5D575A",
"Q  c #655447",
"!  c #635C5C",
"~  c #605756",
"^  c #7D5A4D",
"/  c #66605E",
"(  c #7A6456",
")  c #5F5C60",
"_  c #655E62",
"`  c #666162",
"'  c #6B6463",
"]  c #6E6867",
"[  c #6D6A6B",
"{  c #69666A",
"}  c #716867",
"|  c #726C6C",
" . c #796F6A",
".. c #6F6B71",
"X. c #746F71",
"o. c #767374",
"O. c #7A7476",
"+. c #7C777A",
"@. c #7D7979",
"#. c #797577",
"$. c #77706E",
"%. c #86593A",
"&. c #98673F",
"*. c #AE693D",
"=. c #866348",
"-. c #996546",
";. c #876A57",
":. c #986E4F",
">. c #AC704E",
",. c #BA724D",
"<. c #A76E55",
"1. c #A7765F",
"2. c #B6755B",
"3. c #B97B59",
"4. c #B47757",
"5. c #A7684A",
"6. c #8D7464",
"7. c #9C7C63",
"8. c #967C6B",
"9. c #827C7D",
"0. c #9F7D71",
"q. c #AF7D64",
"w. c #C57A5B",
"e. c #87807F",
"r. c #968375",
"t. c #BC856C",
"y. c #BB8566",
"u. c #B88871",
"i. c #AA8B75",
"p. c #CB855C",
"a. c #C48263",
"s. c #CC8664",
"d. c #C2856B",
"f. c #CB8B6B",
"g. c #C68969",
"h. c #D38965",
"j. c #D38D6B",
"k. c #DB8A65",
"l. c #CE956D",
"z. c #D4936E",
"x. c #DC946D",
"c. c #C48E72",
"v. c #D08A70",
"b. c #CA9677",
"n. c #D59373",
"m. c #DD9A75",
"M. c #D59979",
"N. c #DA9976",
"B. c #E19070",
"V. c #DCA07D",
"C. c #EAA676",
"Z. c #7E7C81",
"A. c #817E83",
"S. c #848182",
"D. c #888587",
"F. c #918B8C",
"G. c #9A8B84",
"H. c #8F8D90",
"J. c #949294",
"K. c #99969A",
"L. c #B99882",
"P. c #A29B9C",
"I. c #A99C99",
"U. c #AD968A",
"Y. c #B6A298",
"T. c #A49FA1",
"R. c #ACA5A8",
"E. c #B6AAA6",
"W. c #BAB4B4",
"Q. c #BFBBBC",
"!. c #CA9A87",
"~. c #DC9D83",
"^. c #D19C83",
"/. c #CEA38F",
"(. c #DAA98D",
"). c #D7AA95",
"_. c #DBB29D",
"`. c #CAA895",
"'. c #E9B494",
"]. c #F6BD97",
"[. c #E5AE88",
"{. c #D5B5AA",
"}. c #DDBEB5",
"|. c #E3BAA1",
" X c #F2C39B",
".X c #DDC4BA",
"XX c #F6C9A5",
"oX c #E9C6B6",
"OX c #F6CBB9",
"+X c #F4D1BE",
"@X c #E8C4AE",
"#X c #C5BFC1",
"$X c #CDC6C9",
"%X c #D4CFD1",
"&X c #D9D4D6",
"*X c #D5CDCC",
"=X c #E6D2CC",
"-X c #F4D5CA",
";X c #E5DCDA",
":X c #EED5CC",
">X c #ECE0DD",
",X c #F0E0DB",
"<X c #E3DFE0",
"1X c #EBE6E9",
"2X c #EFEBEC",
"3X c #EAE4E5",
"4X c #F3EDED",
"5X c #F9EAE1",
"6X c #F5F2F3",
"7X c #F9F7F7",
"8X c #FBFAFB",
"9X c #F9F7F8",
"0X c None",
/* pixels */
"0X0X0X0X0X0X0X0X0X0X0X0X0X0X0X0X0X0X0X0X0X0X0X0X0X0X0X0X0X0X0X0X0X0X0X0X0X0X0X0X0X0X",
"0X0X0X0X0X0X0X0X0X0X0X0X0X0X0X0X0X0X0X0X0X0X0X0X0X0X0X0X0X0X0X0X0X0X0X0X0X0X0X0X0X0X",
"0X0X0X0X0X0X0X0X0X0X0X0X0X0X0X0X0XU.8.( ( =.r.0X0X0X0X0X0X0X0X0X0X0X0X0X0X0X0X0X0X0X",
"0X0X0X0X0X0X0X0X0X0X0X0X0X0X0X0X6.c z l l x Z 1.( G.0X0X0X0X0X0X0X0X0X0X0X0X0X0X0X0X",
"0X0X0X0X0X0X0X0X0X0X0X0X0X0X0X8.k c -.%.c B &.u.i.C r.0X0X0X0X0X0X0X0X0X0X0X0X0X0X0X",
"0X0X0X0X0X0X0X0X0X0X0X0X0X0XY.B C 4.p.4.-.>.a.c.b.:.^ 0X0X0X0X0X0X0X0X0X0X0X0X0X0X0X",
"0X0X0X0X0X0X0X0X0X0X0X0X0X0X7.k 4.f.s.j.z.h.f.g.d.y.B i.0X0X0X0X0X0X0X0X0X0X0X0X0X0X",
"0X0X0X0X0X0X0X0X0X0X0X0X0X0X7.B l.x.z.z.z.h.s.w.d.c.C i.0X0X0X0X0X0X0X0X0X0X0X0X0X0X",
"0X0X0X0X0X0X0X0X0X0X0X0X0X0X;.%.M.m.z.N.j.k.h.p.a.).=.U.0X0X0X0X0X0X0X0X0X0X0X0X0X0X",
"0X0X0X0X0X0X0X0X0X0X0X0X0X0Xr.>.m.(.x.n.f.s.f.f.f.{.1.0X0X0X0X0X0X0X0X0X0X0X0X0X0X0X",
"0X0X0X0X0X0X0X0X0X0X0X0X0X0Xr.u.+XV.z.N.x.j.B.p.*._.L.0X0X0X0X0X0X0X0X0X0X0X0X0X0X0X",
"0X0X0X0X0X0X0X0X0X0X0X0X0X0X/.`.,Xg.1.!.g.z.a.0.;.Y./.0X0X0X0X0X0X0X0X0X0X0X0X0X0X0X",
"0X0X0X0X0X0X0X0X0X0X0X0X0X0XB.(..Xx ` ..< <.  H.F.I !.0X0X0X0X0X0X0X0X0X0X0X0X0X0X0X",
"0X0X0X0X0X0X0X0X0X0X0X0X0X0X~.M.oX^   J m s.V . < Y.oX0X0X0X0X0X0X0X0X0X0X0X0X0X0X0X",
"0X0X0X0X0X0X0X0X0X0X0X0X0X0X0XOX-Xk.3.1.2.v.<.<.,.-X,X0X0X0X0X0X0X0X0X0X0X0X0X0X0X0X",
"0X0X0X0X0X0X0X0X0X0X0X0X0X0X0XOX-XB.k.B.j.h.s.w.w.oX0X0X0X0X0X0X0X0X0X0X0X0X0X0X0X0X",
"0X0X0X0X0X0X0X0X0X0X0X0X0X0X0X0X0X'.h.m.n.n.d.q.~.=X0X0X0X0X0X0X0X0X0X0X0X0X0X0X0X0X",
"0X0X0X0X0X0X0X0X0X0X0X0X0X0X0X0X0X:XN.b.v.v.w.2.{.0X0X0X0X0X0X0X0X0X0X0X0X0X0X0X0X0X",
"0X0X0X0X0X0X0X0X0X0X0X0X0X0X0X0X0X-X_.g.w.w.w.2..X:X0X0X0X0X0X0X0X0X0X0X0X0X0X0X0X0X",
"0X0X0X0X0X0X0X0X0X0X0X0X0X0X0X0X0X(.b.b.v.v.d.u.u.{.0X0X0X0X0X0X0X0X0X0X0X0X0X0X0X0X",
"0X0X0X0X0X0X0X0X0X0X0X0X0X0X0X! K.,Xp.d.c.t.u.5.1.*X| 0X0X0X0X0X0X0X0X0X0X0X0X0X0X0X",
"0X0X0X0X0X0X0X0X0X0X0X0X] K F   #.8X>X!.w.2.>.!.3X%X  A / $.0X0X0X0X0X0X0X0X0X0X0X0X",
"0X0X0X0X0X0X0X0X0X0X` F q # 0   ` 4X8X6X}.!.=X9X9XR.  0 @ y H | 0X0X0X0X0X0X0X0X0X0X",
"0X0X0X0X0X0X0X9.T d * @ 3 0 r   ` 1X6X8X&X<X8X6X1X]   w 5 3 % & F ' 0X0X0X0X0X0X0X0X",
"0X0X0X0X0X0X` u ; : 8 4 3 : r   +.1X6X8X@.W.8X6X$X9 : 3 : : 7 7 * 2 b | 0X0X0X0X0X0X",
"0X0X0X0X0X0Xy = q 3 3 : 3 3 r   K.4X6X4X3 T.9X6XR.  r : : = : 7 4 0 = = T +.0X0X0X0X",
"0X0X0X0X0X9.u 3 3 8 : : : 3 w   K.4X6X>X  J.9X2XD.  e ; : : : : : 3 8 e . E 0X0X0X0X",
"0X0X0X0X0X+.9 8 3 : : : : ; w   H.6X7X$X  Z.2X2X]   5 ; : = ; : : : : 8 * _ 0X0X0X0X",
"0X0X0X0X0X@.3 3 : : 7 ; ; ; w   J.8X6XH.  ` 1X&Xp * : = = * = ; : : : 8 O W 0X0X0X0X",
"0X0X0X0X0Xo.@ 8 : 7 : : ; = w   S.7X>Xb $ A 1X.X  0 = = * ; ; ; : : : 3 @ K 0X0X0X0X",
"0X0X0X0X0X` . 4 : 3 : : ; ; q   O.8X{.  7 t 3XP.  w = ; : ; ; ; ; ; : 3 * A 0X0X0X0X",
"0X0X0X0X0XT . 3 3 3 : : ; ; q   ] 6XT.L L v &XO.  0 ; ; = = = ; ; ; : : 3 s Z.0X0X0X",
"0X0X0X0X0XH X 3 : 7 5 : : : t   ` 1X$.V Q P W.Y o 7 : = * - - > ; ; = : 7 t | 0X0X0X",
"0X0X0X0X0XF X : 3 5 : : : : 5   E &XY     g @.o = = : * = - - - ; ; : ; 5 = [ 0X0X0X",
"0X0X0X0XA.g @ : 3 3 3 : - = : X S R.N 5 w w j o = = - - = = - - > = : : 5 * E 0X0X0X",
"0X0X0X0XD.u = ; 3 7 : 3 : = : = 5 K 6 5 5 - * 7 - = > = = : > - : = = : 3 * T 0X0X0X",
"0X0X0X0X@.0 : ; 3 3 : 5 3 = = = =   5 5 7 - - = > - * - = = * = = = ; ; 3 X ) 0X0X0X",
"0X0X0X0XO.. 3 = : 3 : 7 : = = ; - = 3 t 7 = = = - * - * = = = - = % ; ; 7 o { 0X0X0X",
"0X0X0X0X/   5 = 3 3 : 7 7 : = = = = - 5 - = * - - > - * > : = - * * ; ; : # ..0X0X0X",
"0X0X0X0XH o : % 3 5 2 7 : = : = = = = 5 = * - - * = * - = = * - * * ; : ; t o.0X0X0X",
"0X0X0X0XA * 3 * : 5 : : : : = : = = = : ; = * = = = = > - = = - o = : : @ s Z.0X0X0X",
"0X0X0X0Xg % 3 * = 5 : : : ; = = = = = * ; * > = * = = = - = - = o = : : O h K.0X0X0X",
"0X0X0X0Xh * ; * = 5 3 3 : ; ; = = = = ; * = = = = = = = = = - = o = ; : @ h 0X0X0X0X",
"0X0X0X0Xh @ 3 * % 5 3 3 : ; ; - ; = = ; = = = = * = = = = = : > o = : : * u 0X0X0X0X",
"0X0X0XA.u ; 1 * o 5 7 3 = = - - - * * = = = = : = = = = = - = X   ; : : = r 0X0X0X0X",
"0X0X0X] 3 3 1 * o 3 5 3 7 - - - - = - - = = = = = = = = = 7   g T   : : # s 0X0X0X0X",
"0X0X0XU 3 3 : * o 5 5 3 - - - - - * = = - - - = = = = = = :   H [   3 : X A 0X0X0X0X",
"0X0X0XF 4 1 : * o 3 5 5 - 3 - - - - - - * - - - = = - - = :   S `   : 3 . D 0X0X0X0X",
"0X0X0X! % 5 = % % 3 5 3 - - - - - - - - - - - - % - % - - -   Y '   : 3 . D 0X0X0X0X",
"0X0X0X! . 5 = % % 5 5 3 5 = - - - - 5 5 % - - - - - - - - -   / Y   3 : X b 0X0X0X0X",
"0X0X0Xv - 5 - *   5 5 5 3 2 - - 2 - 5 5 - - - % - - - - - -   H b . ; 3 * u 0X0X0X0X",
"0X0X0Xp 5 : -   P d - 5 2 2 - 2 - 2 - - - - - - % - - % - 3   Y H   : : ; e 0X0X0X0X",
"0X0X0Xd 3 3 - X ! p - 3 2 - - - - - 2 2 - - - - - - - % - -   ! E   : : ; u 0X0X0X0X",
"0X0X0Xv 2 3 & %   5 5 5 3 - - - - 2 2 2 - - - - - - - - - -   R E   : - % b 0X0X0X0X",
"0X0X0XF 2 5 & % 5 5 5 - 3 - 3 - - - - - - - - - - - - - - - o H E . 3 - O U 0X0X0X0X",
"0X0X0XF 3 2 - - 6 5 - 5 - - - - - - - - - - - - % - - - - % o p O.- - ; = J 0X0X0X0X",
"0X0X0XE * - = - 6 6 - - 2 2 2 2 - - - - - - - - - - - - - - % g 0X6 = :   [ 0X0X0X0X",
"0X0X0XE % 5 - 5 6 6 5 5 2 2 - - - 2 y - - - - - - - - - - - . Y 0X& ; 5 O R 0X0X0X0X",
"0X0X0XL o w - - w 6 5 - 2 2 2 - - & 2 - - - - - = = - 2 - - % Y ] - - - 5 D 0X0X0X0X",
"0X0X0X@.S   * S u 5 5 5 2 - - 3 - - - - - - - - - - - - - - : / ` : 3 - 3 O.0X0X0X0X",
"0X0X0X4X<X.XT.R.f 5 5 2 3 - - 2 - & - - - - - - = - - - 2 - 3 0XG 3 5 2 = [ 0X0X0X0X",
"0X0X0XXX X Xi.Q.f 5 5 5 3 - - - - - - & - - - - - - - - : & 6 0X6   $ 2 y 0X0X0X0X0X",
"0X0X0X Xl.p.l.W.p q 5 5 2 2 - - - & - - - - - - - - - 2 2 % p 0XP.S.S , D 0X0X0X0X0X",
"0X0X0XOXV.y.(.Y.p 6 5 5 5 2 2 - - & - - - - - - - - - - 3 # b 0X|.+X.X{.E.0X0X0X0X0X",
"0X0X0X0X@X).0X0Xb 6 6 5 3 2 - - - = = = - - - - - - - 2 5 & f 0X[.C.C. XOX0X0X0X0X0X",
"0X0X0X0X0X0X0X0XN 3 6 5 2 2 2 : 5 - - - - - - - - - - 2 5 1 j 0X[.l.V.].@X0X0X0X0X0X",
"0X0X0X0X0X0X0X0XL 2 6 3 2 2 2 - 2 - = - = 1 = - - - - - 5 2 a 0X'.l.x.].0X0X0X0X0X0X",
"0X0X0X0X0X0X0X0X~ 3 6 4 2 3 2 2 2 & = - = = 2 - - - - 2 5 = R 0X0X'.'.0X0X0X0X0X0X0X",
"0X0X0X0X0X0X0X0X} 6 6 5 2 2 - 2 2 - % % - - 2 - - - - 3 - 6 ' 0X0X0X0X0X0X0X0X0X0X0X",
"0X0X0X0X0X0X0X0X/ y 6 5 3 3 2 2 5   P P   5 = - - - - - $ N 0X0X0X0X0X0X0X0X0X0X0X0X",
"0X0X0X0X0X0X0X0X .i 3 3 - 3 2 2 3 . / ' % 3 2 2 - - - 2 = F 0X0X0X0X0X0X0X0X0X0X0X0X",
"0X0X0X0X0X0X0X0X} u 3 2 2 - - - % y 0X0Xy = 2 = - - - 5 % / 0X0X0X0X0X0X0X0X0X0X0X0X",
"0X0X0X0X0X0X0X0X0Xd 2 2 2 - = 2 . b 0X0Xv O 2 - - - 1 3 6 E 0X0X0X0X0X0X0X0X0X0X0X0X",
"0X0X0X0X0X0X0X0X0Xv 2 3 - - = 2 O F 0X0Xb O 3 1 - - 2 2 y 0X0X0X0X0X0X0X0X0X0X0X0X0X",
"0X0X0X0X0X0X0X0X0XF $ 3 - = - - O K 0X0XF O 3 2 - - 2 $ b 0X0X0X0X0X0X0X0X0X0X0X0X0X",
"0X0X0X0X0X0X0X0X0XF $ 3 - - - & 1 P 0X0XF + 3 1 - - 3 + b 0X0X0X0X0X0X0X0X0X0X0X0X0X",
"0X0X0X0X0X0X0X0X0Xv 1 3 1 ; - % q 0X0X0XL @ 3 ; ; - 3 O F 0X0X0X0X0X0X0X0X0X0X0X0X0X",
"0X0X0X0X0X0X0X0X0Xn & 3 - = - % q 0X0X0X! & 2 2 2 1 3 O F 0X0X0X0X0X0X0X0X0X0X0X0X0X",
"0X0X0X0X0X0X0X0X0Xd 1 2 2 = = . f 0X0X0X} & 2 2 = - 4 . K 0X0X0X0X0X0X0X0X0X0X0X0X0X",
"0X0X0X0X0X0X0X0X0Xd 1 2 2 1 - . F 0X0X0X! 1 2 - 2 = 3 $ G 0X0X0X0X0X0X0X0X0X0X0X0X0X",
"0X0X0X0X0X0X0X0X! y 3 - 2 = - % Y 0X0X0XK 4 2 - = - 2 3 d 0X0X0X0X0X0X0X0X0X0X0X0X0X",
"0X0X0X0X0X0X0X0X! 4 6 - - - ; - ` 0X0X0X~ 4 2 - - - 3 3 y 0X0X0X0X0X0X0X0X0X0X0X0X0X",
"0X0X0X0X0X0X0X0XQ 9 6 1 2 = * 5 0X0X0X0X$.2 2 2 - = 3 3 u 0X0X0X0X0X0X0X0X0X0X0X0X0X",
"0X0X0X0X0X0X0X0XF 4 6 - - - # r 0X0X0X0X} 3 2 ; - - 4 3 y 0X0X0X0X0X0X0X0X0X0X0X0X0X",
"0X0X0X0X0X0X0X0Xv q 4 1 = ; @ u 0X0X0X0XR 3 3 ; ; : 4 ; q P 0X0X0X0X0X0X0X0X0X0X0X0X",
"0X0X0X0X0X0X0X0Xd 6 3 : = : . g 0X0X0X0XL 3 3 - ; 3 : : q K 0X0X0X0X0X0X0X0X0X0X0X0X",
"0X0X0X0X0X0X0XT u q 3 1 = ; . K 0X0X0X0X0X3 - : ; 3 2 3 5 Y 0X0X0X0X0X0X0X0X0X0X0X0X",
"0X0X0X0X0X0X0XG y q 3 : = = * E 0X0X0X0X0X3 : 3 1 ; ; 3 = T 0X0X0X0X0X0X0X0X0X0X0X0X",
"0X0X0X0X0X0X0XG 9 q 1 = = * q 0X0X0X0X0X0Xq * 3 ; = ; : 3 D 0X0X0X0X0X0X0X0X0X0X0X0X",
"0X0X0X0X0X0X0XF 3 q : = : O h 0X0X0X0X0X0Xq * : = ; ; 3 1 F 0X0X0X0X0X0X0X0X0X0X0X0X",
"0X0X0X0X0X0X0Xb ; 9 ; * : . A 0X0X0X0X0X0Xh . : = ; 3 8 = D 0X0X0X0X0X0X0X0X0X0X0X0X",
"0X0X0X0X0X0X0Xs 1 9 * * : . F 0X0X0X0X0X0Xf . : ; ; 1 4 # H 0X0X0X0X0X0X0X0X0X0X0X0X",
"0X0X0X0X0X0X0Xd * 3 = = - @ K 0X0X0X0X0X0Xb X ; = ; : 3 * D 0X0X0X0X0X0X0X0X0X0X0X0X",
"0X0X0X0X0X0X0Xs * ; * ; : = T 0X0X0X0X0X0XF . ; = : : 3 = d 0X0X0X0X0X0X0X0X0X0X0X0X",
"0X0X0X0X0X0X/ 3 ; = ; : * q 0X0X0X0X0X0X0XK O = ; ; ; 3 = h 0X0X0X0X0X0X0X0X0X0X0X0X",
"0X0X0X0X0X0XP 1 3 : 3 3 O s 0X0X0X0X0X0X0X_ = : = = 3 0 * b 0X0X0X0X0X0X0X0X0X0X0X0X",
"0X0X0X0X0X0XG # 4 8 : : . F 0X0X0X0X0X0X0X' 0 * ; ; : 3 = h 0X0X0X0X0X0X0X0X0X0X0X0X",
"0X0X0X0X0X0XF 1 q 0 : 8 . Y 0X0X0X0X0X0X0X0Xr # = = = 0 : D 0X0X0X0X0X0X0X0X0X0X0X0X",
"0X0X0X0X0X0XT 4 0 3 5 3 * H 0X0X0X0X0X0X0X0Xb # : = * 3 : T 0X0X0X0X0X0X0X0X0X0X0X0X",
"0X0X0X0X0X0X/ & 3 3 3 : 8 0X0X0X0X0X0X0X0X0Xb ; 4 3 : 3 q H 0X0X0X0X0X0X0X0X0X0X0X0X",
"0X0X0X0X0X0X! # 3 3 ;   Y 0X0X0X0X0X0X0X0X0Xh * 8 ; 9 O g 0X0X0X0X0X0X0X0X0X0X0X0X0X",
"0X0X0X0X0X0X0XK . 0 @ O.0X0X0X0X0X0X0X0X0X0X] = 3 : = u #.0X0X0X0X0X0X0X0X0X0X0X0X0X",
"0X0X0X0X0X0XP.L q h h F.0X0X0X0X0X0X0X0X0X0X0XG . :   [ 0X0X0X0X0X0X0X0X0X0X0X0X0X0X",
"0X0X0X0X0X0X9.5 u : U 0X0X0X0X0X0X0X0X0X0X0X0XG e u . O.0X0X0X0X0X0X0X0X0X0X0X0X0X0X",
"0X0X0X0X0XE.} u u . o.0X0X0X0X0X0X0X0X0X0X0X0XH u p 1 O.0X0X0X0X0X0X0X0X0X0X0X0X0X0X",
"0X0X0X0X0XF.! b p r S.0X0X0X0X0X0X0X0X0X0X0X0X' 3 r i ! 0X0X0X0X0X0X0X0X0X0X0X0X0X0X",
"0X0X0X0X0X} T K 2 s A.0X0X0X0X0X0X0X0X0X0X0X0XT . y u ~ F.0X0X0X0X0X0X0X0X0X0X0X0X0X",
"0X0X0X0XS.T.F.q r K J.0X0X0X0X0X0X0X0X0X0X0X0Xs 3 u i ! F.0X0X0X0X0X0X0X0X0X0X0X0X0X",
"0X0X0X0Xo./ ~ y h ! 0X0X0X0X0X0X0X0X0X0X0X0X+.b 0 H d K 9.0X0X0X0X0X0X0X0X0X0X0X0X0X",
"0X0X0X0XD.h & y A 9.0X0X0X0X0X0X0X0X0X0X0X0X9.n e P.} K 0X0X0X0X0X0X0X0X0X0X0X0X0X0X",
"0X0X0X0X0XS.] D ] 0X0X0X0X0X0X0X0X0X0X0X0X0XE 3 u U b | 0X0X0X0X0X0X0X0X0X0X0X0X0X0X",
"0X0X0X0X0X0X0X0X0X0X0X0X0X0X0X0X0X0X0X0X0X0X9.b d & ~ 0X0X0X0X0X0X0X0X0X0X0X0X0X0X0X",
"0X0X0X0X0X0X0X0X0X0X0X0X0X0X0X0X0X0X0X0X0X0X0X0X0X0X0X0X0X0X0X0X0X0X0X0X0X0X0X0X0X0X",
"0X0X0X0X0X0X0X0X0X0X0X0X0X0X0X0X0X0X0X0X0X0X0X0X0X0X0X0X0X0X0X0X0X0X0X0X0X0X0X0X0X0X",
"0X0X0X0X0X0X0X0X0X0X0X0X0X0X0X0X0X0X0X0X0X0X0X0X0X0X0X0X0X0X0X0X0X0X0X0X0X0X0X0X0X0X",
"0X0X0X0X0X0X0X0X0X0X0X0X0X0X0X0X0X0X0X0X0X0X0X0X0X0X0X0X0X0X0X0X0X0X0X0X0X0X0X0X0X0X",
"0X0X0X0X0X0X0X0X0X0X0X0X0X0X0X0X0X0X0X0X0X0X0X0X0X0X0X0X0X0X0X0X0X0X0X0X0X0X0X0X0X0X"
};
