/* XPM */
static char *_c1d817c89d14cb4890dc4fc6937f7f5Zzb9vH6qMYIPSID0[] = {
/* columns rows colors chars-per-pixel */
"50 49 236 2 ",
"   c None",
".  c #3D1C04",
"X  c #533304",
"o  c #5B3B03",
"O  c #4F2F04",
"+  c #613F03",
"@  c #654203",
"#  c #6A4603",
"$  c #6E4A04",
"%  c #744D03",
"&  c #745204",
"*  c #7E5601",
"=  c #735308",
"-  c #845D00",
";  c #944D01",
":  c #A25900",
">  c #8A6201",
",  c #876407",
"<  c #946D06",
"1  c #9D7101",
"2  c #9E790D",
"3  c #A66C02",
"4  c #A76B01",
"5  c #A47101",
"6  c #AD7300",
"7  c #A87A06",
"8  c #B27400",
"9  c #B27B01",
"0  c #BA7D00",
"q  c #B57C06",
"w  c #BD7F14",
"e  c #C17F00",
"r  c #AA840D",
"t  c #B68203",
"y  c #BB8401",
"u  c #B68B03",
"i  c #BC8B04",
"p  c #B3840B",
"a  c #B38A0B",
"s  c #BB8B0C",
"d  c #B9930E",
"f  c #A58313",
"g  c #BD8415",
"h  c #B59015",
"j  c #BF9730",
"k  c #C18400",
"l  c #C38B00",
"z  c #CA8D00",
"x  c #C58D0A",
"c  c #D08E00",
"v  c #C69101",
"b  c #CA9401",
"n  c #CD9B03",
"m  c #C3950A",
"M  c #C69C0E",
"N  c #CC9D09",
"B  c #CB960C",
"V  c #D29600",
"C  c #D29C00",
"Z  c #D99C00",
"A  c #D19D0A",
"S  c #C18813",
"D  c #C79818",
"F  c #D09B1A",
"G  c #CFA103",
"H  c #CEA10A",
"J  c #CEAB0E",
"K  c #D4A302",
"L  c #DAA501",
"P  c #D6A903",
"I  c #DCAB01",
"U  c #D2A50B",
"Y  c #DAA50C",
"T  c #D6AB0C",
"R  c #DAAC0D",
"E  c #DEB202",
"W  c #DCB20D",
"Q  c #DEBA00",
"!  c #CBA413",
"~  c #CEAD12",
"^  c #C9A419",
"/  c #D3A612",
"(  c #DAA611",
")  c #D4AB14",
"_  c #DAAC14",
"`  c #D5AE1B",
"'  c #DDAD1B",
"]  c #DCB413",
"[  c #DEB813",
"{  c #D7B21B",
"}  c #DBB31B",
"|  c #DEB91B",
" . c #D4B718",
".. c #E2AD00",
"X. c #E3AB07",
"o. c #E5B301",
"O. c #EBB501",
"+. c #E5BA02",
"@. c #EBBC01",
"#. c #E2B30A",
"$. c #E9BD0C",
"%. c #E5B90D",
"&. c #F0B700",
"*. c #F1BD01",
"=. c #E4B415",
"-. c #E3BC15",
";. c #E4BC1A",
":. c #E9B918",
">. c #F0BC1A",
",. c #CB9425",
"<. c #D7AB24",
"1. c #DEBA25",
"2. c #DAB527",
"3. c #CFAC33",
"4. c #E3BC25",
"5. c #E3BC2B",
"6. c #E3B228",
"7. c #F2BF23",
"8. c #E0BD31",
"9. c #ECC202",
"0. c #EBC40D",
"q. c #EDC80E",
"w. c #EEC801",
"e. c #F3C302",
"r. c #FAC400",
"t. c #F6CA03",
"y. c #FACC02",
"u. c #F2C609",
"i. c #F4CB0B",
"p. c #F8CB09",
"a. c #FCD303",
"s. c #FDDA03",
"d. c #FAD10D",
"f. c #FAD50D",
"g. c #E6C314",
"h. c #E9C313",
"j. c #ECC912",
"k. c #EBC41A",
"l. c #E8C91A",
"z. c #E4C61A",
"x. c #F3CC13",
"c. c #F5C71A",
"v. c #F4D414",
"b. c #FAD213",
"n. c #FFDA13",
"m. c #F5D31B",
"M. c #F9D419",
"N. c #FEDC1D",
"B. c #F5D917",
"V. c #FEE704",
"C. c #FFE31B",
"Z. c #FFE815",
"A. c #E4C92B",
"S. c #EBCA28",
"D. c #E5C428",
"F. c #ECD42C",
"G. c #FBDB25",
"H. c #F5D628",
"J. c #E7C739",
"K. c #ECD434",
"L. c #EAD739",
"P. c #F2D939",
"I. c #F4C923",
"U. c #FDE425",
"Y. c #FCE22C",
"T. c #FFEA28",
"R. c #FFF42C",
"E. c #FFEC30",
"W. c #FEE93B",
"Q. c #F5E136",
"!. c #FFF33B",
"~. c #FFFC3A",
"^. c #FDF534",
"/. c #EEE239",
"(. c #D3B044",
"). c #E5BF47",
"_. c #D9B673",
"`. c #DECB5D",
"'. c #E7CB4A",
"]. c #EED64C",
"[. c #F4D843",
"{. c #EDD358",
"}. c #F1DA5A",
"|. c #F4D958",
" X c #EDC85B",
".X c #FFEC43",
"XX c #F7E647",
"oX c #FEFD41",
"OX c #FEF44B",
"+X c #FFF847",
"@X c #FEEE53",
"#X c #FAE757",
"$X c #FEF356",
"%X c #FEF25D",
"&X c #FFFB5C",
"*X c #FEFF55",
"=X c #EEE052",
"-X c #DEC66C",
";X c #E9D966",
":X c #EDCA68",
">X c #FBEC62",
",X c #F6E96A",
"<X c #FDF363",
"1X c #FEFE62",
"2X c #F6F26D",
"3X c #FDF469",
"4X c #FCFD6C",
"5X c #F4EA74",
"6X c #FCFC74",
"7X c #FEFE7A",
"8X c #F9F375",
"9X c #DAB784",
"0X c #D4A781",
"qX c #EAD087",
"wX c #F8EA86",
"eX c #FFFF84",
"rX c #FFFF8B",
"tX c #F5E99A",
"yX c #FFFC9B",
"uX c #FCF794",
"iX c #F4ECA6",
"pX c #FDFEA2",
"aX c #FFFFAB",
"sX c #FFF7AB",
"dX c #EFE3BA",
"fX c #FDFCB3",
"gX c #FEFBBE",
"hX c #F5EDB2",
"jX c #FEFEC4",
"kX c #FEFDCB",
"lX c #FBF4C6",
"zX c #FEFFDA",
"xX c #FBFED7",
"cX c #FDFDE9",
"vX c #FEFFFC",
"bX c #FFFFF5",
/* pixels */
"                                    l b V ..L ......@.i.n.                                          ",
"                              l C ..&.&.&.O...........O.p.b.T.C.Z.V.                                ",
"                          k ..r.*.O.O.o.....I L Z C C C V V Y S.!.oX~.R.R.                          ",
"                      8 ..r.*.O.O.O.o.X.=.X.( Y Y Y L C C n z l F ].&X+X~.~.^.                      ",
"                    b r.r.*.O.O.:.=...X.X.Z Z Z V V C K N b b v l k (.3X&XoXoX~.                    ",
"                : O.y.r.@.&.>.:.O.O.&.J.].|.|.{.{.'.2.C z z v l l B k ,.,X4X4X6X6X                  ",
"              8 *.y.r.*.$.>.&.&. XwXwXwX:X;X`.`.`.;X;X;X'.3.b l l l x l k }.rXpXaXaX                ",
"            k r.y.e.*.7.&.&.|.tXtX-X(.V V c c c z k t j (.3.l b v l x x l y }.fXxXzXjX              ",
"            r.y.r.*.7.&.@.tXiX_.V V Z L Y Y ' 6.L ( Z V e 6 4 8 v v l l x l y }.zXvXbXkX            ",
"          @.y.y.*.c.&.:XlXqXZ Z X.' ( L L A Z 5X,.V A A A C l 6 8 b v l l x S v wXvXvXvXfX          ",
"        e.a.y.r.>.&.qXcXqXc X.' ..L L L ..F Z 8X-Xc ,.b b C C b 9 6 b l l l x w P sXvXvXcXyX        ",
"        V.t.t.u.*.I.kX9XZ 6.X.......L ..L k L .XhXx V B V C V V b 9 8 n k l l l g q.jXcXzXjX        ",
"      n.y.y.t.t.r.&XJ.Z 6.o.O.......I ..C 0 #.s.aX_.k ,.V C b b b b 8 t C k l l g v {.jXkXkXyX      ",
"    U.Z.y.y.t.e.M.z.Z =.o.o.o.......I ..y l =.a.7XdXk x b n b b b b b 6 v b y l l g P tXjXjXjX      ",
"    U.y.t.t.y.@.u V %.O.O.O.O.o.......C 6 C O.b.C.jX_.e D b b b v z b l 9 K l l l S z ].pXyXpX8X    ",
"    T.y.p.t.y.i 5 O.O.@.@.O.o.o...I ..y 0 L @.M.V.rXlXe D b z z z b b b t l C y l k i K |.>X%X%X    ",
"  OXn.t.p.d.+.; C 9.@.*.@.@.o.o.....C 8 z L @.a.C.+XkX0Xe ,.k v v v B b b 9 K l l y l y  .F.H.G.S.  ",
"  W.a.d.t.y.n 4 O.e.e.9.@.O.o.O.....l k C L o.y.N.V.yXhXP F l 0 0 y k k b 0 l b k l l i f  .` { )   ",
"  W.y.d.d.t.i l e.e.e.@.*.@.@.@.O...V C C L o.t.a.Z.E.&X*XoXW./.A.8.` D B k 0 C y l k l < d M M H   ",
"&XE.y.d.d.$.7 L y.P b K P ....o...L K Y ( L o.e.b.d.C.T.E.^.~.oX~.oX+X!.K.D 0 b l l l l < f ^ M !   ",
"$XU.a.i.d.I 4 #.t.0.i i v n G K L P K K ;X<.o.O.|.|.y.N.b.n.N.N.N.n.d.@.l l y b b l k l 5 f  .^ } ^ ",
"$Xn.d.d.d.n 0 *.u.y.@.y v v n G K L Y v XX6...L l.W.*.t.t.t.y.y.9.O.C 6 y b l l b y l l 9 , ^ M H d ",
"$Xf.b.d.d.A x e.t.u.d.E a b l n K K G y S.` L n o.G.O.@.O.o.o.P K b 8 y b b l l b l l l t & u u u u ",
"@Xa.b.b.b.T b u.i.u.i.a.G m K i b n b t S.` L b ] F...o.E L C K n 6 y l l b v l V k l l t $ 1 1 1 1 ",
"@Xa.b.b.b.#.K 0.i.q.i.u.e.i H K l b b 9 S./ C v T H.o.I I K K K 4 9 z l v b v l b l l l y + * - * - ",
"@Xs.b.b.b.%.T u.i.i.q.0.0.%.p n i b n i 3.N K C ^ 1.o.+.o.K n 4 9 l v v z b l z b k l l t X - - > - ",
"%Xn.b.b.b.x._ 0.i.q.q.0.0.0.P 3 y v v b v n C C K K o.o.9.P 6 6 l l v b v b l b V l l l 9 o > - > > ",
"%XC.b.M.x.M.] $.x.q.q.0.0.@.$.p 9 b b b b b C C K P E @.x.i.2.t b v v v b b l n b k l v 9 X > - > > ",
"<XT.d.M.i.G.D.#.x.j.0.0.0.0.$.t p b v b n C C C C K P 9.N.E.[.s b n v b b b l Z b l l z 5 X * % * & ",
"  W.a.m.i.G.L.P q.j.j.0.0.0.%.r i b b K P P I P K K P @.G.W.=Xg b b b b b b v L z l l z - O % # & # ",
"  OXa.b.i.m.XX' 0.j.j.0.%.g.] p v n K o.+.E E E I P K E x..XXXD b b n b n v C P l l l l $ X @ @ @   ",
"  %Xa.x.x.9.#XJ.E j.h.0.-.h.] i G E 9.+.+.E E o.E E P K +.G.OX<.v n n n n v I K l l l y X o o o o   ",
"  3XY.t.j.@.P.#XL ;.0.-.-.h._ b Q i.w.+.P m a m P I E P P x.OX2.l N n n n n o.n v v b 1 . @ + @ @   ",
"    OXw.k.k.@.5X'.o.D.g.-.k.^ T a.s.+.M p p M s r m T #.P E W.J.l G n G v X.P v b v n * X % # %     ",
"    >Xt.h.k.@.{.uXP ;.>.;.z.! j.V.9.m s ! R W W T M s M W P I.K.v n G b K +.M b n n i o # # # #     ",
"    7X.X9.l.k.+.iXtXP 5.-.;.] N.l.M /  .=.W ] W W W T m m G %.K.M G K G O.K b b v N < O $ # % #     ",
"      >Xw.l.k.9.;.lXqXP D.-.=.;.) ] -.[ [ ] } [ ] ] T W T M G ;.U K n O.E m n m N s o = = = =       ",
"        @X9.k.4.+. XjX:XX.5.;.-.k.k.-.-.-.[ [ ] ] ] ] T T T U n Y A %.O.n n n N N < = < , < ,       ",
"        6XH.9.g.1.E :XfX;XP ;.k.-.;.>.-.;.[ [ ]  .W W T R Y T Y n O.$.n N n n G p , 2 2 f 2         ",
"          3X+.;.[ 5...'.uX,XQ E ;.z.-.-.;.-.-.;.=.W ] W R T U P 0.O.H n N N H m < r r 7 h           ",
"            <X+.| [ 1.E =.,X4XL.W W [ ;.-.;.[ [ ] ] ] T T ) 0.t.#.N H H H H J h r d d M             ",
"            eX<XE | ] | W I J.$X+XQ.l.g.] ] ] ] ] ] ] -.j.i.0.U N U H U H n <. .~ ~ ] ~             ",
"              eX<XE [ | } ;.P P A.P.Y.U.U.B.m.B.v.B.B.i.j.T N / U U U n J D. .~ ~ [ ~               ",
"                eX3X-.E | ] } ] T P ~ | ;.z.l.l.g.%.] / / / / J / ) n ` L.A. . .D. .                ",
"                    2X[.P W ;.} } } ) ) ) / / / / ) ) ) ) ) ) ) H H A.P.K.D.H.A.                    ",
"                      7X<XS.P P } } } } } } } } { { ` ) ) J G K 1././.K.F.Q.F.                      ",
"                          6X>X[.;.P P P T ] ) ) J P K G G J A.XX*X+XXX[.L.                          ",
"                              7X,X#X#XP.J.1.1.| 1.8.J.[.$X1X4X%X}.=X                                ",
"                                    eX7X8X2X2X5X8X2X4X4X4X                                          "
};
