/* XPM */
static char *_c74bb5c3a9f4e48f4c6df4c9d2abd6auwHt3aSBznaZqt7U[] = {
/* columns rows colors chars-per-pixel */
"65 114 246 2 ",
"   c None",
".  c #010002",
"X  c #0C0103",
"o  c #00000B",
"O  c #0E040A",
"+  c #0E0B09",
"@  c #130306",
"#  c #1B0405",
"$  c #12050B",
"%  c #1A0409",
"&  c #14090E",
"*  c #1B0B0C",
"=  c #1E0807",
"-  c #000012",
";  c #0C0B14",
":  c #00081A",
">  c #150B11",
",  c #1A0E13",
"<  c #110813",
"1  c #1D1115",
"2  c #16121A",
"3  c #1D1319",
"4  c #07131C",
"5  c #230505",
"6  c #2C0404",
"7  c #260806",
"8  c #2B0907",
"9  c #230C0B",
"0  c #2D0B09",
"q  c #2A0708",
"w  c #330304",
"e  c #320807",
"r  c #330B09",
"t  c #3B0C0A",
"y  c #390406",
"u  c #23110E",
"i  c #2C120E",
"p  c #34120E",
"a  c #3B110D",
"s  c #3F180F",
"d  c #221315",
"f  c #2B1513",
"g  c #2C1915",
"h  c #221619",
"j  c #251B1D",
"k  c #2A1D1D",
"l  c #331612",
"z  c #3D1511",
"x  c #341B15",
"c  c #3B1B14",
"v  c #371E18",
"b  c #2D0F11",
"n  c #33221E",
"m  c #3B231B",
"M  c #3D2017",
"N  c #2F201D",
"B  c #191C22",
"V  c #251E21",
"C  c #291F20",
"Z  c #262325",
"A  c #2C2323",
"S  c #322624",
"D  c #322827",
"F  c #3D2A23",
"G  c #342A29",
"H  c #3B2D29",
"J  c #3B2621",
"K  c #3B312C",
"L  c #3E3532",
"P  c #460908",
"I  c #42130E",
"U  c #4A120E",
"Y  c #581A0E",
"T  c #441610",
"R  c #4C1612",
"E  c #451C14",
"W  c #4B1C14",
"Q  c #461E19",
"!  c #521B13",
"~  c #571C14",
"^  c #530E0C",
"/  c #651C07",
"(  c #422216",
")  c #42241B",
"_  c #4B2419",
"`  c #442A1E",
"'  c #4B2B1C",
"]  c #4B2215",
"[  c #5B2316",
"{  c #532B1C",
"}  c #5C2C1B",
"|  c #572518",
" . c #59311D",
".. c #582500",
"X. c #782805",
"o. c #632413",
"O. c #6D2A13",
"+. c #632B1A",
"@. c #672615",
"#. c #732D14",
"$. c #64341D",
"%. c #6B341B",
"&. c #693517",
"*. c #763719",
"=. c #69270F",
"-. c #442D22",
";. c #4A2D21",
":. c #422F29",
">. c #4E3224",
",. c #48342B",
"<. c #543425",
"1. c #5A3421",
"2. c #5B3925",
"3. c #5B3B2A",
"4. c #57382A",
"5. c #483A34",
"6. c #583E32",
"7. c #522F23",
"8. c #633D25",
"9. c #6B3C22",
"0. c #623C29",
"q. c #633521",
"w. c #713822",
"e. c #642A26",
"r. c #7B411F",
"t. c #59443A",
"y. c #69432A",
"u. c #744325",
"i. c #784628",
"p. c #654733",
"a. c #754F36",
"s. c #74533A",
"d. c #6E5545",
"f. c #6B5B4D",
"g. c #843B16",
"h. c #873C16",
"j. c #89390E",
"k. c #8B421B",
"l. c #87431E",
"z. c #93451B",
"x. c #9B4A1D",
"c. c #944218",
"v. c #A24D1D",
"b. c #AB531D",
"n. c #A6511F",
"m. c #854D2A",
"M. c #884925",
"N. c #934D24",
"B. c #9A4B21",
"V. c #8A512C",
"C. c #9C5226",
"Z. c #94522B",
"A. c #9A542A",
"S. c #8B5736",
"D. c #9A5D35",
"F. c #A14F21",
"G. c #A45323",
"H. c #AA5523",
"J. c #AD5926",
"K. c #AE5D2B",
"L. c #A3582C",
"P. c #B55B24",
"I. c #BB5E24",
"U. c #B25D2A",
"Y. c #B55B24",
"T. c #A75D31",
"R. c #9A633C",
"E. c #88603F",
"W. c #BD6126",
"Q. c #BB632C",
"!. c #B6602D",
"~. c #AD6433",
"^. c #AA663A",
"/. c #BC6934",
"(. c #B46B3A",
"). c #B76734",
"_. c #AF612E",
"`. c #C25E1D",
"'. c #C4662A",
"]. c #C5692D",
"[. c #CB6B2D",
"{. c #C26326",
"}. c #D16E2F",
"|. c #C66D33",
" X c #D06F31",
".X c #C3723B",
"XX c #CC753B",
"oX c #CB7236",
"OX c #D47334",
"+X c #D87635",
"@X c #D4793C",
"#X c #DC7B3B",
"$X c #D47639",
"%X c #D7712E",
"&X c #E27E3B",
"*X c #E17A2E",
"=X c #89644C",
"-X c #996945",
";X c #B87545",
":X c #AB6F45",
">X c #C87A46",
",X c #D67E42",
"<X c #E4813D",
"1X c #EB873F",
"2X c #B78764",
"3X c #A1846F",
"4X c #96887B",
"5X c #D2834C",
"6X c #DA8347",
"7X c #DC8C53",
"8X c #D38A56",
"9X c #D18956",
"0X c #E58544",
"qX c #EA8946",
"wX c #E58A4B",
"eX c #EC8C4A",
"rX c #E68645",
"tX c #F4914C",
"yX c #EC9353",
"uX c #ED995B",
"iX c #E8955A",
"pX c #F39B5B",
"aX c #F79955",
"sX c #ED8F4D",
"dX c #FDA15E",
"fX c #D5976B",
"gX c #EC9D62",
"hX c #E39B67",
"jX c #F19F61",
"kX c #E29E71",
"lX c #ECA26B",
"zX c #F4A264",
"xX c #FDA564",
"cX c #FDAA6B",
"vX c #F7A66A",
"bX c #F7AC74",
"nX c #FDB37B",
"mX c #E7A473",
"MX c #B19D8C",
"NX c #F3B382",
"BX c #D3B6A0",
"VX c #F6C696",
"CX c #E6D8C8",
"ZX c #E2DCD0",
"AX c #F4F2E9",
"SX c #EBE7DC",
/* pixels */
"                                                                                                                                  ",
"                                                                                                                                  ",
"                                                                                                                                  ",
"                                                                                                                                  ",
"                                                                                                                                  ",
"                                                  t.y.S.R.:X                                                                      ",
"                                              d.4.>.y.V.~..X5X8X                                                                  ",
"                                            f.K ` 2.u.N./.oX@XeXiX                                                                ",
"                                          5.K m ` y.N.J.].OX&X&XaXgX                                                              ",
"                                        L L K ) ) *.J.'.}.#X0XqXyXxX                                                              ",
"                                        L L ,.` ` %.U.[.OX&XeXlXNXcXlX                                                            ",
"                                      5.L K -.' <.%.F.].+X&XwXgXNXnXcX                                                            ",
"                                      t.5.H -.` <.$.z.].#X&X&X&XyXzXdX                                                            ",
"                                      t.,.` ;.` `  .l.].wX0X#XiXlXvXcXlX                                                          ",
"                                      >.>.;.-.<.{ i.m./.wX7XwXlXNXkXcXbX                                                          ",
"                                      >.;.) >.3.-.2.2.m.^..X@XL.S.^.5X9X                                                          ",
"                                      -.,.4.4.-., d d d f *.N.t 5 v ) } w.                                                        ",
"                                  z W ) ` p.p.g X $ l 9 . Z.L.# , 5 z @.#.                                                        ",
"                                  R | c m 3.2.9 $ 9 E u $ K.wX0.y R w.K.F.                                                        ",
"                                  _ W z ` 3.y.m c ( Q l l N.pX;Xh.B.x. X|.                                                        ",
"                                    E E ;.<.1.1.{ } 7.) -.m.7X,XI.oX,XwX                                                          ",
"                                    Q | ) v ' } q.9.w.e.c | T.,XyXuXcXaX                                                          ",
"                                      { ' g x ` 0.w.i.0.b 3.M.;XzXpXxXuX                                                          ",
"                                        <.) d m 4.i.0.x ) w.Z.H.(.gXaX.X                                                          ",
"                                        2.<.f g ) 2.c u } N.J.oXb.@XwXV.                                                          ",
"                                        4.2.g f v ;.7._ +.Q.$XOX#X+XK.                                                            ",
"                                        >.2.l * u x ' ] a | B.+XOXH.M.                                                            ",
"                                        ` p.' * % u f ) m.M.>XaXL.u.                                                              ",
"                                        ` 0.4.M * % $ f y.N.~.S. .                                                                ",
"                                      ,.;.y.3.' m f u o . 9 5  .S.                                                                ",
"                                    k 3 n 4.8.2.' c y E 9.i.D.yX                                                                  ",
"                                  k , O . g 2.$.} w.T./.]. X0XaX                                                                  ",
"                                N 2 & & & . f u.U.$XwXwXOXI.OXyX                                                                  ",
"                              j 2 3 3 k h 1 . x L.+XwXyX0X$X&XpX                                                                  ",
"                            V 2 2 j V V V j d o & i.XXyXtX<XsX>X                                                                  ",
"                          3 2 2 3 3 j k j j 1 h 3 o ` -X,X+XsXS.B                                                                 ",
"                        3 ; 2 3 , 3 h A k j j 3 j g < - ` u.S.>.B S                                                               ",
"                      j 2 < 1 k h 3 h V A V j 3 3 j k k 2 : : V A Z G                                                             ",
"                    h ; 2 3 3 j V V C V A A Z 3 3 3 h k C S S A A Z V H                                                           ",
"                  g < < , 3 3 3 3 j C C A S A k k h h Z C C A A A Z Z Z S                                                         ",
"                m 1 O & < & 2 3 3 h A A A S D Z C C j V C C A A A Z A D Z Z                                                       ",
"                3 < O O $ $ > 1 h h j A D D G D A Z C k C C A A A A Z Z A Z S                                                     ",
"              d 2 & O O < $ 1 1 3 h j A D D D G D A A C C j C Z A Z A A A Z C F                                                   ",
"              d ; & O & < O , 3 3 h j C Z D G G G S A A C V j C D D A A A A Z A                                                   ",
"              d < O O O $ < , h d h h j C S G G G S A A C V j C A G A A D D A A m                                                 ",
"            g > & $ O O O O , d h h h j k A G G D A A A A A C C A D D A A Z A Z A                                                 ",
"            d < < O O O O < , , h h h j V C G H A A k A A A A C A D D D A A D Z C J                                               ",
"            h < O O X O $ O > 3 3 h j h h V D G A h j C C C C A A D D A A A Z A C J                                               ",
"            d < X O O X O O > , d h h h h j A H j 1 3 V C C C A A D D D A A k Z Z v                                               ",
"          g > O O O X O $ O < , 1 3 3 h j j A A 1 , h j V C C A A D D A A A A V Z J                                               ",
"          j O & $ X X O $ $ & , 1 1 h h h j N j & 1 1 3 V C C A D D D D A A A k V :.                                              ",
"          d O < $ O $ $ > < $ , 1 1 h h h j k & & , , 3 d V C C D D D S A A k A 2 5.                                              ",
"          d O $ $ $ & > , , , , 1 1 h h h h , $ > > , , d h C C A G D S A A A Z j J                                               ",
"          g O & O O o < , , 3 d h h h 1 h 1 X $ > & * , 3 h V C Z D G D S Z C k j C -.                                            ",
"          f O < , , f x j ; o o O h h j k 1 . $ $ < * , , d h h C S G G A A C A j C J                                             ",
"            j ,.H F 1.u.V.V.p.>.n ; o o 2 > X X $ & < , , , 3 d j Z G G A A k V k V n                                             ",
"            -.>.m g ' g.G.~.;X;X;X-X=Xs.y.1 . + $ & % > > , 1 d h C D S A A C C j j k                                             ",
"              ) m g ' k.v.G./.(.(.5X7X6X5Xy.. & O $ < > , , , 1 h j S A A Z C k V C C                                             ",
"              m x m M } k.x.~./.L.(.5X6X@Xi.o u $ $ $ $ $ > > , d h C C C k C C k C k                                             ",
"              m g M  .' *.x._.).~.~.(.5X$Xu.. , $ $ $ $ $ $ $ > , 3 j j j j j j k g                                               ",
"              m l l &.&.2.l.C.K.~.~./.oX+Xu.o d $ $ @ X X O $ & , , h h j h h d g                                                 ",
"              m g ` *.#.$.| z.K.^..X/.'.$X9.o d < & $ O $ $ $ > , h C C k k C C `                                                 ",
"              m f } A.z.O.} i.H._.|./.I./.<.o d 3 , , , , 1 1 d h h C C A D C :.=X                                                ",
"              c g | G.b.l.O.L.G.x./.Q.W._.x > 1 , 3 d d h h h h k C C A A S V H =X                                                ",
"              v f | B.n.z.*.H.].H.~.U.W.N.> 1 , , 1 1 1 h h j j V C C S C C C D s.                                                ",
"              c i { N.z.x.h.H.'.]./.J.Y.} o 1 1 & u 1 3 3 h j j j C j C A S C C :.                                                ",
"              m g ( l.z.x.x.P.W.I.OX{.k.f & d , 1 & , 1 , d d j h h h C C C C C k                                                 ",
"              x f c %.h.x.H.].I.b.].OX%.- f , , 1 1 , * , 3 d 1 1 h V C C A A C C F                                               ",
"              g f l } h.B.Y.[.I.b.I.%XZ.. h d 3 d , d , d d d d d d V h C C C V C g                                               ",
"                g i ] *.G.!.'.Y.b.I.].[.i.o - d d , 3 , , 3 d 3 1 1 3 h k C C C j 6.                                              ",
"                f f E *.G.U.b.P.W.I.Q.}.[.A.' o < d d , 1 , , 3 , 1 h h h C V C o -X                                              ",
"                f f l %.n.H.x.H.W.'.].].'.[.'.M.c - , g 1 1 , d 3 3 d d h V V n - R.iX                                            ",
"                x f f %.F.G.h.k.x.W.'.[.].'.'.[.U.w.3 ; g j h 1 d , d 3 j j k n : V.aX7X        hX                                ",
"                v f f &.x.U.z.g.z.b.I.]. X X[.'.].].N.E - 3 g j j 3 3 d h k C n : M.1XyX      k.cXNX                              ",
"                x f 9 +.h.Y.b.*.*.k.x.b.{. X%X%XOX}.].P.*.d - ; 2 j j h j k C k < *.{.tX8X  fXlXxXgX                              ",
"                  g u } *.c.].L.*.Y [ =.g.x.I.}.#X&X#X+XOXK.M.} x - o - 2 k D j h >.h.Q.T.7XnXNX6X6X                              ",
"                  g u } %.| /.|.b.x.k.=.^ ^ o.*.b.[.<X<X&X&X&X+XQ.N.i. .k 4 4 . h m m m.@XpXnX2XX.0X                              ",
"                  f f _ $.z A.[.`.I.I.b.n.x.h.#.=.j.J. X0X0X$X$X@X>X6X$X.XZ.m.q.V @ ..[.qXeXaXhX^.wX>XD.8X                        ",
"                    f l ' z O.G.I.I.Y.Y.{.'.[.].W.C.l.j.A.R.:X:XR.^.^.).P.#X0XoX4.4X3XoX0XeXeXpXvX7XN./ D.;X9X                    ",
"                      i i 9 i R O.h.h.h.c.v.W.'..X;X-XS.a.a.R.;X>X@X6X@XC.~.eXN.=XCXAXBX<XeXqXeXjXbXfX;XZ.Z.T.(.wX8X              ",
"                            i d p z R | @.o.*.&.y.p.s.E.R.^.XX6X0XeXqXqX&X0X>X..MXAXAXZXuXeXaXgXzXjXpXtXaXuXiXeXaXxXiXmX          ",
"                              * * u l c m l g f m ;.' r.n.W.[.}.%XOX+XOX&XtX>Xy MXAXAXSXkXqXpXzXpXyXsX%X[.OX@X X0X6XqXcXVX        ",
"                            d O X . X * u v M E ] | [ #.#.j.j.k.c.c.v.x.Y.OX$X&.f.ZXAXCX,XqXrXyXzXgX7XgXfXhX8XS.s.      8X        ",
"                            $ < $ O X X X + * u x E E ! [ [ [ =.O.O.=.[ o.O.*.9.=X4XBXkX*X&X$X'.,XL.L.lXgXpXkX2X                  ",
"                            k X & $ O O O X . . . . + u i l ( E ] ] s c i # o $ :.4.D.OX+X+X|.oX[./ j.b.`.eXmX                    ",
"                          p.F . & O O $ $ X X X @ X X . . . . . o . . . . + * & . J 9.U.OX+X].].].oX,XiX5XT.fX                    ",
"                          -.d > & O O $ O O 1 > & 3 h j d > X @ + @ $ $ $ $ $ $ & x   ! L.W.x.%.Y >XyXgX2X                        ",
"                          @ $ $ $ O X X X & N A S D S S D S A h 3 1 & O X O O O O u         a y ~ ^ _.lX                          ",
"                        f * X X X X X X X * g $ f k x S D G G H S S A j $ X + O & %                                               ",
"                        9 % $ X X X X X X * 7 9 ) p 5 0 p c n v J H H S k 3 X X o v                                               ",
"                      i * @ X @ X X X X X * = % ) z w e y U t 8 p ) S J H K 3 1 h m                                               ",
"                      = $ @ X X X X X X @ @ % . l a w r y ! U y ^ P 6 b l n Z A :.m                                               ",
"                      , > @ @ O X X X X X $ $ . f a w r 6 ! R w +.~ P P P w e f 1                                                 ",
"                    m A g N & & O X X X X @ @ . p I 8 e w R ! 6 ~ @.P R @.! W c g                                                 ",
"                    g , & 1 @ X X X X . X @ X . x I 6 e r a U 6 ! +.y I W W +.( c 3.                                              ",
"                    * 1 X . X X X @ @ & $ X X + x t 7 r w t R w a ~ U t t w I c T q.                                              ",
"                    & 1 X X X X X $ $ O X @ X + p t 7 e e 0 T r e a R t U I T Q T q.                                              ",
"                    % & X X X X X $ X X X O X + r 0 7 r r 7 a e r r z r I I T ' T q.                                              ",
"                    * & $ X X X X X X X X X X = r 8 7 r e = p e r 9 p r r t I _ z +.                                              ",
"                    $ @ X X X X X X X X X X . & 0 8 5 r 7 7 r e r 5 i t e a T a p [                                               ",
"                    $ X X X X X X . X X X X X = 7 7 @ r 5 7 t e r 6 9 a w r T c z [                                               ",
"                    O X X X X X X X X X X X X * 7 # = 8 # r r r r 6 0 a r r T W t |                                               ",
"                    & $ X X X X X X X O O X O * 7 @ % 5 7 e 0 r e = 9 r 0 e T T 6 !                                               ",
"                    * $ X X . X X O & & $ X $ % % @ # 5 7 7 8 e q 5 e e 0 r R z # Q e.                                            ",
"                    * O X X X . X X X . X @ $ @ @ @ # % 7 8 e e 8 7 r r 8 p T l @ W }                                             ",
"                    * $ X X X X X X X X X & & @ @ @ # % 5 7 0 8 8 7 0 8 7 a W p # s ]                                             ",
"                      X X X X X X X X X X X X @ @ $ @ % 7 7 8 8 7 8 8 8 r I ] 0 5 p E                                             ",
"                      & . X X X X X X X X X X $ $ # @ @ 7 7 8 8 8 8 0 8 0 T ] 8 # a E                                             ",
"                      > X X X X X X X . X X X @ @ @ @ @ 7 7 8 e 8 e 8 8 0 E l # # l c                                             ",
"                      + @ X X X X X X X X X X X @ @ @ @ % 7 7 7 7 8 8 9 r c 9 = # i c                                             ",
"                      $ X $ X X X X X X X X X X X @ @ @ # 7 7 7 7 7 7 6 p M & 9 @ 0 z                                             ",
"                        , > O X X X X X . X X X X X X @ # 5 7 7 7 7 7 7 z i # * @ 0 c                                             ",
"                          & X X X X . X X X X X X @ X O @ 5 7 7 6 7 5 8 c * # = # 7 z                                             ",
"                          O X X X X X X X X X X X X X @ @ % 7 7 7 7 # 0 x = @ @ @ 9 I                                             "
};
