/* XPM */
static char *_c5fa56d12af47fead0f2ba29aea8a5cdewd7DGhD9en8QSc[] = {
/* columns rows colors chars-per-pixel */
"47 82 235 2 ",
"   c None",
".  c #010101",
"X  c #01020B",
"o  c #03090C",
"O  c #0B0C0C",
"+  c #070706",
"@  c #140C0B",
"#  c #0E100F",
"$  c #11120F",
"%  c #1F150A",
"&  c #000312",
"*  c #020B14",
"=  c #020618",
"-  c #150E12",
";  c #0E1213",
":  c #02141C",
">  c #011B1B",
",  c #051419",
"<  c #131313",
"1  c #1A1615",
"2  c #1B1A16",
"3  c #141518",
"4  c #12191C",
"5  c #1C1B1C",
"6  c #181818",
"7  c #221B16",
"8  c #211E1E",
"9  c #281B16",
"0  c #230F0B",
"q  c #1F201E",
"w  c #22201E",
"e  c #2C221C",
"r  c #2A2015",
"t  c #33231B",
"y  c #36251A",
"u  c #000C21",
"i  c #061C23",
"p  c #1C1D21",
"a  c #121C22",
"s  c #211F20",
"d  c #1D2224",
"f  c #162122",
"g  c #082127",
"h  c #242223",
"j  c #292626",
"k  c #2B2927",
"l  c #262728",
"z  c #292728",
"x  c #2C292A",
"c  c #26282B",
"v  c #322522",
"b  c #3C2D24",
"n  c #332D2C",
"m  c #3C2E2C",
"M  c #302A27",
"N  c #37312A",
"B  c #2F2F31",
"V  c #323232",
"C  c #3D3C3D",
"Z  c #393433",
"A  c #332E30",
"S  c #442B1C",
"D  c #4A2A18",
"F  c #6A3619",
"G  c #442D23",
"H  c #433225",
"J  c #4D3323",
"K  c #44342C",
"L  c #4B342B",
"P  c #4D382C",
"I  c #553A2B",
"U  c #5C3D2A",
"Y  c #573826",
"T  c #483B32",
"R  c #543D34",
"E  c #583D35",
"W  c #653C28",
"Q  c #793F2D",
"!  c #613A32",
"~  c #5E412C",
"^  c #554134",
"/  c #5B4232",
"(  c #54433B",
")  c #5A453B",
"_  c #5D4A3D",
"`  c #4F413D",
"'  c #65422D",
"]  c #6A412B",
"[  c #77452B",
"{  c #634533",
"}  c #664835",
"|  c #6C4A36",
" . c #654B3C",
".. c #6B4C3B",
"X. c #684437",
"o. c #794B33",
"O. c #724E3A",
"+. c #7C4E3A",
"@. c #734933",
"#. c #75513C",
"$. c #7C523C",
"%. c #7B5034",
"&. c #6F503E",
"*. c #1C3642",
"=. c #3D3F44",
"-. c #3B4448",
";. c #004F6B",
":. c #474648",
">. c #575557",
",. c #564A43",
"<. c #674B44",
"1. c #784646",
"2. c #6C5448",
"3. c #745343",
"4. c #7B5543",
"5. c #785949",
"6. c #665B56",
"7. c #765D52",
"8. c #46566E",
"9. c #5E6061",
"0. c #666768",
"q. c #6E6E72",
"w. c #7A797A",
"e. c #8B5436",
"r. c #83543B",
"t. c #8A553B",
"y. c #8C5A3D",
"u. c #845538",
"i. c #935B3C",
"p. c #9A5D3C",
"a. c #955935",
"s. c #884E31",
"d. c #A6453A",
"f. c #98603E",
"g. c #A5653F",
"h. c #874945",
"j. c #845B43",
"k. c #8B5B43",
"l. c #835E4C",
"z. c #865644",
"x. c #935E44",
"c. c #9A5F41",
"v. c #835E55",
"b. c #925053",
"n. c #AB5752",
"m. c #B75955",
"M. c #8C634C",
"N. c #86634A",
"B. c #946145",
"V. c #9C6343",
"C. c #93634B",
"Z. c #9B654A",
"A. c #9B6A4C",
"S. c #956A4C",
"D. c #8B6554",
"F. c #836353",
"G. c #986953",
"H. c #977058",
"J. c #A26643",
"K. c #A46946",
"L. c #AC6C46",
"P. c #A3674A",
"I. c #A46B4B",
"U. c #AB6D4B",
"Y. c #A96543",
"T. c #B36D4A",
"R. c #AC714D",
"E. c #A4714E",
"W. c #B4734C",
"Q. c #BA744A",
"!. c #A36D52",
"~. c #A56C54",
"^. c #AD7352",
"/. c #A87558",
"(. c #B37552",
"). c #B57955",
"_. c #BB7B55",
"`. c #B67B59",
"'. c #BB7E5A",
"]. c #BA7753",
"[. c #9A7262",
"{. c #A97964",
"}. c #B77C65",
"|. c #BC6660",
" X c #C27E54",
".X c #C07F5A",
"XX c #C47251",
"oX c #BC825C",
"OX c #B4825E",
"+X c #AA805E",
"@X c #AD8263",
"#X c #B68564",
"$X c #C4835C",
"%X c #CA855B",
"&X c #CC895E",
"*X c #C68358",
"=X c #D28B5E",
"-X c #D1905E",
";X c #C58661",
":X c #C98761",
">X c #C48962",
",X c #CB8B63",
"<X c #CA8C6B",
"1X c #D28D63",
"2X c #D18F69",
"3X c #CD9066",
"4X c #CD9169",
"5X c #D39165",
"6X c #D3946A",
"7X c #DA966B",
"8X c #D6996D",
"9X c #DA9B6E",
"0X c #DC9B71",
"qX c #D49472",
"wX c #E09F75",
"eX c #DFA170",
"rX c #E2A375",
"tX c #34709C",
"yX c #3C7CB5",
"uX c #5C87BD",
"iX c #6381A0",
"pX c #969799",
"aX c #878A8C",
"sX c #9A9CA0",
"dX c #809ABB",
"fX c #A6A8A8",
"gX c #B3B6B8",
"hX c #AFB1B2",
"jX c #B78C8A",
"kX c #D0B3AD",
"lX c #C8A297",
"zX c #BDBFC0",
"xX c #C4C7CA",
"cX c #D1D5D7",
"vX c #E3CBC5",
/* pixels */
"                                                                                              ",
"                                                        t b                                   ",
"                                                  ; 8 t b P J y t                             ",
"                                              8 y S Y U ~ ~ ' Y J v                           ",
"                                              P ' @.e.i.p.V.B.t.u...R                         ",
"                                            v { @.%.V.R.(.(.(.W.J.i.M. .                      ",
"                                            K } O.$.A.(.`.`.`.}.`.c.k.l.                      ",
"                                            ^ } @.y.g.K.J.K.U.P.P.x.y.M.(                     ",
"                                            ) } ' $.C./.oX'.oX}.^.i.y.M.,.                    ",
"                                            _ P ( <.K S A.oX`.j.3. .2.D.,.                    ",
"                                            ) ^ / ^ 7.2.Y E.s.G K ..} F.2.                    ",
"                                        J ) R { } ~ 7.5.W R.r.7.2.) U F.                      ",
"                                        U | ^ #.I.J.c.o.o.T.c.z.z.j.$.3.4.                    ",
"                                        W | ( r.].,X;Xt.o. XY.T..X`.U.3.^.o.                  ",
"                                          U ( #.`.:XU.W C.qXP.U.qXqXI.5.I.                    ",
"                                          / T ..4.O.O.L E l.@.k.~.'.P.j.P.                    ",
"                                            K K ..^ I F W F W Q / O.r.3.                      ",
"                                            M v 3.4.v.kXkXkXlX[./ #.) (                       ",
"                                              j L 4.F.jXkXvXkX{.5./ m                         ",
"                                              v j R #.[ n.|.m.k.<.S N                         ",
"                                              K r w ) 2._ / N.5.y b                           ",
"                                              ) t < N } 5.5.5./ q (                           ",
"                                              X.' r o K ) ) ^ . / M.                          ",
"                                            ` ..O.} H e * X e #.).H.                          ",
"                                h c p 6 6 o H | j.j.r.S.S.S.E.$X$XM.                          ",
"                    h p w d h 5 6 6 6 6 6 o H &.S.E.E.).oXoX*X3XR.B.3.g                       ",
"                  z l 6 5 5 5 6 6 6 6 6 5 < r | E.oX).OXoX>X3X>XR.S.H d x x x                 ",
"              s z j z p 6 2 6 5 6 < 6 6 2 w * H S.oX$X$X>X3X3X$X).&.: j h d h h x             ",
"              l h 8 h s 5 6 5 5 6 6 6 5 5 6 8 & / OX6X3X6X8X6XoX4.4 j 8 8 w h 5 x x V A       ",
"            s h s h 5 p 5 h s 8 5 6 6 5 5 6 5 5 o ^ H.+X@X/.M./ : l h 5 w 5 5 h x h c x V c   ",
"          h 8 5 5 h 5 5 5 h h 8 p 6 5 5 8 6 5 5 q : X & = & & , j l 8 8 h 5 q h j h h h 8 h x ",
"          h h 5 5 5 p 5 5 j h s 5 5 5 8 5 5 5 5 2 w M M x N n j s 8 p h 8 h 5 h j j x h 8 h j ",
"          5 h w 5 5 5 5 5 x h h 5 5 5 8 8 5 5 5 7 p s j h l h 8 s h s s s 8 5 j z z j s s j l ",
"        h 8 5 d h q 5 5 d h z 5 5 5 8 s 8 5 8 8 p 7 p s s h h j h h h s j 5 8 s j x s s l j j ",
"        h p h 6 d h 5 2 w h h 5 5 8 j 8 s s 8 8 7 p 1 s j c h j v x j j s 5 5 8 x x s s j j j ",
"        s 5 q q 5 5 d 5 6 h h 2 s 5 . . + s j j A x 7 j e @ 7 i : : > j s 8 5 8 x s s j j s s ",
"      h q q q w h q 5 d 6 5 6 d 5 j pXpX0.. . . X . q.. = 8.*.! 1.1.E p h l s 8 j p j j s l s ",
"      l 6 5 5 q q q k j 5 6 6 h . =.xXpXhXhXhXhXpXsXaXfX8.uX;.d.m.1.n.m.! > s l j s s l x z z ",
"    -., 4 q 4 4 5 : X * 8 6 6 B . 0.xX6.gXfXcXxXxXxXaXxXdXyXtXm.d.Q XXm.! > v s s 7 l x j j j ",
"    K ..#.r.k.B.A.A.N.I X 5 6 x . :.aXX aX>.pXpXaXxXsXsXiXtXtXh.G m b.b.1.: n 8 8 s j x x z l ",
"    2.4.+.u.i.L.OXoX$XOX| . 8 j . >.w.x C w.A . q.>.p . . q.T . w.9.X 0.>.5 x s s j v n m Z A ",
"  6.2.#.$.e.a.g.W.$X$XOXS.o h h 1 =.C $ C 9.C h 0.:.1 V x 0.:.7 9.:.- >.C j x 3 a g u = = : i ",
"  2.2.r.f.g.L.L.(.%X3XoX4.o l 8 w 1 8 j h + h j h h w 5 h . w j @ s n s x n d  .@X#X{./.A.N.| ",
",.2.5.C.K.L.]._.$X3X4XoXI * h s h h l h h x j x z x 8 < h x x j x A A A A B M A.8X0XeXrXeX7X1X",
"_ 5.N.V.K.W.oX*X3X6X3X!.1 . 7 5 j s s j j h x x x z 5 1 h h x x x x x n m x K /.4X9X5X*X&X&X=X",
"( <.j.f.W.*X&X5X6X3XOXf.u.t o 1 1 s j h h x h x x n h 8 j j 4 i l n A c c c P `.4X8X&X*X%X%X X",
"( ..j.J.Q.&X6X6X6XoXJ.J.(.y.7 < 8 5 h l j j k x z d , & : d L { K : a P R f I #X6X&X*X-X=X=X=X",
"^  .k.K.W.$X&X5X%XR.i.].&XW.u.X < 9 9 j j j f i n m P / $.Z.).].^.c.t.p.W.i.J oX3X%X%X5X-X=X=X",
"I } j.V.V.Z.U.W.R.p.a.W.].].U.o.7 & * * 4 5 H $.P.W.).'.$X5X6X8X7X=XXXg.Q.g.W `.:X:X=X5X1X1X=X",
"I { j.V.P.B.t.t.i.a.i.i.e.s.t.t.W U ] ' ] t.K.(._.%X,X1X5X&X,X9XrXeX-X Xg.Q.o.~.;X%X%X&X1X=X1X",
"Y W #.B.I.^.R.(.]._._.).(.W.U.U.R.L.Y.J.U._.&X3X7X7X8X6X6X2X7X7XeX9X-X-X%X*Xt.x.R.P.XX&X X1X1X",
"Y Y | B.P.R.'.;X,X,X,X$X,X$X X].].]._.$X3X8X9X0X9X0X8X5X$X].~.K.W.Q.=X-X=X-Xx.[ o.i.XXXX1X7X7X",
"U ] W y.V.E.^.(.].`.;X:X:X,X&X,X,X4X8X0X0X8X8X6X&X&X$X_.R.o.D D u.V.oX_.U.(.P.i.Z.(.$X1X1X1X7X",
"U %.W o.y.f.g.K.W.).'.;X:X<X4X4X6X6X6X6X3X,X$X$X_.*X&X$Xp.[ [ Q s.p.L.W. X X%X%X%X,X:X&X1X1XwX",
"J u.y.e.y.f.R.).).oX;X>X:X4X4X4X3X&X$X_.W.R._.:X3X6X).V.L.T.J.p.p.J.W..X:X1X5X5X7X6X5X1X X7X0X",
"S %.Z.Z.V.U.(.`.`.'.>XoX;X$X'.`.(.L.V.I.).$X:X;X`.y.f.$X%X X].(.(.].'.&X2X2X2X2X6XwXwX5X.X7X0X",
"t W x.B.P.I.^.(.(.^.^.I.V.x.t.t.t.P.).oX;X'.I.r.r.B.^.)._.].;X'.`._.`._..X:X%X:X$X$X1X6X,XqXqX",
"9 J +.Z.!.G.H.!.Z.k.r.%.r.u.x.P.^.(.R.I.B.W J $.!.R.B.A.^.(.(.$X$X;X;X;X.X.X$X:X1X1X&X,X6XqX.X",
"  S U z.l.G.D.l.j.r.j.k.k.B.B.x.y.t.O.L & X t I ' y.A.A.k.k.Z.I.).'.:X:X:X,X,X,X2XqXqX6X:X<XP.",
"  G J P } } ~ ~  .O.O.| ] ' W J S r : : j k h , o 0 Y j.A.Z.k.$.r.k.Z.P.R.(.`.'.;X:X:X;X<X}.r.",
"  y G m e m m T ( ` t % 2 7 $ + . < j j h j j k h < = . y | z.k.C.z.4.+.+.z.G.~.{.{.}.}.}.~.@.",
"                    ; X ; 6 5 6 @ 1 h h h h l h h h w n h X . y ! $.4.$.O.O.X.j.C.H.[.~.[.C.U ",
"                    q O 2 5 w w 6 O 5 h j j l h h h 6 x x k 2 X . . 9 J / <.) U E 5.F.F.v.v.b ",
"                    < O 6 d h q 5 O ; h j h j j x h 5 j j h x j 8 6 o . . + 9 9 9 j m ,.2.<.7 ",
"                    5 O 6 5 h d 5 6 # w h h j h h h 8 h x z z z z z s 1 - O . . . . + O < $ < ",
"                    5 O < 5 h 8 h 5 O 5 h h h h h j h h x x z z j x z j s 5 1 O + O ; 6 ; < $ ",
"                    5 < ; 2 h 8 h w < 6 j h h h 8 h h j x x x x z z z x x j s - + + O < < ; $ ",
"                    6 O < 6 h p 5 h 5 < h h j j h s w h j x x x x z x x n z j 5 O + + < < < < ",
"                    6 6 $ ; 6 s h s 5 < p j h h j h s 8 l j x x z x x A x x x s # O O < < < < ",
"                  V ; 5 5 < O 6 5 h h 6 5 h j h s j j l s j x x z x x x x x x l 6 - O O < < O ",
"                    + O 5 h 2 O < s h h 5 h l l h s j j j j j x x x x x x x x j 6 - - O # < # ",
"                  # + + < 5 d 5 $ O 6 5 5 w h h z h s l z j j z x n x x x M x j 5 5 6 < - ; < ",
"                  + + O - 6 d 5 6 O < 6 5 5 s j j l s s s 8 s j j z j j x x x j h h 5 6 @ ; @ ",
"                  6 + + O # 1 5 d 6 O 6 5 8 s l j j j s s h s l h l l h j j x z h h 8 5 ; < ; ",
"                  5 < 6 6 < # < 6 5 - < 5 5 s j h s j j j j j j x z h j x z x j x h h 5 < ; < ",
"                  O O < 6 5 p 5 6 5 5 O < 5 s j h j j z z j j h h z x x x x j l z h h 5 < < $ ",
"                  O O O O < < 5 w w s 5 < 6 l s j h j j j j l j j j z j z h h h h 8 h h 6 < < ",
"                O + O # < < 3 # # 6 5 s 5 6 8 8 s l j j l h l s h s h h h h h h h h h x 6 # ; ",
"                ; < O O O < 6 6 < O O < < 6 6 5 8 j j s h s 8 h s h h j h h h j j c h h 6 < # ",
"                < 4 6 < < O O # 6 6 O + O < < < 5 5 h s j j h j j j l h h h h h h q h h 5 ; - ",
"              O ; 3 p 6 p 6 < < O 6 6 6 < < 6 < < < 6 h h h h h s h s s s h s h 8 s h h 8 @ ; ",
"            ; ; 3 3 6 < 5 5 6 6 O O ; 6 5 h h h h h h h l h j h h l h h j s 8 8 s s l z l < < "
};
