/* XPM */
static char *c5241e28624347d7f47711e9d5d0f902gUxnT0T6dXdmBjwZ[] = {
/* columns rows colors chars-per-pixel */
"65 57 168 2 ",
"   c None",
".  c #216917",
"X  c #2C6F1F",
"o  c #35732C",
"O  c #3A7C30",
"+  c #48893C",
"@  c #4C8C43",
"#  c #548C4B",
"$  c #559449",
"%  c #59974E",
"&  c #5C9553",
"*  c #5E9B53",
"=  c #609E54",
"-  c #62915C",
";  c #639D59",
":  c #719F5A",
">  c #5CA85E",
",  c #68A457",
"<  c #65A35C",
"1  c #69A55E",
"2  c #6CAC5F",
"3  c #5CAB62",
"4  c #6BA562",
"5  c #6EAA64",
"6  c #6DAE6A",
"7  c #63AB64",
"8  c #74A663",
"9  c #71AC66",
"0  c #74AE6A",
"q  c #78AF6F",
"w  c #61B463",
"e  c #71B266",
"r  c #75B26B",
"t  c #79B46E",
"y  c #7BBB6E",
"u  c #7DAE72",
"i  c #76B770",
"p  c #7CB372",
"a  c #7EBB72",
"s  c #7FC274",
"d  c #7FC47B",
"f  c #879B5C",
"g  c #9D9D62",
"h  c #80AF78",
"j  c #80B576",
"k  c #89B772",
"l  c #81BD76",
"z  c #83B37A",
"x  c #85BE7A",
"c  c #8DBD73",
"v  c #9EBE7A",
"b  c #A3AD75",
"n  c #A5BE7C",
"m  c #AEBD7E",
"M  c #C1956D",
"N  c #82C276",
"B  c #85C27A",
"V  c #89C37E",
"C  c #87C97A",
"Z  c #89CA7C",
"A  c #8ABB83",
"S  c #95B489",
"D  c #9ABF95",
"F  c #BFB080",
"G  c #BDBB83",
"H  c #CDAD81",
"J  c #D3AD81",
"K  c #D9AB82",
"L  c #D4B589",
"P  c #DEB28C",
"I  c #D5BD8C",
"U  c #DABD8B",
"Y  c #CFB691",
"T  c #DEB593",
"R  c #DABE91",
"E  c #E2AE89",
"W  c #E1B48D",
"Q  c #E6B591",
"!  c #E5BA92",
"~  c #EBBC95",
"^  c #EDBF99",
"/  c #8DC583",
"(  c #8DCA83",
")  c #91C685",
"_  c #92CA86",
"`  c #95CC8A",
"'  c #99CE8C",
"]  c #93C28B",
"[  c #8FD086",
"{  c #8FD08B",
"}  c #94D287",
"|  c #95D18B",
" . c #9AD28E",
".. c #9BD98D",
"X. c #9CCB93",
"o. c #95D491",
"O. c #9DD392",
"+. c #9CD995",
"@. c #9DD99B",
"#. c #A7C283",
"$. c #B9C48C",
"%. c #A1D495",
"&. c #A2DD95",
"*. c #A4D799",
"=. c #A5DB9B",
"-. c #A7DEA1",
";. c #AADFA3",
":. c #B0DDA3",
">. c #B0DFA8",
",. c #A7E0A4",
"<. c #ABE1A5",
"1. c #AEE3A9",
"2. c #B5E1A7",
"3. c #B2E4AC",
"4. c #B3E8AE",
"5. c #B6E6B0",
"6. c #B5E9B2",
"7. c #BBE9B5",
"8. c #BEEBB9",
"9. c #BFF1BB",
"0. c #C3CE97",
"q. c #C6CF99",
"w. c #CACE9B",
"e. c #DEC395",
"r. c #DFC19C",
"t. c #D1CC9D",
"y. c #D8C99E",
"u. c #E3C296",
"i. c #E9C196",
"p. c #E6C49B",
"a. c #EAC399",
"s. c #EAC39A",
"d. c #EBC49A",
"f. c #ECC59C",
"g. c #EBC49C",
"h. c #F7C196",
"j. c #F1CA9E",
"k. c #DBCDA7",
"l. c #EDC7A1",
"z. c #EEC8A2",
"x. c #EECAA4",
"c. c #EFCEA9",
"v. c #F1CBA5",
"b. c #F2CCA5",
"n. c #F2CBA4",
"m. c #F4CEAA",
"M. c #FBD1A3",
"N. c #FED3A4",
"B. c #F0D0AC",
"V. c #F8D1AA",
"C. c #F7D1B0",
"Z. c #F8D5B3",
"A. c #C0EBBB",
"S. c #C1EDBB",
"D. c #C1EDBC",
"F. c #C2EEBD",
"G. c #C3EDBF",
"H. c #C3EEBE",
"J. c #C3EDBD",
"K. c #C4EEBF",
"L. c #C1EDBC",
"P. c #C5EEC1",
"I. c #C6EFC2",
"U. c #C5EFC1",
"Y. c #C6F0C2",
"T. c #C9F1C3",
"R. c #CAF1C5",
"E. c #CAF2C6",
/* pixels */
"                                                                                                                                  ",
"                                                                                                                                  ",
"                                                                                                                                  ",
"                                                                                                                                  ",
"                                                                                                                                  ",
"                                                                                                                                  ",
"                                                                                                                                  ",
"                                                                                                                                  ",
"                                                                                              ` ' =.                              ",
"                                                                                          X. .=.%.=.O.                            ",
"                                                                                      X.' &.O.%.%.*.%.%.                          ",
"                                                                                    ` ..' ' %.O.%.%.*.'  .                        ",
"                                                                                ` ..O.5.>.' O.%.%.%.*.) ) a                       ",
"                                                                          X.] .. .>.P.E.E.>.X.%.%.%.=.' / l r                     ",
"                                                                      X.) |  .;.8.I.P.A.P.T.A.A.2.' =.X.V l e A                   ",
"                                                            a.x.u.#.| | O.2.8.P.A.8.8.8.J.P.P.T.J.%.*.*.V x 9 N V                 ",
"                                                      i.g.M.N.v.R _ %.3.7.S.7.A.8.8.8.P.8.P.P.P.K.%.%.*.V x 9 r l                 ",
"                                                  ^ i.M.j.d.x.b.  3.8.7.7.7.A.A.P.9.7.8.Y.8.J.P.P.*.%.=./ x r r x                 ",
"                                                u.N.a.a.a.f.n.b.  2.8.7.7.A.7.K.5.+.| &.F.8.Y.P.R.=.X.=.) x t e V                 ",
"                                            ] ( u.i.u.a.g.d.n.b.  :.8.7.A.7.K.5.|  . .| 7.Y.F.F.R.=.%.=.` B t 9 B                 ",
"                                      / x Z Z ` e.^ u.a.d.f.n.b.   .F.7.A.7.K.&.| ' O.` 7.Y.F.J.R.>.' %.` x t r l                 ",
"                                / x B V ( %.<.5.e.~ i.a.f.f.f.V.f.y 4.J.7.A.6. .O. . .O.J.H.8.T.K.=.%.%.` c l 0 y                 ",
"                          l l N B V o.-.1.5.1.1.e.~ a.a.d.f.x.b.x.c =.S.7.A.6.}  . .` 1.H.8.Y.8.O.' O.%.) B x r y X.              ",
"                      y a B B ` =.1.3.1.1.1.1.5.e.^ s.f.f.f.f.x.f.n o.7.A.A.J.=.' O.<.J.J.F.Y.O.' O.' *.] l V 0 a h               ",
"                  r N C l B ,.2.1.1.,.1.3.3.1.6.u.~ g.g.f.f.x.n.n.n o.A.7.A.S.J.5.8.J.J.8.Y.4._  . .' *.) t / r y u               ",
"                  r l l i | 1.,.<.1.1.1.<.4.3.3.U ^ g.g.d.l.x.x.b.n @.A.S.S.S.8.J.S.8.8.8.E.&.` ' ' ' ;.q 4 ) 0 t p               ",
"                  t y l l =.1.,.1.1.1.1.3.2.4.,.U ^ ^ a.f.f.x.x.b.m 1.J.8.S.S.8.8.8.8.K.Y.5.| ' ' O.=.) o r ` r r r               ",
"                  l y t ..1.-.4.,.[ B -.3.4.6.=.U ^ a.d.f.f.x.x.b.$.6.8.8.S.8.8.J.K.J.5.&.| | O.%.O.p o + ( ' 0 r a               ",
"                  s a o.<.,.1.<.s s y ` 4.1.5.=.U ~ s.g.l.l.x.c.m.q.6.8.A.8.J.J.J.4.&.| `  .%.%.x # . $ l %.x t i l               ",
"                  y B ,.;.,.4.} y B a ' 3.3.5.<.U ^ s.f.l.x.x.c.m.q.6.P.J.P.8.1.+._ ` ' %.O.V & X @ t V ` l 9 i p B a             ",
"                  y V ,.-.<.,.N B B y =.3.3.3.5.e.~ a.f.l.x.c.c.C.w.6.8.5.=.| _ `  .O.O.V = O @ r V V j 0 5 0 0 t N l             ",
"                  y V ,.-.<.,.N l y ` 4.4.3.3.3.u.^ a.l.l.x.c.c.C.w.+.+.` _ ` O. .' k ; + % t N j r 9 5 9 0 9 0 r t l             ",
"                p y ( ,.-.;.1.+./ ' 1.3.3.3.4.4.e.~ s.l.x.x.c.c.Z.k.d ` '  .' / t ; % 1 i j r 9 9 5 9 9 5 q r t 4 e i             ",
"                q y ( ,.;.;.<.1.1.3.1.3.3.3.3.4.e.~ l.l.x.x.B.B.C.k.Z O.) x 9 < < 0 t t 9 9 5 9 9 9 r 0 0 5 4 < * e               ",
"                0 y ( ,.;.,.<.1.1.1.3.3.3.3.5.6.e.~ l.l.c.c.c.x.n.p.t i 8 1 9 r r r 9 5 9 9 9 r 0 9 9 e 5 4 5                     ",
"                6 a / +.=.1.,.1.1.1.3.3.3.;.@.{ R ^ l.f.l.s.a.i.~ g.M 2 6 q 0 9 5 9 9 9 9 0 e r r 9 u p                           ",
"                0 s y r l ,.1.1.4.1.-.+.( V B d I ~ ~ ~ ^ u.^ i.~ ~ j.M , 7 0 8 r 9 9 r t r q p                                   ",
"                r N a l r o.1.=.O./ V l B / _ B G ~ p.p.p.~ ! W W ! ! W K f 3 r 2 t 0 p z                                         ",
"                r s a a a N V l a B V / / l p 6 8 L ~ Q ~ ! ! W P P P P W W g , S                                                 ",
"                r B a a s B B V / B a r 4 1 1 5 5 5 F Q W P W W W W W E E Q h.M                                                   ",
"                5 N N B B l a 0 4 ; < 1 5 9 9 9 8 4 > b P E W P P W ! ~ ~ P                                                       ",
"                  B r 8 ; & & ; 4 5 9 9 5 4 4 5 5 5 r w k Y Q ~ ~ P T !                                                           ",
"                  - $ # ; 5 9 0 5 4 7 4 5 5 4 e e r 8 h                                                                           ",
"                    z a q 5 4 4 4 4 5 4 5 e 0 0 p                                                                                 ",
"                        q p 5 5 4 5 e 4 0 z                                                                                       ",
"                          u 4 1 * <                                                                                               ",
"                                                                                                                                  ",
"                                                                                                                                  ",
"                                                                                                                                  ",
"                                                                                                                                  ",
"                                                                                                                                  ",
"                                                                                                                                  ",
"                                                                                                                                  ",
"                                                                                                                                  ",
"                                                                                                                                  ",
"                                                                                                                                  ",
"                                                                                                                                  "
};
