/* XPM */
static char *result[] = {
/* columns rows colors chars-per-pixel */
"55 98 241 2 ",
"   c #030001",
".  c #0C0103",
"X  c #01010C",
"o  c #0E010A",
"O  c #090A0E",
"+  c #120203",
"@  c #1B0203",
"#  c #13040B",
"$  c #1A050A",
"%  c #16090B",
"&  c #1B0A0C",
"*  c #190906",
"=  c #000014",
"-  c #00001B",
";  c #0E0113",
":  c #130412",
">  c #1C0C12",
",  c #1B0B1B",
"<  c #190616",
"1  c #1C1213",
"2  c #09101D",
"3  c #230403",
"4  c #2C0403",
"5  c #2C0A03",
"6  c #230B0B",
"7  c #2A0D0C",
"8  c #280709",
"9  c #340603",
"0  c #3B0402",
"q  c #340903",
"w  c #3B0A03",
"e  c #3B0D0B",
"r  c #350C0A",
"t  c #2B110D",
"y  c #3C130C",
"u  c #34180F",
"i  c #200E15",
"p  c #2C0E12",
"a  c #220F1A",
"s  c #231216",
"d  c #2C1513",
"f  c #24141A",
"g  c #2A161C",
"h  c #25191D",
"j  c #2B1A1D",
"k  c #2B1A16",
"l  c #341413",
"z  c #3B1D16",
"x  c #331C1C",
"c  c #3A1A18",
"v  c #3D2216",
"b  c #3D241B",
"n  c #35221D",
"m  c #000321",
"M  c #041627",
"N  c #181625",
"B  c #1C0D21",
"V  c #231623",
"C  c #261B22",
"Z  c #2D1C22",
"A  c #291B29",
"S  c #311D23",
"D  c #1B242B",
"F  c #2D2124",
"G  c #2E2229",
"H  c #2B262B",
"J  c #322325",
"K  c #3B2523",
"L  c #33252A",
"P  c #352B2C",
"I  c #3A2C2C",
"U  c #372925",
"Y  c #39302F",
"T  c #342D31",
"R  c #3A2F30",
"E  c #343032",
"W  c #3C3232",
"Q  c #440401",
"!  c #440B04",
"~  c #480E07",
"^  c #560A03",
"/  c #4A120C",
"(  c #471609",
")  c #56170A",
"_  c #441E13",
"`  c #4C1912",
"'  c #451715",
"]  c #591C13",
"[  c #551B15",
"{  c #64190A",
"}  c #44241B",
"|  c #452A1C",
" . c #4A261A",
".. c #542315",
"X. c #5B241A",
"o. c #582919",
"O. c #5B2D15",
"+. c #793709",
"@. c #65281A",
"#. c #69371C",
"$. c #743717",
"%. c #7B2F00",
"&. c #452E23",
"*. c #462925",
"=. c #532A21",
"-. c #5C2B22",
";. c #532D29",
":. c #43322D",
">. c #4C342A",
",. c #5B3629",
"<. c #5B3B2C",
"1. c #573526",
"2. c #423534",
"3. c #453A39",
"4. c #483935",
"5. c #553C33",
"6. c #672C23",
"7. c #683827",
"8. c #763C27",
"9. c #643F33",
"0. c #792E20",
"q. c #7E431D",
"w. c #59473A",
"e. c #504432",
"r. c #6C442D",
"t. c #68422C",
"y. c #78472A",
"u. c #684635",
"i. c #744936",
"p. c #78513A",
"a. c #77522B",
"s. c #584F47",
"d. c #795A44",
"f. c #62574B",
"g. c #796356",
"h. c #756763",
"j. c #913C01",
"k. c #843A0A",
"l. c #8C3424",
"z. c #894313",
"x. c #944C19",
"c. c #9D5318",
"v. c #98480C",
"b. c #A54D09",
"n. c #A9571A",
"m. c #BA631D",
"M. c #874A28",
"N. c #934E23",
"B. c #8E532A",
"V. c #975628",
"C. c #874E33",
"Z. c #895538",
"A. c #975836",
"S. c #A75C27",
"D. c #AD5431",
"F. c #96613C",
"G. c #906337",
"H. c #AD6126",
"J. c #B4662A",
"K. c #B9642B",
"L. c #B86829",
"P. c #AB6633",
"I. c #A86738",
"U. c #BC6C33",
"Y. c #B66A37",
"T. c #BC743A",
"R. c #BD793A",
"E. c #C66D2A",
"W. c #C8732B",
"Q. c #C36E33",
"!. c #CD7632",
"~. c #CD7934",
"^. c #C4753C",
"/. c #C87738",
"(. c #D47C34",
"). c #D67B37",
"_. c #915A43",
"`. c #B45B42",
"'. c #95704F",
"]. c #B96E43",
"[. c #BB7745",
"{. c #A97252",
"}. c #AD764A",
"|. c #817D76",
" X c #A1796A",
".X c #C47C43",
"XX c #D2784C",
"oX c #E07F41",
"OX c #DC833C",
"+X c #D9823A",
"@X c #CB8038",
"#X c #E5863A",
"$X c #F28E32",
"%X c #BA8457",
"&X c #B58450",
"*X c #C9854A",
"=X c #D98747",
"-X c #C88757",
";X c #D58C53",
":X c #DB8A53",
">X c #DB9255",
",X c #D39156",
"<X c #E38C45",
"1X c #E48D4B",
"2X c #EB8E45",
"3X c #EB954C",
"4X c #F69B4B",
"5X c #E58E50",
"6X c #E49653",
"7X c #EE9C57",
"8X c #EA9C5D",
"9X c #E99757",
"0X c #F59B55",
"qX c #F6A35B",
"wX c #EEA15D",
"eX c #DA9866",
"rX c #CC9B76",
"tX c #E99962",
"yX c #EDA263",
"uX c #F3A364",
"iX c #FBAE6C",
"pX c #F9AA66",
"aX c #FAB06B",
"sX c #F6AB75",
"dX c #FAB578",
"fX c #ECAC76",
"gX c #A9A39E",
"hX c #ACBFB8",
"jX c #8D9B9B",
"kX c #CDAB94",
"lX c #F8BC87",
"zX c #EAB082",
"xX c #D6BFAD",
"cX c #FFC289",
"vX c #FFCD95",
"bX c #ECC8A5",
"nX c #D1C5BB",
"mX c #EDDCCC",
"MX c #FBFCF8",
"NX c #F3EBE4",
"BX c None",
/* pixels */
"BXBXBXBXBXBXBXBXBXBXBXBXBXBXBXBXBXBXBXBXBXBXBXBXBXBXBXBXBXBXBXBXBXBXBXBXBXBXBXBXBXBXBXBXBXBXBXBXBXBXBXBXBXBXBX",
"BXBXBXBXBXBXBXBXBXBXBXBXBXBXBXBXBXBXBXBXBXBXBXBXBXBXBXBXBXBXBXBXBXBXBXBXBXBXBXBXBXBXBXBXBXBXBXBXBXBXBXBXBXBXBX",
"BXBXBXBXBXBXBXBXBXBXBXBXBXBXBXBXBXBXBXBXBXBXBXBXBXBXBXBXBXBXBXBXBXBXBXBXBXBXBXBXBXBXBXBXBXBXBXBXBXBXBXBXBXBXBX",
"BXBXBXBXBXBXBXBXBXBXBXBXBXBXBXBXBXBXBXBXBXBXBXBXBXBXBXBXBXBXBXBXBXBXBXBXBXBXBXBXBXBXBXBXBXBXBXBXBXBXBXBXBXBXBX",
"BXBXBXBXBXBXBXBXBXBXBXBXBXBXBXBXBXBXBXBXBXBXBXBXBXBXBXBXBXBXBXBXBXBXBXBXBXBXBXBXBXBXBXBXBXBXBXBXBXBXBXBXBXBXBX",
"BXBXBXBXBXBXBXBXBXBXBXBXBXBXBXBXBXBXBXBXBXBXBXBXBXBXBXBXBXBXBXBXBXBXBXBXBXBXBXBXBXBXBXBXBXBXBXBXBXBXBXBXBXBXBX",
"BXBXBXBXBXBXBXBXBXBXBXBXBXBXBXBXBXBXBXBXBXBXBXBXBXBXBXBXBXBX{.G.BXBXBXBXBXBXBXBXBXBXBXBXBXBXBXBXBXBXBXBXBXBXBX",
"BXBXBXBXBXBXBXBXBXBXBXBXBXBXBXBXBXBXBXBXBXBXBXBXBXBXBXBXeX;X[.A.r.s.BXBXBXBXBXBXBXBXBXBXBXBXBXBXBXBXBXBXBXBXBX",
"BXBXBXBXBXBXBXBXBXBXBXBXBXBXBXBXBXBXBXBXBXBXBXBXBXBXBXtX9XoXXXA.y.<.s.f.BXBXBXBXBXBXBXBXBXBXBXBXBXBXBXBXBXBXBX",
"BXBXBXBXBXBXBXBXBXBXBXBXBXBXBXBXBXBXBXBXBXBXBXBXBXBXlX0X2XoX!.Q.B.=.>.s.s.BXBXBXBXBXBXBXBXBXBXBXBXBXBXBXBXBXBX",
"BXBXBXBXBXBXBXBXBXBXBXBXBXBXBXBXBXBXBXBXBXBXBXBXBXBXlXlXuX2XoX/.B.;.5.w.e.BXBXBXBXBXBXBXBXBXBXBXBXBXBXBXBXBXBX",
"BXBXBXBXBXBXBXBXBXBXBXBXBXBXBXBXBXBXBXBXBXBXBXBXBXdXlXlXtX0XoXQ.M.7.5.5.w.BXBXBXBXBXBXBXBXBXBXBXBXBXBXBXBXBXBX",
"BXBXBXBXBXBXBXBXBXBXBXBXBXBXBXBXBXBXBXBXBXBXBXBXBXsXdXuX2X5X5XK.q.1.1.>.w.BXBXBXBXBXBXBXBXBXBXBXBXBXBXBXBXBXBX",
"BXBXBXBXBXBXBXBXBXBXBXBXBXBXBXBXBXBXBXBXBXBXBXBXBXdXlXlX8X8X9XY.p.t.t.5.w.BXBXBXBXBXBXBXBXBXBXBXBXBXBXBXBXBXBX",
"BXBXBXBXBXBXBXBXBXBXBXBXBXBXBXBXBXBXBXBXBXBXBXBXBXrX-X{.:X:X].C.r.u.u.1.e.BXBXBXBXBXBXBXBXBXBXBXBXBXBXBXBXBXBX",
"BXBXBXBXBXBXBXBXBXBXBXBXBXBXBXBXBXBXBXBXBXBXBXBXM.,.c X M.C.= V s k u.d.u.9.BXBXBXBXBXBXBXBXBXBXBXBXBXBXBXBXBX",
"BXBXBXBXBXBXBXBXBXBXBXBXBXBXBXBXBXBXBXBXBXBXBXXXD.8./   [.].  } l   <.p.1.-.X.BXBXBXBXBXBXBXBXBXBXBXBXBXBXBXBX",
"BXBXBXBXBXBXBXBXBXBXBXBXBXBXBXBXBXBXBXBXBXBXBXBX:XK.D.N.sX].a =.=._ 9.a.1.[ -.BXBXBXBXBXBXBXBXBXBXBXBXBXBXBXBX",
"BXBXBXBXBXBXBXBXBXBXBXBXBXBXBXBXBXBXBXBXBXBXBXzXdX6X:X:XtX_.=.7.8.7.r.t.,.X.7.BXBXBXBXBXBXBXBXBXBXBXBXBXBXBXBX",
"BXBXBXBXBXBXBXBXBXBXBXBXBXBXBXBXBXBXBXBXBXBXBXBXfXdXaXyX].7.=.C.C.y.1.} 6.7.BXBXBXBXBXBXBXBXBXBXBXBXBXBXBXBXBX",
"BXBXBXBXBXBXBXBXBXBXBXBXBXBXBXBXBXBXBXBXBXBXBXBXBXiXaX*XI.C.*.y.Z.u.n } 9.BXBXBXBXBXBXBXBXBXBXBXBXBXBXBXBXBXBX",
"BXBXBXBXBXBXBXBXBXBXBXBXBXBXBXBXBXBXBXBXBXBXBXBXBX;X;X^.XX`.-.z i.,.7 9.i.BXBXBXBXBXBXBXBXBXBXBXBXBXBXBXBXBXBX",
"BXBXBXBXBXBXBXBXBXBXBXBXBXBXBXBXBXBXBXBXBXBXBXBXBXP.=X2XXXD.@.7.7.S p u.i.BXBXBXBXBXBXBXBXBXBXBXBXBXBXBXBXBXBX",
"BXBXBXBXBXBXBXBXBXBXBXBXBXBXBXBXBXBXBXBXBXBXBXBXBXBXN.5X5XM.y. ._ 3 c i.9.BXBXBXBXBXBXBXBXBXBXBXBXBXBXBXBXBXBX",
"BXBXBXBXBXBXBXBXBXBXBXBXBXBXBXBXBXBXBXBXBXBXBXBXBXBXBX_.&XP.a.% 7 p ,.p.7.BXBXBXBXBXBXBXBXBXBXBXBXBXBXBXBXBXBX",
"BXBXBXBXBXBXBXBXBXBXBXBXBXBXBXBXBXBXBXBXBXBXBXBXBXBXBXF.q.u     p 1.9.p.9.>.BXBXBXBXBXBXBXBXBXBXBXBXBXBXBXBXBX",
"BXBXBXBXBXBXBXBXBXBXBXBXBXBXBXBXBXBXBXBXBXBXBXBXBXBXBXiXwXR.I.B.#.O.i.u.j ; BXBXBXBXBXBXBXBXBXBXBXBXBXBXBXBXBX",
"BXBXBXBXBXBXBXBXBXBXBXBXBXBXBXBXBXBXBXBXBXBXBXBXBXBXBXdXqX@X<X8X*XY.r.#   : f J BXBXBXBXBXBXBXBXBXBXBXBXBXBXBX",
"BXBXBXBXBXBXBXBXBXBXBXBXBXBXBXBXBXBXBXBXBXBXBXBXBXBXBXBXwXOX7XuX1XA.O a J S A V Z BXBXBXBXBXBXBXBXBXBXBXBXBXBX",
"BXBXBXBXBXBXBXBXBXBXBXBXBXBXBXBXBXBXBXBXBXBXBXBXBXBXBXd.qX4XqX-Xr.= f S L I S V V A BXBXBXBXBXBXBXBXBXBXBXBXBX",
"BXBXBXBXBXBXBXBXBXBXBXBXBXBXBXBXBXBXBXBXBXBXBXBXBXBX:.W &X.XZ.h - j S L P P V V V B h BXBXBXBXBXBXBXBXBXBXBXBX",
"BXBXBXBXBXBXBXBXBXBXBXBXBXBXBXBXBXBXBXBXBXBXBXBXBX4.E E M m - Z U F A L P L Z A G < V F BXBXBXBXBXBXBXBXBXBXBX",
"BXBXBXBXBXBXBXBXBXBXBXBXBXBXBXBXBXBXBXBXBXBXBXBX4.E E E Y :.I L Z C H W T P L G Z A V , g BXBXBXBXBXBXBXBXBXBX",
"BXBXBXBXBXBXBXBXBXBXBXBXBXBXBXBXBXBXBXBXBXBXBXI E E E P W P P J J L W 3.W T L C V h , ; , BXBXBXBXBXBXBXBXBXBX",
"BXBXBXBXBXBXBXBXBXBXBXBXBXBXBXBXBXBXBXBXBXBX&.E Y E E Y P P L L P W 2.W W P Z C V < : : : f BXBXBXBXBXBXBXBXBX",
"BXBXBXBXBXBXBXBXBXBXBXBXBXBXBXBXBXBXBXBXBXBXY E W E Y E P P P I Y 2.3.W W P Z Z h : # : : , f BXBXBXBXBXBXBXBX",
"BXBXBXBXBXBXBXBXBXBXBXBXBXBXBXBXBXBXBXBXBXI Y W E Y W W L L I R W 2.3.4.I L Z Z h > # # # < g BXBXBXBXBXBXBXBX",
"BXBXBXBXBXBXBXBXBXBXBXBXBXBXBXBXBXBXBXBX1.P P W W W W P L P R W W 2.3.W P F Z Z h < # # o : a BXBXBXBXBXBXBXBX",
"BXBXBXBXBXBXBXBXBXBXBXBXBXBXBXBXBXBXBXBX&.P E W W 2.2.W P T R P I 2.3.I J F Z C h : # # o : a s BXBXBXBXBXBXBX",
"BXBXBXBXBXBXBXBXBXBXBXBXBXBXBXBXBXBXBXBXI W I P W 2.W R I P L L Z R 4.P Z S Z Z f : # o o o , Z BXBXBXBXBXBXBX",
"BXBXBXBXBXBXBXBXBXBXBXBXBXBXBXBXBXBXBXBXI T P P W 2.W R P T L L f J 2.U S Z Z g a : # o o . : g BXBXBXBXBXBXBX",
"BXBXBXBXBXBXBXBXBXBXBXBXBXBXBXBXBXBXBXBX2.P L Y W 2.2.W R T J C a s I L Z Z j j i # # o o # : i BXBXBXBXBXBXBX",
"BXBXBXBXBXBXBXBXBXBXBXBXBXBXBXBXBXBXBXBX:.P P Y W 4.2.W L L C s a & h J Z j j g > < > < # # : > BXBXBXBXBXBXBX",
"BXBXBXBXBXBXBXBXBXBXBXBXBXBXBXBXBXBXBXBXI H P E W 3.W P L Z g a > & # j U j Z C j j f : o # : > BXBXBXBXBXBXBX",
"BXBXBXBXBXBXBXBXBXBXBXBXBXBXBXBXBXBXBX>.P H I E 2.3.W L F j f i > & . 1 U j h X X = h n s 1 # $ BXBXBXBXBXBXBX",
"BXBXBXBXBXBXBXBXBXBXBXBXBXBXBXBXBXBXBX4.L U U I W 4.I S j f s i < # . O - - H e._._.F.C.7.4.w.K BXBXBXBXBXBXBX",
"BXBXBXBXBXBXBXBXBXBXBXBXBXBXBXBXBXBXBXU U U P I W W L Z h s > > $ &   &.{.%X-X,X-X*XJ.N.| &.<.BXBXBXBXBXBXBXBX",
"BXBXBXBXBXBXBXBXBXBXBXBXBXBXBXBXBXBXBXU U P P I I I J j i > > $ # d   p.>XyX>XR..XT.H.y.&.| | BXBXBXBXBXBXBXBX",
"BXBXBXBXBXBXBXBXBXBXBXBXBXBXBXBXBXBXBXBXI J J J J n h s > $ # # # d X y.OX>X[.R.^.Y.B.7.1.} | BXBXBXBXBXBXBXBX",
"BXBXBXBXBXBXBXBXBXBXBXBXBXBXBXBXBXBXBXBX1.j Z S J Z f > # + + + o k   y.<X*X*XR.T.V.q.q.#.z | BXBXBXBXBXBXBXBX",
"BXBXBXBXBXBXBXBXBXBXBXBXBXBXBXBXBXBXBXBXBXd.F R I L j g i > i i i l X r.@X~.*X^.Y.y.$.x.B.z | BXBXBXBXBXBXBXBX",
"BXBXBXBXBXBXBXBXBXBXBXBXBXBXBXBXBXBXBXBXBXd.H W R P U J S j g g g j < U ^.~.*XY.U.N.z.U.S.} | BXBXBXBXBXBXBXBX",
"BXBXBXBXBXBXBXBXBXBXBXBXBXBXBXBXBXBXBXBXBX5.T P R I L L S S C g f s d = P.W.R.T./.c.c.U.V.v | BXBXBXBXBXBXBXBX",
"BXBXBXBXBXBXBXBXBXBXBXBXBXBXBXBXBXBXBXBXBXP P I I L S S J A j d s a d = q.L.@X(.~.H.S.S.M.z | BXBXBXBXBXBXBXBX",
"BXBXBXBXBXBXBXBXBXBXBXBXBXBXBXBXBXBXBXBXBXI L I I L Z Z Z C f a s s V c X P.+XE.W.U.H.c.$.v | BXBXBXBXBXBXBXBX",
"BXBXBXBXBXBXBXBXBXBXBXBXBXBXBXBXBXBXBXBXa P I P L F j j Z g f a f S c = 1 /.+XL.~.@XH.x.O.z v BXBXBXBXBXBXBXBX",
"BXBXBXBXBXBXBXBXBXBXBXBXBXBXBXBXBXBXBXBXu.H L I S Z g g Z j s s S a = *.Y.OXE.E.W./.L.z.| x BXBXBXBXBXBXBXBXBX",
"BXBXBXBXBXBXBXBXBXBXBXBXBXBXBXBXBXBXBXBX'.- I J Z Z j f f f g x = j V.!.).(.!.!.L.L.U.q.z z BXBXBXBXBXBXBXBXBX",
"BXBXBXBXBXBXBXBXBXBXBXBXBXBXBXBXBXBXBXqXZ.m I J Z j g Z Z S h - y.Q.(.(.(.@X~.L.c.H.J.q.d v BXBXBXBXBXBXBXBXBX",
"BXBXBXBXBXBXBXBXBXBXBXBXBXBXcX-XBXBXpX4Xy.M I U S g S S C - S A.!.).).oX#X~.L.n.v.L.J.#.d v BXBXBXBXBXBXBXBXBX",
"BXBXBXBXBXBXBXBXBXBXBXBXBXBXiXcXzX-X5XQ.1.F W L 2 - - m b a.^.#X#X<XOX(.L.c.z.k.H.T.n.#.d v BXBXBXBXBXBXBXBXBX",
"BXBXBXBXBXBXBXBXBXBXBXBXBX-X!.rXvX7XI.7.b = M M ;.y.A.U.@X<X3X3X<XQ.c.%.{ %.x.n.+XP.+.#.k } BXBXBXBXBXBXBXBXBX",
"BXBXBXBXBXBXBXBXBXBXBXBXA.-X:XeXpXqXOX+.D r.P.Y.*X=X;X=X=X6X<XW.b.v.x.n.L.W.W.@X@Xy.#.-.u BXBXBXBXBXBXBXBXBXBX",
"BXBXBXBXBXBXBXBXBXBXBX]._.-XlXaX0X4X6XxXgX}.qX=X^.*X&X&X&X&XG.V.T.~.+X(.E.m.L.L.x... ._ BXBXBXBXBXBXBXBXBXBXBX",
"BXBXBXBXBXBXBXBXiXtXtX5XtXdXdXpXuX4XbXMXmX_.,X>X=X0X9X9X*X}.'.&X}.I.H.c.z.q.$.) y t BXBXBXBXBXBXBXBXBXBXBXBXBX",
"BXBXBXBXBXBXsXpXpX5X9X3X$XpXaXdXpXqXmXMXNXg.&XqX2X#X<X#X#X!.G.a.e.&.v b  .( d < k BXBXBXBXBXBXBXBXBXBXBXBXBXBX",
"BXBXBXBXBXBXBXBXBX}.fXfXzXtXsX0X3X$XbXMXnXi.^.~.n.b.b.v.v.v.z.%.#.@.} b u * * % > BXBXBXBXBXBXBXBXBXBXBXBXBXBX",
"BXBXBXBXBXBXBXBXBXxXcX6X:Xl.Q.oX#X$X9XrX'.t.O.) @.#.$.$.O.O..._ u 7 * + . O . o > k BXBXBXBXBXBXBXBXBXBXBXBXBX",
"BXBXBXBXBXBXBXBXBXBXrX1XeXXX).oX+X#X(.N.l     X O & % # +             . # # $ X 1 u.BXBXBXBXBXBXBXBXBXBXBXBXBX",
"BXBXBXBXBXBXBXBXBXBXBXBXsXqXD.^ J.Q.Z._.>.  6 & + . . + + f J U S j j < o # # & # 5.BXBXBXBXBXBXBXBXBXBXBXBXBX",
"BXBXBXBXBXBXBXBXBXBXBXBXkX X'. Xi.BXBXBX$ o #   # j U I :.2.2.:.2.L *.x   o . + $ . 3 BXBXBXBXBXBXBXBXBXBXBXBX",
"BXBXBXBXBXBXBXBXBXBXBXBXBXBXBXkXBXBXBXBXx   . f I 4.4.:.2.>.b c _ *.7 7 . . . + . 6 l BXBXBXBXBXBXBXBXBXBXBXBX",
"BXBXBXBXBXBXBXBXBXBXBXBXBXBXBXBXBXBXBXBX>.C F 3.4.&.;.' / ] Q Q [ ;.3 $ + . + + o @ 8 BXBXBXBXBXBXBXBXBXBXBXBX",
"BXBXBXBXBXBXBXBXBXBXBXBXBXBXBXBXBXBXBXBXg.S L *.y Q { X.^ 6.Q Q ` ' o @ + . . . . . + @ BXBXBXBXBXBXBXBXBXBXBX",
"BXBXBXBXBXBXBXBXBXBXBXBXBXBXBXBXBXBXBXhX|.4 [ ] 6.^ 0.] ] 6.Q Q ` c   @ + . . + + j J U BXBXBXBXBXBXBXBXBXBXBX",
"BXBXBXBXBXBXBXBXBXBXBXBXBXBXBXBXBXBXBXgXh.Q y.6.@.^ l.[ [ [ Q 0 ` z   + . . . + + k j x BXBXBXBXBXBXBXBXBXBXBX",
"BXBXBXBXBXBXBXBXBXBXBXBXBXBXBXBXBXBXBXjXd.~ o.Q ~ ] @.Q ] / Q 0 / *.X . & % + o .     x 6 BXBXBXBXBXBXBXBXBXBX",
"BXBXBXBXBXBXBXBXBXBXBXBXBXBXBXBXBXBXBXh.7.-.6.) ) ` ` Q [ e ! 0 ! c o . + + + + . . . s @ BXBXBXBXBXBXBXBXBXBX",
"BXBXBXBXBXBXBXBXBXBXBXBXBXBXBXBXBXBXBXu.6.-.X.~ ~ / e ! / q Q w 0 y % . .   . + + . + 6 6 BXBXBXBXBXBXBXBXBXBX",
"BXBXBXBXBXBXBXBXBXBXBXBXBXBXBXBXBXBXBX=.#.( ] ~ ! ' w ! ! 9 e 0 q r % . + . . . o . + $ 6 BXBXBXBXBXBXBXBXBXBX",
"BXBXBXBXBXBXBXBXBXBXBXBXBXBXBXBXBXBXBXo.@.....~ ~ y q ! ! r q q 3 0 $ . . . . . . . o . + BXBXBXBXBXBXBXBXBXBX",
"BXBXBXBXBXBXBXBXBXBXBXBXBXBXBXBXBXBXBX7.X.....! ~ e 9 ~ ! ! 4 4 @ 9 & . . o . . . . o + + BXBXBXBXBXBXBXBXBXBX",
"BXBXBXBXBXBXBXBXBXBXBXBXBXBXBXBXBXBXBX8...y ..~ w w q w e 0 4 8 @ 4 6 . % 1 % . . . . % BXBXBXBXBXBXBXBXBXBXBX",
"BXBXBXBXBXBXBXBXBXBXBXBXBXBXBXBXBXBXBX7.` r ..( w ~ 9 0 ! 0 4 3 @ @ + & o . .   . . . % BXBXBXBXBXBXBXBXBXBXBX",
"BXBXBXBXBXBXBXBXBXBXBXBXBXBXBXBXBXBXBX@._ q o.` q w 0 9 0 9 4 @ @ @ + & . . .     .   % BXBXBXBXBXBXBXBXBXBXBX",
"BXBXBXBXBXBXBXBXBXBXBXBXBXBXBXBXBXBXBXO.( 4 o...w w w 9 0 q 3 3 @ $ + . .   . .   . . % BXBXBXBXBXBXBXBXBXBXBX",
"BXBXBXBXBXBXBXBXBXBXBXBXBXBXBXBXBXBXBXBXr @ _ X.q w w w w q 4 @ @ + . . . . . . .   % % BXBXBXBXBXBXBXBXBXBXBX",
"BXBXBXBXBXBXBXBXBXBXBXBXBXBXBXBXBXBXBXBX5 7 d  .w q w 9 9 9 3 + @ + . . .   . . . % . 1 BXBXBXBXBXBXBXBXBXBXBX",
"BXBXBXBXBXBXBXBXBXBXBXBXBXBXBXBXBXBXBXBX5 8 6 } ( q q 5 q 4 @ + + o . .       . o & & BXBXBXBXBXBXBXBXBXBXBXBX",
"BXBXBXBXBXBXBXBXBXBXBXBXBXBXBXBXBXBXBXBX3 @ 3 u _ 4 q q q 4 @ + + + . +   .   .   % BXBXBXBXBXBXBXBXBXBXBXBXBX",
"BXBXBXBXBXBXBXBXBXBXBXBXBXBXBXBXBXBXBXBX3 3 @ t _ 5 q q q 4 + + . . o + .   . . . * BXBXBXBXBXBXBXBXBXBXBXBXBX",
"BXBXBXBXBXBXBXBXBXBXBXBXBXBXBXBXBXBXBXBX3 @ + @ u 5 5 4 4 3 + . + . . # .       . & BXBXBXBXBXBXBXBXBXBXBXBXBX",
"BXBXBXBXBXBXBXBXBXBXBXBXBXBXBXBXBXBXBXBX3 @ + + 6 5 3 5 4 3 . . . . . +         . * BXBXBXBXBXBXBXBXBXBXBXBXBX",
"BXBXBXBXBXBXBXBXBXBXBXBXBXBXBXBXBXBXBXBX3 @ + + 6 5 5 5 8 @ . . . . . + .   .   % s BXBXBXBXBXBXBXBXBXBXBXBXBX",
"BXBXBXBXBXBXBXBXBXBXBXBXBXBXBXBXBXBXBXBX@ @ + . * 5 5 3 @ + . . . . . .         . & BXBXBXBXBXBXBXBXBXBXBXBXBX",
"BXBXBXBXBXBXBXBXBXBXBXBXBXBXBXBXBXBXBXBX@ @ + + + 6 3 @ @ +   . . . . o .       . + BXBXBXBXBXBXBXBXBXBXBXBXBX",
"BXBXBXBXBXBXBXBXBXBXBXBXBXBXBXBXBXBXBXBX@ + + + + 6 5 @ @ + . . . . . . .       . + BXBXBXBXBXBXBXBXBXBXBXBXBX",
"BXBXBXBXBXBXBXBXBXBXBXBXBXBXBXBXBXBXBXBX6 @ + + . * * @ @ + . . + .   .           + BXBXBXBXBXBXBXBXBXBXBXBXBX"
};
