/* XPM */
static char *_f438acb2fbb4566b8f118929c178dee80OY860RbIhF6QJV[] = {
/* columns rows colors chars-per-pixel */
"65 65 209 2 ",
"   c None",
".  c #00003B",
"X  c #000047",
"o  c #00004C",
"O  c #000054",
"+  c #00005C",
"@  c #15125F",
"#  c #1E225D",
"$  c #000063",
"%  c #0C0B67",
"&  c #00006A",
"*  c #050B6A",
"=  c #0B0C6C",
"-  c #0D1169",
";  c #141367",
":  c #1A1B66",
">  c #13146C",
",  c #1C1C6C",
"<  c #1A176E",
"1  c #000172",
"2  c #000078",
"3  c #0D0E70",
"4  c #0F1171",
"5  c #131572",
"6  c #1C1D72",
"7  c #181976",
"8  c #150E6A",
"9  c #1D216D",
"0  c #1F2175",
"q  c #22226D",
"w  c #2A2C6D",
"e  c #272B6C",
"r  c #34346E",
"t  c #232473",
"y  c #2C2D73",
"u  c #2C2D7A",
"i  c #262875",
"p  c #302F70",
"a  c #343474",
"s  c #3C3C75",
"d  c #33337B",
"f  c #36397B",
"g  c #3B3C7B",
"h  c #383778",
"j  c #403F7A",
"k  c #3E417A",
"l  c #3E4072",
"z  c #424275",
"x  c #44447B",
"c  c #48477C",
"v  c #4B4C7D",
"b  c #4D4D74",
"n  c #525274",
"m  c #54537E",
"M  c #4B4D74",
"N  c #343582",
"B  c #3B3D83",
"V  c #373884",
"C  c #3A4286",
"Z  c #434484",
"A  c #454B83",
"S  c #4B4B84",
"D  c #45468B",
"F  c #4C4C8B",
"G  c #464989",
"H  c #504F80",
"J  c #4F5286",
"K  c #535383",
"L  c #575883",
"P  c #5B5B85",
"I  c #54558B",
"U  c #5C5C8B",
"Y  c #57588A",
"T  c #494A92",
"R  c #5C5C94",
"E  c #5D5D9C",
"W  c #555794",
"Q  c #605F89",
"!  c #5F6088",
"~  c #5F6092",
"^  c #616186",
"/  c #64648C",
"(  c #6A6A8E",
")  c #67688E",
"_  c #70708D",
"`  c #636492",
"'  c #6B6B92",
"]  c #61629A",
"[  c #6D6D9B",
"{  c #676896",
"}  c #706E93",
"|  c #706E9A",
" . c #6F7297",
".. c #737294",
"X. c #7A7A96",
"o. c #74749B",
"O. c #76789D",
"+. c #7C7B9B",
"@. c #787794",
"#. c #6D70A0",
"$. c #7676A3",
"%. c #7C7CA3",
"&. c #7A7AA7",
"*. c #807F9B",
"=. c #7F80B1",
"-. c #83829D",
";. c #89889F",
":. c #8484A2",
">. c #8887A5",
",. c #8788A3",
"<. c #8C8BA4",
"1. c #8484AA",
"2. c #8887AA",
"3. c #8C8CAB",
"4. c #8789A9",
"5. c #918EA7",
"6. c #8F91A8",
"7. c #9392A5",
"8. c #9493AB",
"9. c #9B9AAE",
"0. c #9997AB",
"q. c #8989B1",
"w. c #918FB4",
"e. c #8E90B2",
"r. c #9595B2",
"t. c #9C9BB3",
"y. c #9D9DBA",
"u. c #9896B2",
"i. c #A09FAF",
"p. c #A09FB8",
"a. c #9EA0B4",
"s. c #9EA0B9",
"d. c #A3A2B5",
"f. c #ABAAB7",
"g. c #A4A4BB",
"h. c #A9A7B9",
"j. c #ACABBD",
"k. c #A7A8BB",
"l. c #B0AFBE",
"z. c #B2B1BE",
"x. c #ABACC2",
"c. c #A7A6C2",
"v. c #B1AFC3",
"b. c #B4B4C3",
"n. c #B8B7C5",
"m. c #BBBBC5",
"M. c #B5B5C9",
"N. c #B7B8CA",
"B. c #BCBCCB",
"V. c #B9B7CA",
"C. c #BEBED1",
"Z. c #AEB0C4",
"A. c #C0BFCA",
"S. c #C1BFD1",
"D. c #BFC0CC",
"F. c #BFC0D0",
"G. c #C0C0C4",
"H. c #C3C3CD",
"J. c #C8C7CD",
"K. c #CAC9CF",
"L. c #C4C4D2",
"P. c #C8C6D1",
"I. c #CCCBD3",
"U. c #CDCEDA",
"Y. c #D1CFD5",
"T. c #D1CED8",
"R. c #D3D2D6",
"E. c #DBDAD5",
"W. c #D4D3DA",
"Q. c #D8D6DB",
"!. c #DBDBDD",
"~. c #D3D2CD",
"^. c #E0DEDE",
"/. c #E6E5DF",
"(. c #DEDDE2",
"). c #D7D6E0",
"_. c #E0DFE3",
"`. c #DFE0E0",
"'. c #E4E3E5",
"]. c #E8E7E5",
"[. c #ECEBE6",
"{. c #E5E4E8",
"}. c #E9E7EA",
"|. c #EBE9E9",
" X c #EDEBEA",
".X c #EEEDE9",
"XX c #EFEEEA",
"oX c #EFEEE9",
"OX c #EEECEA",
"+X c #E7E8EC",
"@X c #F0EFEA",
"#X c #F0EFED",
"$X c #F0EEEA",
"%X c #F1F0EB",
"&X c #F2F1EB",
"*X c #F3F2ED",
"=X c #F3F1EC",
"-X c #F5F3ED",
";X c #F5F3EE",
":X c #F5F4EE",
">X c #F6F5EF",
",X c #F4F2ED",
"<X c #F8F6EF",
"1X c #EFEEF1",
"2X c #F0EEF0",
"3X c #F6F4F1",
"4X c #F8F6F2",
"5X c #FBFAF5",
"6X c #FEFDF9",
/* pixels */
"XXXXXXXX-X4X4X>X>X>X:X:X:X>X:X:X>X-X-X:X*X*X4X*X*X>X&X&X&X&X&X&X&X&X&X&X%XXXXX$X-X$X$X$X*XXXXXXX$XXXXXXXXXXXXXXX[.$XXXXXXX*XXX    ",
"XXXXXX#X!.H.Y.W.Q.W.!.Q.Q.Q.Q.Q.Q.Q.!.!.`.`.R.(.!.(._.'._.'.'.'.'.'.}.].|.XXXX]._.'. X].|.|.XX[.XX X XXX$X&XXX#XXX*X#X*X$X$XXX    ",
"$X[.[.-XI.o + $ $ i t x q f d q , , a t y q t J d y a a a h h s j x c b L U U K a m L m U P P U Q U ) ) ( ( ( ' ' ..' +.{.-X X    ",
"XX$X X-XW.$ S f $ , > 7 $ Z I f W y + & % Y A g & + + f t u h + & $ & & t q $ $ $ * & & 6 + & & = $ + + $ + $ + + + O f {.-XXX    ",
"$XXX[.-XY.+ s h w & g q q + a y K 6 , < * c g 6 * 0 6 q > $ $ $ & & $ y , i u 6 + & a , + + & & 0 y a $ O + O + q , ; Z {.-XXX    ",
"$X[..X=X!.* & & J.Y.Q.'.b.$ + c.!.Y.(.x.+ + ' W.Q.W.U.r + ' I.K.J.I.Y $ v K.B.I.I.( O & k.H.H.H.g.- & ) m.z.V.t.; a & g '.-XXX    ",
"XX X[.&X'.Z ] f '.4X&X5XP.+ + L.5X-X6XH.+ $ -.5X-X<X|.S & <.5X-X<X2X{ 5 +.5X>X>X5Xr.& $ (.5X-X6X).0 $ -.5X-X5X(.5 f $ a {.-X X    ",
"$XXX$X$X_.W F h _.$X].*XH.O + B.=X].-XV.o + -.*X].$X_.] + 9.3X[.$X].' 6 L |.[.].#X3.V q !.&X].*XH.O + t.-X[.$X!.N t & f '.-XXX    ",
"$XXXXX&X'.` 1.K '.&X[.3Xm.$.6 A.>X[.>XM.S y ,.4X[.*X(.N.t.6.<X[.$X XQ d ^  XXX[.-X8.U i (.&X[.>XH.Z O m.>X[.$X_.t & $ a '.3XXX    ",
"XX$X[.&X!.=.B.z {.$X[.4XB.t.$ S.>X[.4Xf.$.S 2.3X].-XW.L.=.X.3X X$X].-.$...3X X[.3X5.I x (.&X[.>XH.L.s z.4X[.$X/.w & > f '.*XXX    ",
"XX[.[.>XW.9.N.v ].$X[.-XB.t.& L.>X].<Xf.$.+ 0.3X[.-XW.x._ 7.4X X$X'.j.k./ -X.X[.-X5.O.Z '.$X].>XD.W.m z.>X[.@X'.a $ , g '.-X X    ",
"$X$X[.-XW.g.c.) {.$X[.4Xb.r.' H.>X[.4Xg.2.+ t.3X[.-XW.j.0.;.4X[.&X'.v.d.P -X.X.X3X5.t.P '.&X X-XG.B.: b.>X[.=X'.a & $ x }.-XXX    ",
"XX$X[.-XW.t.c.[ ].$X[.4Xf.2.H H.4X].4Xk.y.+ d.3X[.-XW.g.-.:.<X[.&X!.n.d.^ :X.X[.3X<.c...'.#X[.4XJ.x.+ m.4X].&X{.s & $ m }.-X X    ",
"XX[. X>XP.g.x.I  X$X[.4Xb.w.> P.-X[.>Xd.p.+ h.4X[.-XT.c.n.,.<X[.=X`.V.d._ 4X[.[.3X<.w...`.&X].4XG.v.% B.>X[..X{.s $ $ P  X*XXX    ",
"XX$X[.>XP.-.c.R  XXX[.-XM.y.~ I.-X[.>Xd.M.a l.>X[.>XI.g.y.<.4X[.&X`.D.D.+.4X X[.3X8.q.Q {.$X].>Xm.F.P B.>X[.@X{.k & + ) #X=X X    ",
"XX$X[.<XH.t.B.K XX$X[.-Xx.L.,.P.4X].-X9.L.y b.3X[.>XI.d.u.9.<X].=X!.H.V.:.4X[.[.#X0.r.P '.&X[.<Xm.U.@.H.>X[.@X{.k $ + ' #X$XXX    ",
"XX X[.>XH.p.M.c  X#X X3Xy.I.8.I.-X X3X8.I.m V.>X[.-XI.v.g.g.4X].$X(.L.f.X.3X[.XX*Xt.t.~ {.&X[.>XG.U...H.3X[.$X{.s & + ..#X$X$X    ",
"$X.X X>XL.j.x.Y XX$X[.4X3.L.*.I.-X[.*X7.W.{ B.4X[.-XK.B.t.h.4X[.&X(.S.k.Q 3X[.[.3X8.k.+.].&X].>XH.W.+.B.4X[.$X{.z $ + @.*X$XXX    ",
"$X$X[.<XL.r.2.K XX X X3X<.N.[ R.-X[.*Xt.b.& P.>X[.4XP.U.k.h.4X[.&X!.B.j./ 3X[.XXXX8.V.( ].XX[.>XI.+X<.A.4X[.$X{.x & + @.*X&XXX    ",
"XX[.[.<XH.0.2.v  XXX[.3X<.L.+.W.*X[.3Xt.I.p K.>X[.-XI.W.9.l.>X[.-X!.g.p...3X[.[. X<.c.Y ].[.].-XV.I.<.V.>X].$X{.s * + @.#X$XXX    ",
"$XXX[.<XH.x.r.x  X#X[.3X3.P.Y Q.=X.X}.%.U.f I.>X[.4XH.L.k.f.4X[.*X(.3.r.:.3X|.XX4X+.%.o.XX-X*X5XB.( +.m.6X&XXX{.x + + +.*X$X$X    ",
"XX$X[.>XH.g.o.v  X$X X-X<.Y.` !.=X.X{...N.R I.>X[.>XH.3.e.n.>X[.*X_.<.t.3.3XXXXX'.' 2 d !.(.Q.].g.O + d.{.!.4X XS y $ +.*X#XXX    ",
"XX X X-XI.R I L |.$X X2X:.x.~ (.&X[.#X@.#.J R.*X].>XP.G 1 B.>X].*X_.' | 8.4X{.( ..>.t.7.b.D.M.H.n.h.b.<.,.-.R.(.< 1 o @.*X&XXX    ",
"$X.X X4XI.d I L  X$X$X#X<.2.h {.&X.X#X} T i Q.>XXX<XP.R f D.4X[.*X'.U V 0.6XK.' (.L.5X*X-XH.( 9.{.>X6XH.z.j.M.'.n.H.B.*.#X$XXX    ",
"$X$X[.-XI.& & a {.XXXXXX+.o.B _.@X.X].Y o + W.&X].3Xm.& 1 z.*X]. X(.h + :.5XH.M.2XS.#X.X$XH O X H.-X#XI.N.m.r.b.k.V.B.-.#X*X X    ",
"XX[. X<XI./ s.t.H.H.B.B.' ' O.M.z.n.n.O. .~ j.H.B.H.x.-.-.k.M.l.N.b.} O.e.B.t.b.#XL.=X.X4XV.+ { }.$X-XL.N.B.1 I + . . ..2X$XXX    ",
"$X.X[.-XP./ t.2.3.$.E o.( ..+. .{ { ] Q w.q.O.3.e.+.3.0.s.a.8.r.3.>.O.( ' W Q 0.}.L.=X.X X1.= 4 I.#X-Xm.v.B.B $.x w + } #X$X X    ",
"$X$X X-XU.+ $ s W.Q.W.W.m f f b.I.P.V.p + 5 b.I.I.W.d.o o 8.Q.R.Q.m.V 2 P W.b.:.}.A.$X#X(.O > X g.-X-Xb.I.z.H.'.W._.B.Q 3X=XXX    ",
"XX[.[.>XL.B { K 3X3X-X#X/ T {  X3X3X*XU N 6 '.4X&X5XJ.& & H.4X%X4X}.E 2 +.6X!.:.3XH.4X4X_.O.P K t.3X5Xb.W.z.X.,...X.o.( 1X&X X    ",
"XX$X[.4XH.:.' `  X X$X'.b R ' |.[.XX{.` E g (.$X].-Xm.1 V L.:X[.XXXX&.O -.>X X-.h.0.B.n.n.b.g.k.g.t.i.X.p.X.m.(., O o / 1X$XXX    ",
"$X$X[.-XL.r.F O. X[.$X'.n U ^ XX$X$X'.R [ Y _.&X[.>XV.1 d P.>X[.XX].( & ,.-XXX XH.# + & L.W.Q.'.9.$ O h. XA.^.-Xm w 4 Q  X-X X    ",
"XX[.[.>XH.&.{ ) XX X$X'./ [ / XX$X$X_.R U c '.$X[.&XB.D o K.4X[.&X}.P & <.4X].*X].M S v  X4X*X6Xm.z j v.5XE.~.J.K & 7 U  X&X$X    ",
"XXXX X>Xn.3.+._ *X[.&X^.o.#.{ XX[.*X!.U o.Y {. X[.#XC.] ; I.4X[.*X!.1.S 3.4X[.[.^.n d g _.#X].3Xf.o + B.>XE./.R.@ - + L XX&X X    ",
"XX%X[.<Xz.g.o.=.3X[.*X!.t.x.%.#X[.-XR._ x.U }.[. X3XM.1.G P.*X[.4XI.s.3.,.4X[.%XXX@.t.$._.-X X3Xh.Y / J.>X[.%X+Xb + & m |.-XXX    ",
"XX[. X>Xl.s.m o.3X].*XQ.h.L.2.1XXX-XW.:.L.Y XX$X[.<Xv.x.[ I.>X].4XH.y.<.<.4X[.XXXX:.+X3.Q.-X[.3Xi.B.<.m.>X[.oX X^ + & L  X-X X    ",
"XXXX X<Xh.3. .=.3X[.>XR.b.L.o.3X X-XR.&.V.' #X[.[.4Xj.j.` I.>X[.>XJ.d.g.8.4X[.$X X6.(.| (.#X[.4Xi.P.3.B.>X[.oX X^ + $ m ].-XXX    ",
"XXXX[.4Xl.a.o.3.3X[.-XW.N.L.&.3X[.-XR.$.V.( #X X[.4Xj.N.' L.>X[.-XW.j.V.5.4X[.$XXX<.{.} Q.-X X4X9.H.=.z.<X[.oXoX) & $ m  X-X X    ",
"XX[.[.<Xn.y.$.q.2X].4XI.B.B.%.3X.X-XW.%.M.m *XXX[.4Xh.L.o.M.>X[.-XW.j.x.7.4X[.$XXX<.(.K Q.-X[.4Xa.D.=.B.<X[.oXoX^ & $ K |.-XXX    ",
"XXXXXX>XF.F.8...3X[.>XI.B.k. .3X X-XI.r.M.P *X.X[.4Xi.B.' m.>X[.>XR.k.y.0.4X[.$XXX9.'.P W.3X].4X9.B.X.H.<X[.&X[.P + $ P XX$X X    ",
"XX$X[.-XL.I.>.2.3X[.4XI.B.F.$.#X[.-XI.p.r./ #X$X[.4Xk.c.%.(.&X[.-XR.k.9.7.4X[.$X|.h.2X) W.3X[.3X0.F.o.V.<X[.&X[.m & $ Y _.-XXX    ",
"XX.X X-XH.N.&.u.3X].4XP.B.I.o.3X[.4XP.h.j./ *XXX[.<Xf.x.O.(.&X X-XR.j.b.0.4X[.$X|.d.2XQ U.3X[.3Xy.L.o.j.4X[.$X XK + $ v '.-XXX    ",
" X$X[.>Xb.m.$.u.-X[.>XJ.b.P.' #X[.4XK.Z.8.) 3X X[.<Xh.s.P !.*X[.<XR.x.B.0.4X X$X|.k.+Xv W.-X[.3X8.L./ z.4X[.$X}.m & $ m XX&XXX    ",
"$X$X[.>XM.W.*.r.4X].-XJ.6.B.%.3X[.4XH.c.=.) #XXX[.>Xd.=.x Q.*X[.>XR.j.D.k.4X.X$X+Xg.+XK U.3X].4X;.H.) n.4X].XX X^ $ $ m |.*X X    ",
"$X[.[.4Xl.'.c.u.4X].-XJ.-.N.,.*X[.4Xi.b.7./ 3X[.oX>Xi.W x W.-X|.-XT.j.M.h.<X.X.X|.t.1X' I.4X[.3X<.A.z H.4X[.$X#X} + $ U  X&XXX    ",
"XX$X[.3Xl.{.g.t.4X[.>XJ.q.B.:.#X X4X;.M.9.( 4X[.[.4Xs.C w Q.-X].<XP.f.n.7.5X.X.X Xt.+XU P.4X[.3X<.L.U H.<X[. X*XX.+ $ / XX#X$X    ",
"$X$X.X2Xv.|.2.8.4X].>XH.8.C.*.XX[.4X<.B.f./ 4X[.[.:Xd.c w ).*X[.4Xm.g.B.t.4X.X.X X8. X' H.4X].3X-.P...D.<X[..X-X:.O & ) 1X*X X    ",
" X.X[.-Xx.+Xt.8.3X].4XB.r.N.-.3X[.4X:.b.d.) 3X[.[.4Xa.A y !.*X[.<XA.h.L.0.4X X$X X8.}./ H.3X].4X-.P./ H.<X[.XX*X<.+ + ' #X&XXX    ",
"$X.X[.3Xj.{.g.8.4X].4XL.:.y.0.4X[.4X:.B.-.' 3X[.[.4Xu.3.z !.*X[.-XR.k.<.7.4X X.X X5.{.v J.4X[.>X<.L.m H.<X[. X*X+.O $ ' 2X$XXX    ",
"$X$X[.*Xx.L.%.8.4X[.4XL.-.e.t.>X X3Xu.y.r X.*X X[.4X7.$.P Q.*X[.:X).%.J 9.4X[.&X X<.s.O P.3X].3Xr.Z.%.D.<X[.$X'.s & + ( 2X=X$X    ",
"[.$X[.*XB.y.E g.#X[.4XH.<.:.t.4X].3Xt.& o +.*XXX[.4Xt.1 S !.*X X:XQ., + d.>XXX[.2X( + o H.-X[.3Xr.y y H.4X[.-X(.* : + ' 2X$X$X    ",
"XX$X[.-XD.g.u.8.-X].4XL.2.r 0.<X].3Xy.B + ,.3X[. X*Xc.G s (.$X[.*XW.a . t.4X[.XX2XO.O O A.4X[.-X8.s $ K.-X[.*X(., , + ' 2X$X$X    ",
"XX$X[.3XV.g.h.+.3X[.-XL.2.w -.4X[.3Xy.e.+ 9.4X|. X3Xg.W x _.&X[.:XW.A 9 t.4X[.%X1XO.e & A.3X[.3X6.3., D.>X[.$X'.f 6 O } 2X&X X    ",
"XX[.[.>XB.t.2.+.4X[.4XL.1.@ u.>X[.3Xu.t.$ b.4X[.[.-X0.F s {.&X[.*XY.+.) 8.4X|.[.1XL ) ` z.4X[.-X<.3.% m.>X[.XX}.v $ + ' #X=X$X    ",
"$X$X[.4XB.& Z 1.*X].>XU.=.o k.>X[.3Xt.` O H.-X[.[.3X5.o h {.&X[.:XR.H q u.4X X[.XX` w + b.4X[.3X<.y.s m.<X[.XXXX/ + + ' 2X#XXX    ",
"XX.X[.<XM.$ d *.3X].>XH. .l i.>X].3Xt.& o H.-X X[.3X<.o g '.XX[.:XR.J o r.4X[.XX+X) $ o b.>X].4Xy.F + j.*XXX[.*XX.+ + } #X$X X    ",
"XX X[.<Xn.o , O.XX].*XJ.%.P i.>X].3Xr.& $ B.*X[.[.#X:.& h (.XX].&XY.& o u.3X].XX X/ ] = l.4X].-Xh.1 O j.3X].[.:X<.O $ } 2X$XXX    ",
"XXXX[.<XN.o $ @.4X3X6XW.` y j.6X=X6Xt.$.& H.6X>X4X5X2.D h |.4X>X5XQ.O O <.4X4X4X3Xo.#.+ b.6X=X6Xz.5 $ b.6X*X-X5X3.& $ } #X$X$X    ",
"XX$X[.>XV.& 6 P H.H.P.f.i + -.I.A.H.@.d $ 8.G.n.n.n./ & q h.V.z.m.9.& $ L j.f.f.h.x g $ o.h.d.f.+.; & ( 9.0.0.9.K < + } #X=X$X    ",
"XX X[.<Xb.O : & $ + + & q q s & + $ & $ $ & & O 1 & $ q > O + + O + Z > > $ O O O & & ; & O & O + & ; $ O O + O $ , + } #X.X$X    ",
"4X<X>X6Xn.+ Z u i & 7 y t t A f & 5 d u 6 y y = 9 y i u & & ; t d 7 d 9 < & * u f d g q t y q , & & & & i > t & 5 * O ..5X5X$X    ",
"$XXX[.4Xj.O v q % : ; ; : & $ : q a Z y h , y x : ; : % c K s ; : ; , r x K v s y Y U x L x ; x m P ! / ' ) ) ) ' ' Q 8.#X$X$X    ",
"                                                                                                                                  ",
"                                                                                                                                  ",
"                                                                                                                                  ",
"                                                                                                                                  "
};
