/* XPM */
static char *_2575d7babff490ff32998ef10be002aP73eOtBu6slopKQl[] = {
/* columns rows colors chars-per-pixel */
"60 60 13 1 ",
"  c None",
". c black",
"X c #681E1E",
"o c #7A3C3C",
"O c #32327A",
"+ c #C23232",
"@ c #AA7A3C",
"# c #F86844",
"$ c #BA9A32",
"% c #DA9271",
"& c #F8DA56",
"* c #71A2C2",
"= c #F8C292",
/* pixels */
"                                                            ",
"                                                            ",
"                 XXXXXXXXXXXXXXXXXXXXXXXX                   ",
"                 XXXXXXXXXXXXXXXXXXXXXXXX                   ",
"                 XXXXXXXXXXXXXXXXXXXXXXXX                   ",
"              XXX+++##################+++XXX                ",
"              XXX+++##################+++XXX                ",
"              XXX+++##################+++XXX                ",
"              XXX########################XXX                ",
"              XXX########################XXX                ",
"              XXX########################XXX                ",
"           XXX+++########################+++XXX             ",
"           XXX+++########################+++XXX             ",
"           XXX+++########################+++XXX             ",
"           XXX++++++##################++++++XXX             ",
"           XXX++++++##################++++++XXX             ",
"           XXX++++++##################++++++XXX             ",
"           ...++++++++++++++++++++++++++++++...             ",
"           ...++++++++++++++++++++++++++++++...             ",
"           ...++++++++++++++++++++++++++++++...             ",
"           ...XXX++++++++++++++++++++++++XXX...             ",
"           ...XXX++++++++++++++++++++++++XXX...             ",
"           ...XXX++++++++++++++++++++++++XXX...             ",
"        ...@@@oooXXX++++++......++++++XXXooo@@@...          ",
"        ...@@@oooXXX++++++......++++++XXXooo@@@...          ",
"        ...@@@oooXXX++++++......++++++XXXooo@@@...          ",
"        ...%%%...oooXXXXXXXXXXXXXXXXXXooo...%%%...          ",
"        ...%%%...oooXXXXXXXXXXXXXXXXXXooo...%%%...          ",
"        ...%%%...oooXXXXXXXXXXXXXXXXXXooo...%%%...          ",
"           ......oooooo@@@oooooo@@@oooooo......             ",
"           ......oooooo@@@oooooo@@@oooooo......             ",
"           ......oooooo@@@oooooo@@@oooooo......             ",
"              .........oooooooooooo.........                ",
"              .........oooooooooooo.........                ",
"              .........oooooooooooo.........                ",
"           ...OOOooo$$$............$$$ooo......             ",
"           ...OOOooo$$$............$$$ooo......             ",
"           ...OOOooo$$$............$$$ooo......             ",
"        ooo===OOO+++$$$++++++++++++$$$+++OOO===ooo          ",
"        ooo===OOO+++$$$++++++++++++$$$+++OOO===ooo          ",
"        ooo===OOO+++$$$++++++++++++$$$+++OOO===ooo          ",
"        ooo%%%ooo+++ooo&&&&&&&&&&&&ooo+++ooo%%%ooo          ",
"        ooo%%%ooo+++ooo&&&&&&&&&&&&ooo+++ooo%%%ooo          ",
"        ooo%%%ooo+++ooo&&&&&&&&&&&&ooo+++ooo%%%ooo          ",
"           ooo......$$$&&&&&&&&&&&&$$$......ooo             ",
"           ooo......$$$&&&&&&&&&&&&$$$......ooo             ",
"           ooo......$$$&&&&&&&&&&&&$$$......ooo             ",
"              OOO***$$$$$$$$$$$$$$$$$$***OOO                ",
"              OOO***$$$$$$$$$$$$$$$$$$***OOO                ",
"              OOO***$$$$$$$$$$$$$$$$$$***OOO                ",
"              ......***$$$oooooo$$$***......                ",
"              ......***$$$oooooo$$$***......                ",
"              ......***$$$oooooo$$$***......                ",
"              ...OOOOOO............OOOOOO...                ",
"              ...OOOOOO............OOOOOO...                ",
"              ...OOOOOO............OOOOOO...                ",
"                 ......            ......                   ",
"                 ......            ......                   ",
"                 ......            ......                   ",
"                                                            "
};
