/* XPM */
static char *_a3933534b1d4247f4af291afaea3aa8cOQEHoPV1HYym5jU[] = {
/* columns rows colors chars-per-pixel */
"60 60 15 1 ",
"  c None",
". c black",
"X c #681E1E",
"o c #7A3C3C",
"O c #32327A",
"+ c #C23232",
"@ c #AA7A3C",
"# c #F86844",
"$ c #BA9A32",
"% c #DA9271",
"& c #F8DA56",
"* c #71A2C2",
"= c #F8C292",
"- c #B2B2D2",
"; c #EAEAF8",
/* pixels */
"                                                            ",
"                                                            ",
"                  XXXXXXXXXXXXXXXXXXXXXXXX                  ",
"                  XXXXXXXXXXXXXXXXXXXXXXXX                  ",
"                  XXXXXXXXXXXXXXXXXXXXXXXX                  ",
"               XXX+++##################+++XXX               ",
"               XXX+++##################+++XXX               ",
"               XXX+++##################+++XXX               ",
"               XXX########################+++XXX            ",
"               XXX########################+++XXX            ",
"               XXX########################+++XXX            ",
"            XXX+++########################;;;XXXXXX         ",
"            XXX+++########################;;;XXXXXX         ",
"            XXX+++########################;;;XXXXXX         ",
"            XXX++++++##################+++;;;XXX;;;...      ",
"            XXX++++++##################+++;;;XXX;;;...      ",
"            XXX++++++##################+++;;;XXX;;;...      ",
"            XXX+++++++++++++++++++++++++++---+++;;;...      ",
"            XXX+++++++++++++++++++++++++++---+++;;;...      ",
"            XXX+++++++++++++++++++++++++++---+++;;;...      ",
"            ...XXX+++++++++++++++++++++++++++---;;;...      ",
"            ...XXX+++++++++++++++++++++++++++---;;;...      ",
"            ...XXX+++++++++++++++++++++++++++---;;;...      ",
"            ...oooXXXXXX+++++++++++++++---------...         ",
"            ...oooXXXXXX+++++++++++++++---------...         ",
"            ...oooXXXXXX+++++++++++++++---------...         ",
"            ...oooooooooXXXXXXXXXXXXXXXXXXOOOooo            ",
"            ...oooooooooXXXXXXXXXXXXXXXXXXOOOooo            ",
"            ...oooooooooXXXXXXXXXXXXXXXXXXOOOooo            ",
"               ...ooo%%%===@@@%%%%%%...%%%%%%ooo            ",
"               ...ooo%%%===@@@%%%%%%...%%%%%%ooo            ",
"               ...ooo%%%===@@@%%%%%%...%%%%%%ooo            ",
"                  ...%%%===%%%%%%===ooo===ooo               ",
"                  ...%%%===%%%%%%===ooo===ooo               ",
"                  ...%%%===%%%%%%===ooo===ooo               ",
"               ...$$$oooooo%%%%%%%%%%%%ooo                  ",
"               ...$$$oooooo%%%%%%%%%%%%ooo                  ",
"               ...$$$oooooo%%%%%%%%%%%%ooo                  ",
"            ...&&&&&&$$$XXX......ooooooXXX                  ",
"            ...&&&&&&$$$XXX......ooooooXXX                  ",
"            ...&&&&&&$$$XXX......ooooooXXX                  ",
"            ...ooo&&&$$$...OOOOOO...+++XXX                  ",
"            ...ooo&&&$$$...OOOOOO...+++XXX                  ",
"            ...ooo&&&$$$...OOOOOO...+++XXX                  ",
"            ...$$$oooXXX...OOOOOOXXX+++...                  ",
"            ...$$$oooXXX...OOOOOOXXX+++...                  ",
"            ...$$$oooXXX...OOOOOOXXX+++...                  ",
"               ...$$$......%%%%%%......                     ",
"               ...$$$......%%%%%%......                     ",
"               ...$$$......%%%%%%......                     ",
"                  ......***oooooo***...                     ",
"                  ......***oooooo***...                     ",
"                  ......***oooooo***...                     ",
"                        ...OOO+++OOO...                     ",
"                        ...OOO+++OOO...                     ",
"                        ...OOO+++OOO...                     ",
"                           .........                        ",
"                           .........                        ",
"                           .........                        ",
"                                                            "
};
