/* XPM */
static char *eb9888fec4e54c87cfd21e5820c489e3FezTBuzptd0Gkfsu[] = {
/* columns rows colors chars-per-pixel */
"60 60 15 1 ",
"  c None",
". c black",
"X c #681E1E",
"o c #7A3C3C",
"O c #32327A",
"+ c #C23232",
"@ c #AA7A3C",
"# c #F86844",
"$ c #BA9A32",
"% c #DA9271",
"& c #F8DA56",
"* c #71A2C2",
"= c #F8C292",
"- c #B2B2D2",
"; c #EAEAF8",
/* pixels */
"                                                            ",
"                                                            ",
"                    XXXXXXXXXXXXXXXXXXXXXXXX                ",
"                    XXXXXXXXXXXXXXXXXXXXXXXX                ",
"                    XXXXXXXXXXXXXXXXXXXXXXXX                ",
"                 XXX+++##################+++XXX             ",
"                 XXX+++##################+++XXX             ",
"                 XXX+++##################+++XXX             ",
"              XXX+++########################XXX             ",
"              XXX+++########################XXX             ",
"              XXX+++########################XXX             ",
"           XXXXXX;;;########################+++XXX          ",
"           XXXXXX;;;########################+++XXX          ",
"           XXXXXX;;;########################+++XXX          ",
"        ...;;;XXX;;;+++##################++++++XXX          ",
"        ...;;;XXX;;;+++##################++++++XXX          ",
"        ...;;;XXX;;;+++##################++++++XXX          ",
"        ...;;;+++---+++++++++++++++++++++++++++XXX          ",
"        ...;;;+++---+++++++++++++++++++++++++++XXX          ",
"        ...;;;+++---+++++++++++++++++++++++++++XXX          ",
"        ...;;;---+++++++++++++++++++++++++++XXX...          ",
"        ...;;;---+++++++++++++++++++++++++++XXX...          ",
"        ...;;;---+++++++++++++++++++++++++++XXX...          ",
"           ...---------+++++++++++++++XXXXXXooo...          ",
"           ...---------+++++++++++++++XXXXXXooo...          ",
"           ...---------+++++++++++++++XXXXXXooo...          ",
"              oooOOOXXXXXXXXXXXXXXXXXXooooooooo...          ",
"              oooOOOXXXXXXXXXXXXXXXXXXooooooooo...          ",
"              oooOOOXXXXXXXXXXXXXXXXXXooooooooo...          ",
"              ooo%%%%%%...%%%%%%@@@===%%%ooo...             ",
"              ooo%%%%%%...%%%%%%@@@===%%%ooo...             ",
"              ooo%%%%%%...%%%%%%@@@===%%%ooo...             ",
"                 ooo===ooo===%%%%%%===%%%...                ",
"                 ooo===ooo===%%%%%%===%%%...                ",
"                 ooo===ooo===%%%%%%===%%%...                ",
"                    ooo%%%%%%%%%%%%oooooo$$$...             ",
"                    ooo%%%%%%%%%%%%oooooo$$$...             ",
"                    ooo%%%%%%%%%%%%oooooo$$$...             ",
"                    XXXoooooo......XXX$$$&&&&&&...          ",
"                    XXXoooooo......XXX$$$&&&&&&...          ",
"                    XXXoooooo......XXX$$$&&&&&&...          ",
"                    XXX+++...OOOOOO...$$$&&&ooo...          ",
"                    XXX+++...OOOOOO...$$$&&&ooo...          ",
"                    XXX+++...OOOOOO...$$$&&&ooo...          ",
"                    ...+++XXXOOOOOO...XXXooo$$$...          ",
"                    ...+++XXXOOOOOO...XXXooo$$$...          ",
"                    ...+++XXXOOOOOO...XXXooo$$$...          ",
"                       ......%%%%%%......$$$...             ",
"                       ......%%%%%%......$$$...             ",
"                       ......%%%%%%......$$$...             ",
"                       ...***oooooo***......                ",
"                       ...***oooooo***......                ",
"                       ...***oooooo***......                ",
"                       ...OOO+++OOO...                      ",
"                       ...OOO+++OOO...                      ",
"                       ...OOO+++OOO...                      ",
"                          .........                         ",
"                          .........                         ",
"                          .........                         ",
"                                                            "
};
