/* XPM */
static char *bd7d0a39db52450dcdc098b0e5d1ccbaCaJwHm1Ltlt6nDM4[] = {
/* columns rows colors chars-per-pixel */
"60 60 4 1 ",
"  c white",
". c #CDDDFC",
"X c #9DB0B9",
"o c #5FCFE6",
/* pixels */
".     ..  .o  ..  o   o ..    ..  ..  ..  .o  ..  o   o   ..",
"       .  .                       .       .                .",
"                                                            ",
"                                                            ",
"                                                            ",
"                                                           o",
"                     X                               X      ",
"                    X X                             X X     ",
"                     X                               X      ",
"    .                               .                      o",
"  . .                             . .                       ",
"  . .                             . .                      .",
"  .                               .                       ..",
"                                                           .",
"                        .                               .   ",
"                       . .                             . .  ",
"                        .                               .   ",
"                                                            ",
" X                               X                          ",
"X X                             X X                         ",
" X                               X                         .",
"                                                           .",
"                                                            ",
"                            .                               ",
"                            ..                             o",
".                .          ..  .                .         o",
".                .           .X..                .          ",
"X                . .         X..X                . .        ",
"                 . .          XX                 . .        ",
"                   .                               .        ",
"                                                           .",
"                                                          ..",
"           .                               .               .",
"          . .                             . .              .",
"           .                               .               .",
"                                                            ",
"                                                            ",
"                                                           o",
"                     X                               X      ",
"                    X X                             X X     ",
"                     X                               X      ",
"    .                               .                      o",
"  . .                             . .                       ",
"  . .                             . .                       ",
"  .                               .                         ",
"                                                            ",
"                        .                               .   ",
"                       . .                             . .  ",
"                        .                               .   ",
"                                                           .",
" X                               X                        ..",
"X X                             X X                        .",
" X                               X                          ",
"                                                            ",
"                                                           .",
"                            .                               ",
"                            ..                             o",
".                .          ..  .                .         o",
".                .           .X..                .         .",
"X                . .         X..X                . .       ."
};
