/* XPM */
static char *_0befecc3b5945a6bcb8258fc7c9258b4C80s7w4lG9IIQY1[] = {
/* columns rows colors chars-per-pixel */
"60 49 236 2 ",
"   c #2C4902",
".  c #344E05",
"X  c #394C05",
"o  c #374B08",
"O  c #2E5608",
"+  c #355205",
"@  c #3B5205",
"#  c #35540C",
"$  c #3A540D",
"%  c #345A0D",
"&  c #39590E",
"*  c #355511",
"=  c #3A5511",
"-  c #365B12",
";  c #3A5912",
":  c #3B5D1B",
">  c #365B1A",
",  c #345612",
"<  c #33620E",
"1  c #356415",
"2  c #396315",
"3  c #3B621B",
"4  c #356D1B",
"5  c #396D1C",
"6  c #356517",
"7  c #36721D",
"8  c #3A731D",
"9  c #387A1B",
"0  c #2F610C",
"q  c #365D22",
"w  c #346424",
"e  c #396926",
"r  c #3B7524",
"t  c #367A23",
"y  c #3A7B25",
"u  c #377827",
"i  c #3B7A3E",
"p  c #3C7536",
"a  c #396C32",
"s  c #41691D",
"d  c #4A7C3D",
"f  c #46743B",
"g  c #587A3C",
"h  c #446D29",
"j  c #404C0A",
"k  c #3B7C43",
"l  c #497B41",
"z  c #2B871C",
"x  c #33891E",
"c  c #2E8A23",
"v  c #2D8825",
"b  c #358426",
"n  c #348B25",
"m  c #3A8C26",
"M  c #3A852C",
"N  c #358C2A",
"B  c #3A8D2C",
"V  c #378529",
"C  c #35912C",
"Z  c #3A922D",
"A  c #379529",
"S  c #368D32",
"D  c #3B8E32",
"F  c #3A893A",
"G  c #369433",
"H  c #3A9233",
"J  c #349933",
"K  c #35943A",
"L  c #3C943A",
"P  c #3C993B",
"I  c #399837",
"U  c #299130",
"Y  c #408828",
"T  c #418E33",
"R  c #42953B",
"E  c #43963A",
"W  c #09985D",
"Q  c #3C8849",
"!  c #3A9543",
"~  c #3C954C",
"^  c #3B9B4D",
"/  c #369744",
"(  c #3D8B56",
")  c #3A9D53",
"_  c #3B9D59",
"`  c #3A9859",
"'  c #3BA25B",
"]  c #38A157",
"[  c #0C9B61",
"{  c #129D64",
"}  c #1C9C67",
"|  c #3D9262",
" . c #3B9C68",
".. c #2F9F6E",
"X. c #16A36A",
"o. c #1BA16A",
"O. c #13A166",
"+. c #3CA364",
"@. c #3BA46C",
"#. c #3DA96C",
"$. c #36A26A",
"%. c #3DA373",
"&. c #3EAA72",
"*. c #3DA579",
"=. c #3DAC7B",
"-. c #33AE7A",
";. c #2DAA75",
":. c #4A8046",
">. c #449D4A",
",. c #469744",
"<. c #548C53",
"1. c #449858",
"2. c #4D8B4D",
"3. c #42A25B",
"4. c #4DA45B",
"5. c #4BA659",
"6. c #54A655",
"7. c #53A55A",
"8. c #53AA59",
"9. c #4AA44E",
"0. c #419766",
"q. c #5C9A66",
"w. c #429975",
"e. c #42A96D",
"r. c #46A667",
"t. c #57A866",
"y. c #41A573",
"u. c #41AA7B",
"i. c #44A87A",
"p. c #45B17A",
"a. c #5BB675",
"s. c #5EB67C",
"d. c #5CB87A",
"f. c #5EAA79",
"g. c #61A869",
"h. c #63B77B",
"j. c #67AF7A",
"k. c #37AE84",
"l. c #3CAD83",
"z. c #3DAE8A",
"x. c #3DB185",
"c. c #3DB28B",
"v. c #3CB78B",
"b. c #3EAF92",
"n. c #3EB592",
"m. c #3DB995",
"M. c #3EBB9A",
"N. c #42AE84",
"B. c #43AE8A",
"V. c #46AB82",
"C. c #43B285",
"Z. c #4AB187",
"A. c #42B38C",
"S. c #4AB48C",
"D. c #4EBA8D",
"F. c #44B88E",
"G. c #53BB8D",
"H. c #56B88B",
"J. c #43AD93",
"K. c #41B492",
"L. c #4CB492",
"P. c #42BB95",
"I. c #46B996",
"U. c #53BA93",
"Y. c #5BBC93",
"T. c #5DBD99",
"R. c #53B795",
"E. c #65BA8A",
"W. c #71BA83",
"Q. c #61BE9A",
"!. c #68BE95",
"~. c #74BF9B",
"^. c #71BD92",
"/. c #5BC194",
"(. c #5DC19A",
"). c #51C19E",
"_. c #4CC090",
"`. c #6BC18C",
"'. c #65C088",
"]. c #78C38E",
"[. c #64C296",
"{. c #6CC395",
"}. c #64C39B",
"|. c #6CC59C",
" X c #6DC99D",
".X c #67C99B",
"XX c #73C59D",
"oX c #78C59C",
"OX c #72C99D",
"+X c #6DC6A1",
"@X c #6ECAA2",
"#X c #6DCCA9",
"$X c #66C4A2",
"%X c #72C6A1",
"&X c #79C6A1",
"*X c #71C9A1",
"=X c #71CAA5",
"-X c #72CAA2",
";X c #79C9A3",
":X c #73CDA9",
">X c #79CBA9",
",X c #78C7AB",
"<X c #76D2AC",
"1X c #7BD2AB",
"2X c #78D3A6",
"3X c #78CFB1",
"4X c #7AD3B4",
"5X c #76DABD",
"6X c #6ED1AC",
"7X c #81B786",
"8X c #84C694",
"9X c #93CDA8",
"0X c #89D3A7",
"qX c #94D7A9",
"wX c #86D3B2",
"eX c #8BD9B1",
"rX c #91DAB3",
"tX c #95DBBA",
"yX c #9CDEBC",
"uX c #98DAB4",
"iX c #8DCFAB",
"pX c #A1DEBE",
"aX c #9EE1BD",
"sX c #9BE1B9",
"dX c #A2E1BD",
"fX c #9DDEC1",
"gX c #A3DEC2",
"hX c #9EE2C2",
"jX c #A4E3C4",
"kX c #A9E4C6",
"lX c #A5E4CB",
"zX c #AAE4CA",
"xX c #AAEBCC",
"cX c #ACECD2",
"vX c #A4E5D0",
"bX c #B4E9D3",
/* pixels */
"oX X X@X-XOXOXOX X=XT.l.x.k.Q.OXXXOX X@X+X-XXXOX#XA.n.n._ x n S  X:X:X-X@X XXX X%X=XQ.l.x.l.[.=X%XXXXXOXXX@X=X-X-XXXOXOX",
"~.@X X|.Q.$X}.|.OX-X|.S.D.S.|.OX X-X+X@X-X}.}.[.T.r.y.&.r.6.7.7.s.h.H.`.-XOX@X@X@XOX[.F.S.S.|.@X+X@X@X+X;X[.Q.Q.[.-XOXOX",
"&X X&X(.l.x.z.[.;X+XOX#X=X=X X X-X+X+XOX-XD.k.x.=.G D x h.cXzXsXL N N 5.-X%X-X@X XXX=X&X-X-XOXXXXX XXX X#XL.z.z.A.@X%X X",
"~.@X;X(.l.x.z.}.:X=X@X;X%X;X=X=X=X-XOXXX&XH.z.A.u.S N z h.kXpXyXR N N t.>X@X;XOX=X:X#X=X-X-X;X=X:X-X@X-X-XH.=.x.Z.@X-X-X",
"oX XXX(.C.B.L.Q.{.|.{.{.|.{.{.{.{.{.$X@X@XR.z.x.u.,.R Z 7XkXdXsXR Z n 4.#X.X$X{.^.^.{..X{..X!.^.E.{.@X-X;XG.c.A.D.%X@X-X",
"oX-X-X+X.X|.{.>.Z R L H R L L L G ^ Z.C.N.C.c.k.L.uXtXtXdXjXjXtXL C C ) Z.C.C.a : : s P L L 5 s ; d :X{.XX|.+X|.@X-X X-X",
"&X+X X&X;X>X2XR z v v c x v z c b U K.c.c.A.A.c.L.jXjXhXjXgXjXaXE B B ' m.c.F.-     0 n x n O .   h 4X1X2X6X&X-XOXOX@X%X",
"XX%X-X|.Y.Y./.t.5.6.6.6.6.6.6.6.6.t.%.&.&.&.&.@.p.fXpXyXyXtXtXrXL B C ~ w. .w.l g g 2.6.6.7.:.g g <.f.f.f.Y.+X[.[.XX@XXX",
"&X X#XD.W O.[ eXkXlXlXlXzXlXlXlXxX0XN Z D B B N R sXdXjXwX|.+X|.L C Z 9 # + & 9XcXjXkXlXlXlXlXlXcX8Xo $ # ` b.l.J.%X+X:X",
"&X@X;XG.[ O.{ wXzXjXjXyXhXyXpXfXkXiXN N N N Z N E dXgXjXwX|.@X|.H D I t j + # 9XlXjXpXdXaXhXhXjXxX8Xo = o 1.n.z.S.-XOX-X",
"&X X;XD.o.;.} 1XuXrXtXjXhXaXaXaXdX0XR E ,.H D S E aXyXaX0X+X-X.XT M N y q 2 3 9XhXsXaXdXaXgXqX9XuX7XO : & 0.K.=.F.@XXX-X",
"|.@X;X.X@XOX X-.o.O.C.jXpXgXyXgXgXdXsXyXkXg.N H E %X-X%X@X$X&XXX: ; & k K.x.u.$X#X X>XjXdXdXd # ; 5 Z F n #.m.x.S.#XXXXX",
"~.@X%XXX;X%X;Xo.W W -.bXkXkXjXjXjXjXvXjXcXt.z n H #X#X:X=X#X;XXX2 # $ k m.x.K.$X;X|.wXcXjXcXf . $ & G N N +.c.l.A.-X-X X",
"XX@X@X X@X X@Xx.;.-.C.;X;X2XwXtXrXrXrXrXtXj.>.7.5.a.h.s.E.(.(.!.: ; # k A.N.N.Q.[.(.|.].8X8Xd 1 4 r ) ~ ~ p.U.S.D.-X X X",
"XX XXX-XXX%XXX;X;X>X/.W { W G. X|.+X|.|.+X-X>X3X XS N x ) c.x.*.> ; + k K.x.x.z.l.x.+.v v N G H H ^ A.n.x.(.:X;X;X=XXX%X",
"^.@XXX X-X%X-X-X@X-X/.{ X.{ /.-X=X=X=X@X=X%X XXX{.Z B B +.n.A.V.6 # o l m.x.c.A.c.c.&.B H Z A C N ^ A.n.x.(.;X X@X+X-XOX",
"oX-XoX.X}.|.{.{.{.{.G.} X.{ H.{.{.`.`.{.`.|.%XOX{.H H N ] l.l.y.3 - % Q n.N.V.u.*.u._ B S B M N n Q *.y.%.T.=XXX XOXXX=X",
"XX.X>XD.{ X.X.X.X.X.o.o.o.O./ H H D L S n a.#X XE.L D H Z B N G D Z Z _ b.z.z.e $ ; ; ; ; ; ; ; ; ; q ; # g.:X|.XX|.XX=X",
",X:XwXD.W { W [ W [ [ { [ [ U x n N N D x d.4X:XOXN n b H G H A Z B N ) I.n.F.q . * o . . . . + X + . .   f.5X:X:X:X>X:X",
"h.a.h.Z.C.C.Z.C.C.C.C.x.C.S.t.1.4.>.Z H N 5.E.s.s.9.5.5.H y M y ~ ) ! ) | | ` k p p f l l d l d d d g d f q.g.g.f.s.s.d.",
"T S b 8.xXjXjXkXkXlXkXjXjXkXwX-X:X!.D Z Z N N n L OX=X2X<.o & & =.K.A.( X & = V.m.x.U.<X<X#X:X:X-X2X#X@X1Xf   * < C B V ",
"T B x g.cXjXlXgXdXdXdXjXgXlX1X X-X'.n m S H D S P -X,X4X<.X - > c.K.M.( X $ o y.n.l.D.;X-X-X-X%X-X-X6X:X4Xd . @ ; N D n ",
",./ H 8.uXqXqXtXhXhXhXtXtXsX>X X;X'./ K / D m C ! E.`..X<.+ - > 0.u.i.( > w w y.A.z.D.$X}.|.}.|.%X[.W.E.E.:.> 3 a K J U ",
"Z.x.S.+.F L F 0XjXaXrX&X@X-X%X+X-X$XN.l.c.) B G Z H D G 7 # ; & > & # k A.V.p.c.z.N.N.N.C.z.C.x.A. .; > % | K.l.N.B.A.Z.",
"Z.l.J.@.x x n qXcXzXfX%X;XOXOX;X;X$XB.B.K.^ x B B A G G r # ; $ # $ . k I.n.n.c.K.A.K.K.K.n.n.n.P.$.X @ X 0.M.K.c.x.z.J.",
"Y.L.U.p.~ ^ ] h.8X].]./.Q.T.[.T.(.Y.C.c.C.+.^ 1.~ b y y 5 $ ; ; 5 4 5 F y. .@.@.#.#. .| | | | | | Q e 5 1 ~ &.+.e.G.U.G.",
"XX@X>X(.B.A.A.K c z / x.z.l.l.k.z.N.c.x.C.A.K.K.*.* $ # # ; & ; D G H D C n n m N m 9 X + + + @ X 2 H G Z N N n ,.OXOX=X",
"oXOXOXT.z.x.c.P B B ~ K.c.C.A.c.A.A.c.n.K.n.c.m.l.& % & ; # & - N H H G G L H H H I b @ ; - & * * 3 H D D K B m ! ,X=X=X",
"=X@X-X(.C.F.L.^ K ! ) &.=.=.=.y.u.*.%.@. .%.y.w.0.: * > & * & - y M N B M b M M V B t * = = 2 1 < 7 Z H B G K K 1. XOX-X",
"XX@X;X@XXXXX-XZ.z.A.#.C D Z H S D M # ; = ; * & % & ; = & & % # & = * = ; - * ; & & % ; & - M H H S D H D e.K.z.S.@XOX X",
"oX XOXOX,X;X-XL.K.K.*.n n N N n m b X @ # $ & * * # & # # & - ; & & & & + * = o @ . + . X + n I H H N N n r.c.z.F.%X-X X",
"oX@X@X}.T.(.(.e.' +.' 5.4.7.4.7.7.1.i i k w $ ; ; 5 4 4 2 $ ; ; & $ ; 2 5 5 5 p k k k k i k y 9 8 M ] ) ^ Z.R.G.U.XXOX-X",
"~.@X;X/.=.l.x.K B c 1.2X<X2X:X:X:X#Xc.c._.k + & 1 D G P r # & & # ; % e P G J C.M.n.K.K.F.F.a + = a K.A.N.(.@XOX-X-XXX@X",
"~.$X=X(.z.n.A.! N n >.;X|.{.%XOX&X|.x.J.n.k + % & D N H 7 # # $ ; ; # 7 G B Z u.c.C.B.B.c.c.w @ o e F.A.c.}.;X-XOXOX-X+X",
"oX X;X/.*.=.=.1.E P 4.=X-X@X|.}. XQ.V.u.x.i % : 6 D Z H t - 2 ; % ; $ 5 J B G #.=.=.=.=.l.=.p w s p *.*.%.Y.+X$X|.@X%XOX",
"XX}.;Xa.N Z A E.:X XXX%X XOXS.l.c.&.N B S H Z J H G H H H G Z S : ; # 7 G B B S Z S Z N B N #.c.J. .X $ + | n.l.Z.OX+X=X",
";X-X1Xd.m H N {.4X4X<X<X<X4X).n.P.=.J J Z B m m B m B n B n B B # $ . 4 P G H G J G I Z L G p.M.M.%.+ ; #  .I.c.L.,X;X:X",
"!./.$Xe.N D N q.q.q.q.q.q.q.0.( | Q y y r ! _ ) ^ ) ) ) ) ^ ) ^ 7 5 4 r y t t t t t t t y t Q ( 1.Q # ; $ ( #.' e.(.(.T.",
"Z.k.z.+.C H H - O + . . . . @ @ $ + @ ; O ( P.A.n.n.K.n.L.c.K.x.L H I t + $ & $ & & $ $ = X = # # * & ; @ b Z n H N.l.z.",
"S.z.K.+.n S B 2 @ ; $ $ & & & = = # = * o | I.K.A.A.N.N.c.n.K.x.K Z I t $ # = = $ # = $ ; ; $ $ @ = + * $ y L m ! A.v.c.",
"Z.x.J.&.! / ! r - 6 2 2 2 6 3 2 2 1 2 6 & Q *. .%.B.B.N.=.y.*.#.M b M t 1 2 2 2 - 2 2 1 2 3 1 2 1 1 2 2 2 b C N L B.z.A.",
"C.x.A.A.C.c.c.! H H I G G H H G G H H C A 7 # @ w u.z.n.' n H B & $ # 4 I H H H H H G G H G G H H H H G L H Z B ! N.c.z.",
"V.l.l.k.z.z.B.K B C B B N B Z H H H H F I 5 o + : Z.n.K.' C H H - * # 5 G C D Z H H D B B N Z Z C C n n N N n n K x.A.l.",
"T.R.U.G.Y.G./.3.) ) _ ) _ _ K B B D H Z G b e 7 u ( ( ( F t r 8 8 5 4 y Z Z D D D N L _ _ _ _ _ ) ' t.t.7.t.t.7.t.U.U.H.",
"XX;X;X-X=X&X,XL.J.K.n.A.A.K.~ Z H H D N D H Z L B o o $ $ # # * D I I H H H H H H Z ^ K.A.K.A.K.c.L.<X:X:X=X:X:X3X;X=X=X",
"&X+X%X XXX%X@XZ.l.x.x.z.N.A.! n N N N N N N N N b # $ # & ; * = b N N N N N N n n N ! C.z.N.l.C.l.S.:X X X X XXX+X@X+X-X",
"XX@X-X X-X@X.XU.Z.S.Z.B.A.c.3.>.>.>.>.>.>.>.>.>.,.u e a 3 6 1 3 >.>.>.>.>.>.>.>.>.>.3.c.x.z.S.H.Z.U.-X%X%X%X X%XXX X-X-X",
"~.@X-X|. X%X=X-X-X:X}.N.c.x.[.;X@X-X-X;X;X;X=X;X$XZ.c.K.' A H L {.-X-XOX-X-X:X;X-X=X[.z.c.A.}.=X-X@X%X X@X%X-X-X+X-X%X X",
"~.@X%X@X-X;X-XXXXX-X(.N.x.l.[.-X%X-X+X-X+X-X%X;X+Xz.c.K.] b N K OX;XOXOX@X-X@XOX-X-XT.l.c.l.[.;X X XXX-X X%X-X@X-X XXX-X"
};
