/* XPM */
static char *_341d48eabe64300f68884e1e960409cvKB6bqDYZsXlkzU4[] = {
/* columns rows colors chars-per-pixel */
"60 49 219 2 ",
"   c #575A3C",
".  c #5A5D3E",
"X  c #555837",
"o  c #5D613E",
"O  c #61643F",
"+  c #575A42",
"@  c #5B5E43",
"#  c #5C5E49",
"$  c #5B5B52",
"%  c #605F4C",
"&  c #5D6143",
"*  c #5E614B",
"=  c #576047",
"-  c #5F6050",
";  c #626444",
":  c #62644C",
">  c #66694A",
",  c #6A6C4C",
"<  c #676A46",
"1  c #6D714D",
"2  c #6F7547",
"3  c #757347",
"4  c #74744C",
"5  c #767A4C",
"6  c #7A794E",
"7  c #646554",
"8  c #666955",
"9  c #6B6C52",
"0  c #646559",
"q  c #6A695C",
"w  c #6E7353",
"e  c #6E715A",
"r  c #727553",
"t  c #757955",
"y  c #7A7C55",
"u  c #75775A",
"i  c #767A5A",
"p  c #7B7C5B",
"a  c #797658",
"s  c #6B6C62",
"d  c #6D6D6A",
"f  c #676760",
"g  c #756F6F",
"h  c #6F7164",
"j  c #7A7C63",
"k  c #73726C",
"l  c #797A67",
"z  c #757473",
"x  c #76757C",
"c  c #7A767F",
"v  c #7B7A7D",
"b  c #787876",
"n  c #706F73",
"m  c #827E5E",
"M  c #817F65",
"N  c #847E7D",
"B  c #7D825D",
"V  c #7E8155",
"C  c #7E8163",
"Z  c #7F816A",
"A  c #82845D",
"S  c #8C8C5B",
"D  c #8C8958",
"F  c #928D5D",
"G  c #99975D",
"H  c #80814B",
"J  c #828464",
"K  c #8D8A65",
"L  c #83856A",
"P  c #86896C",
"I  c #898B69",
"U  c #928C64",
"Y  c #9C9B64",
"T  c #979566",
"R  c #858672",
"E  c #878972",
"W  c #8C8D75",
"Q  c #8C8D7A",
"!  c #89847B",
"~  c #928F7E",
"^  c #8F9179",
"/  c #92947D",
"(  c #9D9779",
")  c #A29C6F",
"_  c #A9A56D",
"`  c #BEAE69",
"'  c #AAA47D",
"]  c #A6A175",
"[  c #B5AB7A",
"{  c #BBB379",
"}  c #C7B467",
"|  c #C5BD7D",
" . c #C8B974",
".. c #D1B766",
"X. c #C4C17B",
"o. c #CAC27D",
"O. c #CDC67C",
"+. c #D5C274",
"@. c #D2C47D",
"#. c #DACC7E",
"$. c #D6CA7C",
"%. c #DCD37E",
"&. c #DAD279",
"*. c #767483",
"=. c #797683",
"-. c #7C7A83",
";. c #7A758A",
":. c #7D7A8A",
">. c #767981",
",. c #837C82",
"<. c #857D87",
"1. c #848182",
"2. c #888880",
"3. c #978E83",
"4. c #8F9182",
"5. c #949582",
"6. c #969984",
"7. c #999B85",
"8. c #949389",
"9. c #9B9D8A",
"0. c #9A9787",
"q. c #9D9F91",
"w. c #A29E85",
"e. c #9EA18C",
"r. c #9FA092",
"t. c #A3A38D",
"y. c #A9A787",
"u. c #B5AA82",
"i. c #BBB58A",
"p. c #A4A593",
"a. c #A6A895",
"s. c #A9AB93",
"d. c #ADAD9A",
"f. c #B2B49D",
"g. c #BCBD9C",
"h. c #B7B698",
"j. c #AFB09D",
"k. c #B4B5A3",
"l. c #B8B7A4",
"z. c #B7B9A5",
"x. c #BABAA5",
"c. c #B7BBAA",
"v. c #BCBCAB",
"b. c #B7B6AC",
"n. c #BEBEB1",
"m. c #B8B6B2",
"M. c #C9BF83",
"N. c #C6BD86",
"B. c #C1BE98",
"V. c #C1BFAA",
"C. c #C4BEA6",
"Z. c #C1BDB3",
"A. c #BEC0AD",
"S. c #BFC0B1",
"D. c #CAC382",
"F. c #CAC289",
"G. c #D1C683",
"H. c #D5CC84",
"J. c #DCCE84",
"K. c #DDCE8A",
"L. c #D4C98B",
"P. c #DDD184",
"I. c #DDD28A",
"U. c #D7D089",
"Y. c #C5C29D",
"T. c #C8C59B",
"R. c #C9C694",
"E. c #D4CA93",
"W. c #DCD497",
"Q. c #E1CF85",
"!. c #E4CE8F",
"~. c #E2D384",
"^. c #E2D48B",
"/. c #E4D88C",
"(. c #E2D492",
"). c #E5DB94",
"_. c #E8DE98",
"`. c #EBE39A",
"'. c #C1C2AF",
"]. c #C6C8AD",
"[. c #C6C2A3",
"{. c #C4C5B3",
"}. c #C9CAB5",
"|. c #CCCDBA",
" X c #C6C7B7",
".X c #CFD0BC",
"XX c #D2D3BD",
"oX c #ECE5A2",
"OX c #ECE9A5",
"+X c #F3ECA8",
"@X c #F7F2AD",
"#X c #CDCCC2",
"$X c #D4D5C3",
"%X c #D7D8C5",
"&X c #DADAC6",
"*X c #DDDECC",
"=X c #D8D7C8",
"-X c #DDDED1",
";X c #E0DECC",
":X c #E1DED2",
">X c #DFE0CE",
",X c #DFE0D1",
"<X c #E0E1CE",
"1X c #E6E8CE",
"2X c #E2E3D2",
"3X c #E6E8D4",
"4X c #E5E5DA",
"5X c #E7E9DB",
"6X c #EAECDD",
"7X c #E8E7D9",
"8X c #EDF0DF",
"9X c #EDEEE3",
"0X c #EFF1E4",
"qX c #EFF1E8",
"wX c #F1F2E6",
"eX c #F3F4EA",
"rX c #F7F8EC",
"tX c #F8F9EB",
"yX c #FAF8F5",
/* pixels */
"J.J.J.J.P.J.J.P.P.P.I.P.I.J.P.P.P.P.P.P.I.R.T.R.R.R.Y.[.B.[.[.Y._ Y Y Y Y Y G Y G G _ H.P.I.I.J.I.Q.J.J.J.J.Q.J.P.J.P.J.",
"Q.J.I.H.J.~.Q.~.I.P.I.K.^.J.~.P.P.I.J.P.J.T.v.b.g.k.v.v.x.x.V.f.Z r r i a a 6 t t r F U.~.P.P.%.%.J.%.~.^.J.~.P.H.P.P.J.",
"Q.J.K.I.P.J.#.~.I.P.P.P.P.H.H.J.H.E.K.K.L.[.{.A.A.v.{.n.n.n.v.k.I B B B y y m B B B T G.P.#.&.P.K.J.&.&.I.P.P.J.P.P.J.P.",
"^.I.).`.`./.Q.J.P.+.X. . .Y F S T u.Y.B.T.&X5X3X<X4X4X4X4X5X5X:Xk.s.d.p./ ^ W ^ e.f.e.T K U ( h.C.C.T.U.I.H.P.P.J.P.P.P.",
"I.P.`.+X+X).J.J.P. .} }  .F t r B p.A.z.A.*XtXwXrXeXeXeXeXrXrXqX|.c.S.c.q.4.5.e.z.A.s.B 5 w I h.c.m.V.E.I.~.%.P.P.P.P.P.",
"J.#.).@XOX/.J.J.%. .} ..} D r 5 V t.v.l.v.:XtX8XeXeXqXeXwXeXeX9XS.z.A.k.e.5.4.5.d.c.p.V 5 2 A f.b.b.B.I.~.~.^.P.P.P.J.J.",
"I.I._.oXoX).P.P.I.X.}  .{ G A J I h.{.'. X4XwXwXqXqXeXeXwXeXeX5XS.A.A.f.6./ 8.7.c.|.z./ / W e.v. XV.[.| O.N.X.#.P.%.K.I.",
"OXOX_.^.K.I.P.%.#.g.z.b.n.m.b.z.z.*X0X6X9X0XeXwXeXeX0XwXeXwXwX9XS.z.A.f.e.e.8.q.=X0X6X8X8X3X3X>X*X;X|.S H A G @.^.P.K.oX",
"@X@X_.J.Q.^.P.I.P.Y.f.g.z.z.A.k.A.,XwXeXeXrXqXqXeXeXqXeXeXeXrX9X Xv.A.z.7./ / 7.>XrXwXeXeXtXwX2X*X4X#XJ 4 a S G.P.J.(.+X",
"oXoX^.$.H.| { { { l.A.A.x.}..X#X$X5XeXeXeXqXeXqX9X9X9X9X4X-X4X-Xb.d.j.j.k.k.j.A.4XrXwX9X9X9X5X-X*X>X.XA 6 p S G.^.~.(._.",
"P.!.@.} ` F t V A s.v.l.Z.:XeXqXqXqXeXeXqXqXeX0X,X>X>X=X{.b.v.k.9.5.8.p.-XeXeXwXwXqX9X4X*X*X2X2X<X1X.XA 4 a S D.^.~.K.K.",
"J.^. .} ` D t V p s.v.z.Z.:XeXeXrXqXqXeXqXeX0X9X4X>X>X*X'.x.v.z.7.5.5.9.-XrXqXqXrX0X6X2X<X*X<X*X>X1X|.J y j S G.~.#.Q.J.",
"^.Q. ...} D V w A y.v.b.b.2XeXwXeXqXqXqXeXeXrXqX4X,X<X%X'.l.x.k.9.5.5.r.=XeX9XeX0XwX8X>X*X2X>X>X>X3X].D 3 y U O.I.J.^.#.",
"^.^. .' ' ' ( 6.w.}.-X=X=X9XqXeXeX9X,X9X5X9XeX9X,X>X>X*X$X|.|.|.'.v.b. X5XeXwXeX0XeX8X>X>X*X>X>X*X2XXXy.7.( y.G.K.Q./.I.",
"%.I.i.3.0.k.A.A.Z.4XrXeXwXeXqXeXqX,X,X,X2X9XqX9X4X>X>X2X2X<X2X2X2X2X2X2XwXwXeXeXeXrX0X>X*X2X2X>X:X<X&X'.V.V.T.K.^.~.I.K.",
"%.I.h.4.0.k.z.z.Z.4XeXeXwXwXeXeXqX5X,X,X2X5XeX0X3X>X>X<X2X*X2X2X>X;X<X<X8XtX0X0XqXeX6X>X2X>X>X2X>X<XXX'.m.V.B.E.K.U.P.I.",
"J.J.[ C W |.5X,X,X9XeXeX0X5X3X3X5X2X>X<X<X6XeXwX3X;X<X2X*X*X2X2X<X>X<X>X2X3X7X7X4X5X;X|.{.].{.].{. XA.A.x.v.x.' y.u.u.H.",
"!.J._ 5 J %XyXrXwXeXwXeXwX4X*X>X2X<X;X<X2X9XeXwX1X;X<X<X;X,X2X>X>X*X<X<X>X*X*X*X*X;XXXV.z.b.c.b.z.c.g.g.g.A.f.9.8.8.w.L.",
"Q.Q.] t L XXqXqX9XwX0XwX9X4X>X>X>X>X2X*X2X5XwX6X:X;X:X>X2X>X<X<X*X*X*X*X2X,X>X*X>X2X=X{.A.A.v.v.v.z.v.A.A.'.f.6.Q 5.( K.",
"&.~._ 5 A }.5X3X2X2X2X3X2X>X>X>X>X>X>X>X>X2X2X2X;X;X;X*X*X*X2X*X{.A.A.{.%X*X>X3X<X2X<X=X*X=X$XA.v.v.A.%X%X>X{.i : * a G.",
"%.^.' r A ].3X>X>X<X<X<X<X>X<X>X*X2X<X*X2X*X*X*X>X<X<X*X<X*X2X*XA.z.z.v.%X>X*X,X*X*X2X2X>X2X&Xv.v.v.S.<X>X1X].1 + + 1 M.",
"~.!.] 6 A ].>X>X>X<X>X>X>X*X>X>X2X*X*X2X2X2X>X*X<X<X2X<X2X<X2X*X{.A.v.{.*X<X,X2X2X<X>X<X2X3X%Xx.c.z.A.>X<X3X'.1 @ @ 4 M.",
"| F.Y 3 J ].2X,X>X<X>X>X>X*X*X2X*X2X*X*X*X*X*X>X>X>X2X*X>X>X<X&Xb.k.j.z.|.%X$X$X>X2X*X%X&X%X.X X{.{.}.$X&X&XV.9 # + 4 D.",
"=.,.l i J ].2X<X<X>X>X<X2X>X<X*X<X*X<X<X>X2X*X2X<X<X<X2X>X<X2X=Xp.5.9.7.k.A.v.A.$X<X%X{.v.b. X>X>X*X%XS.b.{.s.9 # # 4 | ",
";.v l i L }.1X>X*X>X,X2X>X<X>X*X,X>X>X2X2X2X2X2X>X>X>X2X>X>X>X%Xp.~ 5.6.f.A.c.v.%X4X%Xv.k.z.{.*X2X3X>XA.z.A.t., # + 4 D.",
"1.2.Z r C ].2X,X>X<X<X>X*X>X<X>X>X%X.X$X$X|.{. XXX>X<X2X>X>X2X%Xj.e.t.p.s.d.a.f.}.%X|.}. X X|.|.|..X|.'.g.A.y.> + + 4 | ",
"8.5.P t J ].3X>X<X<X>X>X*X>X2X*X=X Xv.v.k.9.Q p.%X<X*X>X>X>X>X=XA.v.A.z.e.5.5.e.k.z. X*X2X2X$XS.v.c.b.b.v.v.a., # # 4 o.",
"6.6.P i L ].3X,X<X>X>X>X2X2X<X2X>X Xx.A.b.p.4.w.XX3X>X2X2X<X2X>XA.v.v.v.e./ 5.7.k.z.{.*X2X3X*Xv.v.S.A.v.S.A.a.8 # + 6 | ",
"j i i i B s.z.k.v.%X<X<X2X<X>X>X*Xb.a.s.p.k.V.v.{..X|..X|. X|. Xd.p.p.t.l j l l 9.p.a.b.k.z.d.Q R E L P L P C : + + 4 D.",
"  . , y y W 5.~ 7..X<X&X>X2X>X2X&Xd.5.5.5.}.7X;X{.x.z.b.z.z.v.z.9.5.5.Q 9   + * L 5./ 5.4.5.R @   .       .   & = + 4 D.",
"@ @ , y y ^ 5.5.t..X<X>X<X2X,X2X*Xd.5.5.0.}.7X*XV.b.x.v.v.v.v.k.e.6.6.^ ,   @ * E 6.5.6.6.9.E * + & @ @ @ @ & & *   3 D.",
"@ @ , y m ^ 5.5.7.}.>X&X*X*X*X*X%Xd.5.5.5.}.<X&X'.v.v.b.z.z.v.k.7.5.6.^ 8 @ @ : E 6./ 6./ 6.P , & & . & @ o @ & & @ 3 D.",
"@ & , t t J M J J 9.s.p.s.p.a.d.s.8.5.5.5.k.}.'.V.v.b.l.p.9.p.9.R J Z j ; & + & j Z C Z Z J p ; o % . @ % . & @ & + 3 D.",
"@ . 1 V 6 y a i p E / / 5.5.5.4.5.4.5.6.5.j.x.b.x.V.x.k.9./ 5.5.C i p t < & & & w V t t y p r @ . ; . o ; . @ @ *   3 o.",
"+ & , t m 6 t y p / 7.7.e.6.5./ 5.5.6.5.5.d.l.l.l.l.b.j.6.Q ~ Q B V V i & o o o w B t V p p r % . @ @ . . @ . & # + 4 D.",
"= # 1 V y t y y M p.l.b.j.W t V C Q 7.4.6.9.9.9.6.6.e./ e : ; > t i i i & & o o t B t i m m 4 % . & @ & ; + @ . # + y W.",
". @ 1 y y B y y C s.A.A.z.^ t V p Q 8.5.5.0.5.5./ 4.7.E 7 + + ; w t i t & & & o t i t t a p a o . & @ & @ @ @ @ &   y W.",
"0 0 , 4 r 5 t w i e.s.a.a.I i t p W 7.7.0./ 5.0.6.6.9.Q 8 + @ : r i i i ; &   o r p p p p A 4 % . ; @ @ @ . ; @ @ X y W.",
"v c q * &   o o & t C i B r r r w J Q W W W W W E R R l : @ @ ; r B B t ; & o & w B t r r r , & @ & @ @ @ @ ; 7 q 7 m W.",
":.=.s @ @   o o & w B r V ; o o & r p p p y a r : @ @ : @ @ . ; t t i t < & o & w B 4 ; @ @ & @ @ ; . . @ @ ; k ,.=.! E.",
"*.=.f # @ ; ; @ & t p p p < O . . 4 p p p y p a ; @ @ @ @ & . o r y V r ; o o o r C r ; & & @ @ = & # + & & - z =.,.N B.",
"T ( M s q & @ # o , 9 , , O . @ . r B y p a p r ; @ @ + @ @ . ; , 9 9 w 9 9 , , 1 w , o . & @ @ o + 0 q e 8 d v c ,.~ N.",
".. .( v v : = o   & . @ @ @ O . . 4 y p a a p a ; . @ @ & & @ @ & @   ; r V y y &     . @ # @ & & o 7 v =.=.:.v *.=.!  .",
".. .( v z 0 = * : & @ # # @ @ @ & r p p p m p a > @ @ @ @ & @ @ o . o O 2 5 t t o o & & # @ @ * + o * v ;.*.v =.,.;.<.[ ",
" .#.| [ y.! s h k k d n s : @ @ o ; , , , ; > > & @ @ @ & & @ : d n n d q 8 , , . . @ @ & @ : s d s h v ;.x ! ' u.[ { @.",
"!.!.!./.L.3.v 1.-.-.v -.b 0 & @ @ o o . . . . & + @ & . @ @ @ : z -.-.z 7 @ + . ; ; @ @ & @ 8 b :.<.-.-.:.*.4.E.!.#./.^.",
"J.J.J.~.G.~ x =.>.=.*.*.x 7 o o   @ ; ; @ @ @ . & @ & . & . + & k -.v b 7 . + . @ @ @ @ @ @ $ x -.*.>.>.*.x 5.F.I.P.(.K.",
"J.J.J.^.E.0.! N ,.N ! -.! q $ * : # @ . . % & @ @ @ @ . ; & * 0 x -.-.b 0 - : 7 - % - @ ; # q N ,.-.1.1.<.-.3.G.P.P.K.J.",
"P.P.J.P.P.F.X.F.N.B.F.D.N.W z z k 0 @ . & & @ . & & . & Z E Q 2.-.-.-.-.n z z z z z z x x g E i.N.M.X.X.F.| X.J.P.%.I.K."
};
