/* XPM */
static char *_1abedd098b347ce84d00b2af77027a0w7wZyOpbjUkCEKX3[] = {
/* columns rows colors chars-per-pixel */
"60 65 215 2 ",
"   c #293E02",
".  c #2B3B0A",
"X  c #293B07",
"o  c #2F2C1C",
"O  c #2E2F16",
"+  c #30291F",
"@  c #2D3415",
"#  c #313616",
"$  c #332B23",
"%  c #2E3820",
"&  c #393127",
"*  c #3F3330",
"=  c #4A3C39",
"-  c #423E2B",
";  c #1F551A",
":  c #264404",
">  c #284202",
",  c #274907",
"<  c #294907",
"1  c #2C440A",
"2  c #264C0B",
"3  c #2A4C0A",
"4  c #314D0B",
"5  c #304907",
"6  c #27520E",
"7  c #29520E",
"8  c #33510D",
"9  c #294A16",
"0  c #265413",
"q  c #295511",
"w  c #265A15",
"e  c #295B15",
"r  c #2B5419",
"t  c #2A5E19",
"y  c #24571A",
"u  c #345511",
"i  c #385612",
"p  c #335B15",
"a  c #3A5B16",
"s  c #335E19",
"d  c #3C5E19",
"f  c #345519",
"g  c #27641D",
"h  c #29641D",
"j  c #28681F",
"k  c #34651D",
"l  c #3C621B",
"z  c #30681F",
"x  c #1D5E25",
"c  c #285B24",
"v  c #335B25",
"b  c #365B28",
"n  c #384727",
"m  c #1C642B",
"M  c #1A6A34",
"N  c #176E3A",
"B  c #196C38",
"V  c #1E7234",
"C  c #1A753C",
"Z  c #16713D",
"A  c #296521",
"S  c #2A6A21",
"D  c #226D2B",
"F  c #286927",
"G  c #326C23",
"H  c #3A6D24",
"J  c #376329",
"K  c #22702E",
"L  c #2B712F",
"P  c #327127",
"I  c #357429",
"U  c #3B752B",
"Y  c #3C792D",
"T  c #397126",
"R  c #3A6838",
"E  c #207132",
"W  c #2C7738",
"Q  c #3E7D32",
"!  c #347438",
"~  c #246837",
"^  c #42641C",
"/  c #45681F",
"(  c #43412C",
")  c #4D433D",
"_  c #464735",
"`  c #425533",
"'  c #436721",
"]  c #446B22",
"[  c #486E24",
"{  c #446E2B",
"}  c #4B7226",
"|  c #4C742A",
" . c #43792E",
".. c #4D792D",
"X. c #447429",
"o. c #517A2F",
"O. c #51772D",
"+. c #426731",
"@. c #447D32",
"#. c #4B7B32",
"$. c #537D32",
"%. c #503F40",
"&. c #157543",
"*. c #1C7544",
"=. c #157A45",
"-. c #197942",
";. c #127E4C",
":. c #1C7949",
">. c #187E51",
",. c #0F7F4F",
"<. c #376E41",
"1. c #397941",
"2. c #397747",
"3. c #2B7A53",
"4. c #2F7F5A",
"5. c #2B784F",
"6. c #514041",
"7. c #457646",
"8. c #487A54",
"9. c #416E43",
"0. c #3E8031",
"q. c #448334",
"w. c #4B8235",
"e. c #498836",
"r. c #4C853A",
"t. c #4C8B3A",
"y. c #45853B",
"u. c #548234",
"i. c #598336",
"p. c #52863A",
"a. c #5B8639",
"s. c #548A3C",
"d. c #5C8B3D",
"f. c #578837",
"g. c #53913E",
"h. c #5F903D",
"j. c #4E903E",
"k. c #608E3F",
"l. c #11804F",
"z. c #0F8151",
"x. c #118051",
"c. c #1B8256",
"v. c #1D845A",
"b. c #23855D",
"n. c #2A845D",
"m. c #398358",
"M. c #349053",
"N. c #2A8662",
"B. c #2B8963",
"V. c #278661",
"C. c #318A66",
"Z. c #348B69",
"A. c #3B8D6E",
"S. c #3E8865",
"D. c #3E8E71",
"F. c #3F906F",
"G. c #45854A",
"H. c #5C8F40",
"J. c #528D43",
"K. c #4E9044",
"L. c #569542",
"P. c #5D9342",
"I. c #5C9A45",
"U. c #5E9D49",
"Y. c #579844",
"T. c #478459",
"R. c #618E40",
"E. c #649545",
"W. c #659945",
"Q. c #699C47",
"!. c #659B48",
"~. c #699A49",
"^. c #689748",
"/. c #63A24C",
"(. c #6CA34D",
"). c #71A64F",
"_. c #6BAA52",
"`. c #6AAA55",
"'. c #71A651",
"]. c #74AC55",
"[. c #6EB25A",
"{. c #76B459",
"}. c #7AB45A",
"|. c #7CBA5E",
" X c #75B157",
".X c #4A8A65",
"XX c #4E8D6A",
"oX c #4A8766",
"OX c #50896A",
"+X c #53906F",
"@X c #418F72",
"#X c #538E72",
"$X c #449173",
"%X c #4A9275",
"&X c #4D9479",
"*X c #549275",
"=X c #54967D",
"-X c #58977E",
";X c #56987F",
":X c #58987F",
">X c #7EBE60",
",X c #81BE61",
"<X c #84C465",
"1X c #88C868",
"2X c #88C767",
"3X c #579880",
"4X c #589880",
"5X c #5F9B84",
"6X c #599881",
"7X c #629C86",
"8X c #669E89",
"9X c #6A9F8A",
"0X c #6EA18D",
"qX c #71A28F",
"wX c #75A491",
/* pixels */
"6X=XZ.b.$X3X=X=X3X3X3X4X4X4X4X3X4X4X4X:X4X3X4X;X4X4X:X*X%X#X*X=X=XA.b.A.;X;X=X;X6X;X6X3X6X;X6X6X3X6X4X4X4X4X4X4X4X;X4X4X",
"6X;X%X$X&X=X$XD.&X6X4X3X:X4X3X3X4X:X4X4X4X4X4X4X4X4X6X.X1.! ! T.;X&X@X&X;X%XD.&X3X6X:X6X6X3X3X6X6X;X4X:X;X4X4X4X4X4X4X4X",
"6X6X:X6X4X=X@XD.&X3X6X6X4X6X6X7X4X4X:X6X4X;X4X4X-X*XOXT.Q Y Y G..X#X:X4X3X@XA.%X;X;X6X6X6X6X7X6X;X4X3X4X4X4X4X;X4X4X4X4X",
"8X6X6X;X3X;X=X&X3X6X3X6X4X6X0XqX7X:X6X6X4X4X4X4X6XoXb #._.`._.p.J 8.:X4X3X=X&X=X6X6X;X3X6X0XqX7X4X4X4X4X4X4X4X4X4X4X;X4X",
"8X6X6X7X6X6X:X3X&X&X;X4X4X7XqXqX7X:X7X6X6X6X:X*XOX+.8 ..>X1X<Xd.8 R T.*X:X4X3X&X&X=X;X3X5X0XwX7X4X5X7X4X4X4X4X4X3X3X4X4X",
"6X6X9XwX8X6X6X&XC.N.$X4X4X6X6X7X:X7XqX0X5X6X6XT.b v h s.,X1X<XY.h r v 8.:X6X3XZ.b.$X;X;X6X5X5X6X5X0X0X7X:X4X4X4X3X3X4X4X",
"6X6X9XqX8X6X;X=XC.N.%X:X4X4X6X4X:X8XqX9X+XXX.X8.' k A j.<X<X|.P.G k ^ 7..XXXXXn.V.$X4X4X3X6X:X;X6X0XwX7X4X4X4X4X3X3X4X4X",
"6X6X5X7X6X6X6X;X&X&X;X4X4X4X4X4X:X:X6X*X! ! ! t.(.L.P t.>X|.(.r.G t.(.J.! W ! T.%X=X4X3X6X3X6X;X6X7X5X4X4X4X4X:X3X3X;X4X",
"4X4X3X;X:X4X4X4X:X:X=X&X3X3X6X6X3X;XXXT.y.I j t.>X/.I t.,X}.~.w.P I.<XY.S I q.T.XXXX&X=X;X6X:X6X4X3X3X4X4X4X4X4X-X*X&X4X",
":X4X4X4X4X4X4X4X:X=XD.D.&X6X6X3X6X+X1.y.[.U.P e.>X/.I K.>X}.~.#.S Y.>Xg.P L.[.t.! m.A.&X6X:X6X3X4X3X4X3X4X4X4X4X&XD.D.=X",
"4X3X4X4X4X4X6X6X6X=X$XD.=X:X3X=XXX2.L Y U.I.q.w.!.P.t.U.<X}.~.p.@.I.{.t.z I.>Xj.F W m.m..X=X6X6X4X4X-X&X&X;X4X3X=XD.@X=X",
"4X4X:X4X4X4X6X6X:X3X;X=X;X6X6XXX1.P S S I q.s.u.l .. X,X<X}.~.^.E.W.~.[ u d.>Xs.S F L L ! .X6X6X3X4X=XD.D.&X4X3X3X=X3X3X",
"4X;X4X4X4X4X:X6X7X8X6X:X3X=XXXT.J.q.e.y.e.s.E.$.q ..,X1X<X}.~.~.E.~.E.] p p. XU.t.e.e.e.y..XD.$X&X-X=X@X@X=X6X8X5X=X&X-X",
"4X4X4X4X4X4X4X6XqXwX8X;X6XXX! 0._.|.>X>X>X{.~.p.G t.,X1X<X X~.~.^.~.E.#.G w.(. X|.>X>X|.[.M.v.B.A.&X3X=X=X;X7XwX7X@XD.;X",
"4X4X4X4X4X4X6X6X9X0X7X:X6XOXR z (.,X<X<X|.{.]./.g./.<X2X1X,X].].].(.^.p.q.P.].(._.|.1X<X[.M.z.v.V.Z.D.@X&X=X7X9X7X%X@X3X",
"4X4X;X4X4X6X6X6X6X6X6X6X6XoXs a d.'.,X,X'.].>X<X|.<X2X2X1X2X<X<X<X].~.E.E.].|.L.Q /.>X].U.M.z.z.x.c.v.C.D.=X4X4X3X3X;X4X",
"4X4X4X4X4X4X4X4X3X3X6X=X.X1.f 5 / $.I./.].|.<X1X1X1X1X1X1X1X1X1X2X,X X(.~.{.<X/.g.Y.I.i.X.L C l.,.,.>.v.B.Z.D.$X&X3X6X6X",
";X4X4X4X4X4X4X4X3X6X;XXX1.A 3 > 5 q S t.}.<X<X2X<X1X1X1X1X1X1X1X2X2X<X].(.{.<X<X|.g.P q 7 h K =.x.x.x.z.x.x.v.B.D.=X3X3X",
"7X4X4X4X4X4X4X4X6X=XoXG.J.s.f.[ 5 u w./.>X|./._.<X2X1X1X1X<X1X1X1X1X2X|.].(.U.|.>X_.t.a 4 X.K.W C ;.z.x.;.C C b.N.D.&X=X",
"8X4X4X4X4X4X4X:X3XXX1.@.`.<X,X(.i ^ ).2X<X_.q.t.>X1X1X1X1X1X1X1X2X1X2X2X>XY.Y /.>X<X}./ i W.{.q.D -.,.z.=.K K ;.v.N.D.=X",
"7X6X8X9X7X4X4X#X8.7.J.!.,X<X|.!.k T {.>XU.g.q.I.,X1X1X1X1X2X1X2X1X1X1X1X<XW.w.j.U.|.>X .k (.<X_.K.L x ;.;.Z C ;.c.v.Z.&X",
"3X5X0XwX7X4X4X#Xb d ^.,X<X|.'.P.T q.]._.Y Y P.].<X2X<X2X1X1X1X1X1X<X<X2X<X XW. .I /.{.e.Y /.<X>X).l ; &.,.;.;.l.l.x.V.%X",
"4X4X7X9X7X4X4X*X8.7.#.i.s.I._.'.s.w.u.| S @._.,X<X,X X,X2X1X2X1X2X[.I.`.<X,X Xe.S X.u.w.w.g.g.f.#.L M &.,.x.;.C C ,.v.D.",
"4X4X4X4X4X4X4X4X-XT.J 7 z q.].|.Q.u.i 3 h q.].<X2X}.~.].<X2X2X2X<XI.I I.<X<X}.t.h 7 8 O.s.q.G 8 q B ;.;.,.;.=.D V =.c.N.",
"4X4X4X4X:X:X4X*X7.R { $.h./.].(.s.T t 7 6 p } E.,X].e.I.<X2X2X2X<XY.P Y.<X(.} k 7 7 e T w.L.I.u.{ A m &.;.C E C V V *.b.",
"4X4X4X3X:X:X=XOXb u O.^. X{./.s.I S S k 8 5 4 }  XI.T t.,X2X2X<X}.g.P h.}.u.4 < 4 t j j I /.{.Q.$.u 0 C -.K E =.=.D E ;.",
"3X4X4X4X6X=XT.1.v e d ] w.t.q.T S S @.u.O.| O.O...l 7 u.,X2X2X)...l 7 u.).k.O.O.X.G j g S q.t.[ l e g m V C -.;.;.=.=.;.",
"3X4X3X-X=XXX2.G P z 3 < e j P T I q.E.~.E.E.E.o.i 5 4 ..].,X}.i.8 4 8 } h.E.~.Q.W.e.P P P S h < < k P S L -.l.l.z.l.;.x.",
"&X3X:X=XT.! r.p.s. .i > < s g._._.`.|.].Q.H. . .O.O.o.O.[ [ [ | O.$.o. . .d.~.].}.[._._.I.^ < > 4 | s.s.y.L C ;.x.l.x.b.",
"%X-X=X%X2.! r.H.E.d.a > 4 [ ].<X|.|.<X>X'.s.I U W.(.~.o.i 5 8 [ E.~.~.w.P w.(.|.2X>X|.<X}.o.8 > 8 $.E.R.p.I M =.x.l.v.C.",
"=X=XA.N..XT.+.^ a.a.a 4 i.).,X|.L.Y.|.2X>X/.I q.].].~.d.$.o.$.k.^.].}.t.P Y.|.<X<XU.j. X<X].k.i 8 $.R.' G E =.;.l.z.b.$X",
"3X=XZ.v.S.T.J a i.k.^ d W.}. X(.q.t.|.<X|.U.I q.|.{.W.E.(.(.(.~.E.].,Xg.G s.{.<X,Xg.0.W. X}.(.[ d i.k.d r M ;.l.x.x.n.&X",
"3X3X&X.X<.b | i.E.E.a.$.[ / ^ | /.|.<X Xj.T 7 | |._.q.g.{.,X|.I.Q !.<Xf.7 H e._.<X}._.u.l ^ / o.a.E.E.d...t x &.c.v.Z.=X",
"6X3X3X#XJ 1 | H.d.a.d.u.d 4 < d h.{.<X_.T q < ^ (.P.Y L.<X2X<X/.Y s.(.} < 3 z !.<X|.(./ < 4 a $.d.a.a.d.$.8 9 &.b.Z.D.3X",
"8X6X6X*XJ 1 k T d a G X.$.o.G e l u.}.).l : > 5 l } i.(.<X2X<X].d...l 8 > > 7 W.|.h.l s h X.u.U G d a H G < 9 3.Z.$X3X3X",
"8X4X*X8.b 1 7 e q u G  .P.P.@.G , l W.h.8 , , ,   ^ ^.}.<X2X2X|.(.} > : < : 7 i.W.] 3 h  .h.E.q.G p u t w , 9 5.A.&X3X3X",
"5X*X9.f 1 > < 8 | a.H.R.E.E.P.w.z h i l t h e q > }  X<X2X2X2X<X,Xi.< 2 h h e s d s h #.H.E.E.P.d.d.$.i <   y &.B.%X3X3X",
"3X*X9.v 5 >   < [ i.p.H.E.~.^.H.I g 2 2 g S j w 7 ] Q.}.<X2X2X|.Q.| 7 w j j j 7 2 w G s.~.^.E.H.d.i.| 4 >   9 *.V.@X=X3X",
"6X4X#X8.b     > 3 u G  .H.E.~.d.T g h h g S j g g k a f.,X2X<XE.^ p h g j j j h g h S p.E.~.H.@.G p 4 >     r 5.C.Z.@X3X",
"6X6X#X8.+.d a i > < k @.P.E.s.w.P S I U U I S g e 7 2 / W.(.Q.| 7 6 e h S P U Y Y P S @.d.E.E.w.G 3 > i a a v ! 5.V.Z.$X",
"6X-X9.f | d.d.$.i 4 ..E.~.H.@.G j I p.P.P.w.G w < 7 e k 8 8 u p h 7 < q A #.P.E.s.Y A S U s.^.E.u.i 4 $.d.d.$.f c =.b.C.",
"oX8.+.^ ..p.p.p.s u [ $.p.@.k t T w.E.~.^.H.@.G < 7 g k a ^ a k h 7 > k  .s.E.~.E.r.U z k  .p.$.| p e #.s.s.#.' v M *.N.",
"~ f | i.@.S G G g h 7 8 z h 7 i i.W.W.E.^.E.R.| 5 2 h Y a.R.d.@.z 6 > [ R.E.^.^.^.E.a.d 3 h S u 4 t g S G G U i...r c 4.",
"~ c J O.k w g A S g q 2 q 6 < 8 a.W.~.~.^.R.$.' q 0 h Q E.Q.~.w.S e 7 l O.k.^.^.~.~.R.d > 6 q 6 0 t S S g w s | { t ~ 4.",
"v.*.c 1 < 3 e A S g g h 3 > > i i.E.^.^.~.$.i 3 t g S @.E.^.E.w.S j h 7 8 | E.^.^.^.R.d   > < e h g S S t 3 < 5 r &.>.N.",
"B.>.c > i / X. .G g t 6 < >   5 [ $.E.R.$.' q q w J  .s.E.~.E.H.@.G e 6 q l O.k.E.i.[ u     : 3 w h S U  .] a > 9 :.N.D.",
"D.N.c 4 } k.E.s.U g 7 > > > > > > d a.i.i 7 t e < d a.E.E.~.^.E.h.] 3 6 h 7 4 O.k.' 5 > > > > > 3 e I p.E.d.#.8 c 3.D.&X",
"*X@X5.J +.| | [ s q 7 2 6 6 7 q 2 i ] ^ > < 7 q 0 s } i.E.~.E.a.| l 7 q q < > d [ p 2 q 7 7 7 7 0 0 p ] | | +.J <.S.%X3X",
"3X=XA.3.v 2 3 1 > < w A g g g g g e 7 < > > > 3 h w 3 / h.W.E.} 4 w h 7 > > > > 3 e g g g g g j t 2 > < 2 < v 5.A.&X3X3X",
";X@XB.b.N x x x , < e A S g e q 0 7 7 7 7 3 > < 7 , > u #.w.@.l > , 6 < > 3 q 7 7 q q 7 w g S S g < , ; x x M :.N.D.&X3X",
"&XC.b.,.;.;.;.&.; 2 w h j e 2 > > 7 h g g w > > < > > 7 g S h w > > : > > 0 h g h 2 > > < w j j w 2 0 N ;.;.;.x.>.B.D.=X",
"@Xb.>.,.,.z.z.;.N x w 0 7 2 < > 2 e h g e 3 > < 7 q q q 7 7 7 7 7 w 6 < > < 7 h j e 7 < > < 7 7 y x m ;.x.x.x.x.>.v.Z.&X",
"B.c.x.l.z.;.;.z.,.&.; > < : > 3 h g S e , > < 2 h g g w < > < 6 g j g 7 > > > w j g g 2 > > > > 0 M ,.,.z.,.,.x.x.x.N.$X",
"b.z.x.,.z.z.x.x.,.&.0 > 6 q w w g S g t > < 6 t g g g g w 0 6 g j j g h 0 < > w S S g t w 0 6 : 2 N z.,.,.z.,.,.x.z.v.D.",
"v.,.;.;.;.;.;.;.,.&.; 2 e g h h g g g e < 2 t g S j S S g j g j j S j g h 7 , q h g S g g g t 2 ; N z.z.x.x.z.;.,.,.c.V.",
"c.,.C C ;.;.C C ;.;.N m w 7 7 6 h g q 7 w q 7 w g S g S S S S S j S g t 7 0 q 7 7 h g e 6 2 y x M &.,.,.,.z.;.C C ;.,.c.",
"l.l.V D C =.V E &.;.;.N 0   > , w e , , e e 3 2 g j g h h g h A S g A q 3 q g 7 < w e 7 > > 2 M ;.;.l.l.l.l.C K E =.;.l.",
"l.l.=.C V K C C ;.;.C F 2     > 2 , : : 2 6 q t j j j h 6 3 7 q g S A t w g g h w 7 3 > >   , A V ;.l.l.;.V V C C E V ;.",
"l.l.l.l.V E C z.;.&.F w ,   >         > > 2 y A h h g e >   . q g g g h c A g S h 7 , >   > : q F C l.l.=.E K l.=.D E >.",
"c.l.l.l.;.=.;.l.C D w 2 > >   > >   >   > 1 # 9 3 q g e : # - b A e 2 9 9 y S S g h w < >   > , 6 m V ;.;.=.&.;.;.=.>.b.",
"v.x.z.l.;.;.l.=.m g 2   >   >     >     > @ o o 1 8 c f 9 n = ` v r 1 @ $ n t A g g e 2   >     , e D C ;.;.;.;.z.l.v.Z.",
"N.l.l.l.C E C l.E g 2     > >   >   > X @ o + $ - _ _ _ _ n 6.) _ _ - & $ o % c g w 3 > >   > > : h F l.;.V V ;.l.l.b.$X",
"C.c.x.l.V K C ;.E g 2 > :     : >   > X O o + & ) 6.6.) 6.6.6.6.6.6.%.* + + o 9 e 2 >           , h D C ;.E E ;.x.c.B.&X",
"A.V.c.l.;.=.l.=.D h ,     >       >     X @ o * = 6.6._ b v c b 6.6.%.* + @ X , , :   >   > > > : e D l.,.=.=.l.c.v.Z.=X",
"%XA.b.c.x.z.x.;.C F 0 , > >     >   >   > X O $ = - _ ` @.Q Q +.( = = & O .           >   > > : 6 A V =.z.,.z.c.v.Z.@X=X"
};
