/* XPM */
static char *d6b18816de3a45bfdc84b4a435596ad2eixcHB5e1WRBJlLL[] = {
/* columns rows colors chars-per-pixel */
"60 60 3 1 ",
"  c #696A6A",
". c #868089",
"X c #9DB0B9",
/* pixels */
".... .XXX. .... .. ..X. .... .. .... .XXX. .... .. ..X. .XX.",
"     .....     .X. .XXX. .. .XX.     .....     .X. .XXX. .. ",
"           ... .. .XXXXX.  .XXX.           ... .. .XXXXX.  .",
".  ..... ..XX.    .XXXX.. .XXXXX.  ..... ..XX.    .XXXX.. .X",
". .XXXX. .XXX .... .X..   .XXXXX. .XXXX. .XXX .... .X..   .X",
"X. .XXXX. .XX .XXX. .  ... .XXXXX. .XXXX. .XX .XXX. .  ... .",
"X.  .XX. . .. XXXXX. ..XXX. .XXXX.  .XX. . .. XXXXX. ..XXX. ",
". .. .. .X.   .XXXXX .XXXXX. .... .. .. .X.   .XXXXX .XXXXX.",
" .XX.  .XXX.   .X... XXXXXX      .XX.  .XXX.   .X... XXXXXX ",
" .XXX .XXXX.   ..    .XXXX. .... .XXX .XXXX.   ..    .XXXX. ",
" XXXX XXXXX.   . .... ....  .XX. XXXX XXXXX.   . .... ....  ",
" ..X. .XXXX. .X .XXX.        ..  ..X. .XXXX. .X .XXX.       ",
".  .   .... .XX XXXXX. .. ...  ..  .   .... .XX XXXXX. .. ..",
"XXX   .    .XXX .XXX. .X. XXX .XXXX   .    .XXX .XXX. .X. XX",
"XXXX .X.. .XXXX. .X. .XXX XX .XXXXXX .X.. .XXXX. .X. .XXX XX",
"XXX. .XX.  .XX.   . .XXXX .X XXXXXX. .XX.  .XX.   . .XXXX .X",
".... .XX.  .... ..  XXXX. .X .XX.... .XX.  .... ..  XXXX. .X",
"      ...      .XX. .XX.   .  ..      ...      .XX. .XX.   .",
" .....   ..    .XX.  ...    ..   .....   ..    .XX.  ...    ",
" .XXX. .XXX.    ..      .. .XX.. .XXX. .XXX.    ..      .. .",
". XXXX ..... ..   .... .X. .XXXX. XXXX ..... ..   .... .X. .",
". XXX.       X. ..XXX. XXX. .XXX. XXX.       X. ..XXX. XXX. ",
". ....   ... .. .XXXXX .X..  .XX. ....   ... .. .XXXXX .X.. ",
" .    .  .XX.   .XXXXX. .     .. .    .  .XX.   .XXXXX. .   ",
".XX. .X. .XXX X .XXXXX.  ..     .XX. .X. .XXX X .XXXXX.  .. ",
".... XXX. XX. XX ...... .XX..   .... XXX. XX. XX ...... .XX.",
"    .X... ..  ..       .XXXXX.      .X... ..  ..       .XXXX",
".... .      ..    ... .XX.XXX. ..... .      ..    ... .XX.XX",
"XXXX. .... .XX..  .X. ..XX..X. .XXXX. .... .XX..  .X. ..XX..",
"XXXX. .X. .XXXXX. .X. .XXXX.. XXXXXX. .X. .XXXXX. .X. .XXXX.",
"XXXX. ... .XXXXX. ... ..XXX. ..XXXXX. ... .XXXXX. ... ..XXX.",
"XXXX.     .XXXX.     . ..X..   .XXXX.     .XXXX.     . ..X..",
".... .XXX. .... .. ..X. .... .. .... .XXX. .... .. ..X. ....",
"     .....     .X. .XXX. .. .XX.     .....     .X. .XXX. .. ",
"           ... .. .XXXXX.  .XXX.           ... .. .XXXXX.  .",
".  ..... ..XX.    .XXXX.. .XXXXX.  ..... ..XX.    .XXXX.. .X",
". .XXXX. .XXX .... .X..   .XXXXX. .XXXX. .XXX .... .X..   .X",
"X. .XXXX. .XX .XXX. .  ... .XXXXX. .XXXX. .XX .XXX. .  ... .",
"X.  .XX. . .. XXXXX. ..XXX. .XXXX.  .XX. . .. XXXXX. ..XXX. ",
". .. .. .X.   .XXXXX .XXXXX. .... .. .. .X.   .XXXXX .XXXXX.",
" .XX.  .XXX.   .X... XXXXXX      .XX.  .XXX.   .X... XXXXXX ",
" .XXX .XXXX.   ..    .XXXX. .... .XXX .XXXX.   ..    .XXXX. ",
" XXXX XXXXX.   . .... ....  .XX. XXXX XXXXX.   . .... ....  ",
" ..X. .XXXX. .X .XXX.        ..  ..X. .XXXX. .X .XXX.       ",
".  .   .... .XX XXXXX. .. ...  ..  .   .... .XX XXXXX. .. ..",
"XXX   .    .XXX .XXX. .X. XXX .XXXX   .    .XXX .XXX. .X. XX",
"XXXX .X.. .XXXX. .X. .XXX XX .XXXXXX .X.. .XXXX. .X. .XXX XX",
"XXX. .XX.  .XX.   . .XXXX .X XXXXXX. .XX.  .XX.   . .XXXX .X",
".... .XX.  .... ..  XXXX. .X .XX.... .XX.  .... ..  XXXX. .X",
"      ...      .XX. .XX.   .  ..      ...      .XX. .XX.   .",
" .....   ..    .XX.  ...    ..   .....   ..    .XX.  ...    ",
" .XXX. .XXX.    ..      .. .XX.. .XXX. .XXX.    ..      .. .",
". XXXX ..... ..   .... .X. .XXXX. XXXX ..... ..   .... .X. .",
". XXX.       X. ..XXX. XXX. .XXX. XXX.       X. ..XXX. XXX. ",
". ....   ... .. .XXXXX .X..  .XX. ....   ... .. .XXXXX .X.. ",
" .    .  .XX.   .XXXXX. .     .. .    .  .XX.   .XXXXX. .   ",
".XX. .X. .XXX X .XXXXX.  ..     .XX. .X. .XXX X .XXXXX.  .. ",
".... XXX. XX. XX ...... .XX..   .... XXX. XX. XX ...... .XX.",
"    .X... ..  ..       .XXXXX.      .X... ..  ..       .XXXX",
".... .      ..    ... .XX.XXX. ..... .      ..    ... .XX.XX"
};
