/* XPM */
static char *_830a9e65c2943ebb5945cc1071bbb6aJEgGSb7QL9ehNSQm[] = {
/* columns rows colors chars-per-pixel */
"50 95 232 2 ",
"   c None",
".  c #010003",
"X  c #0C0103",
"o  c #01000B",
"O  c #0E030A",
"+  c #130206",
"@  c #1C0405",
"#  c #12050B",
"$  c #1A0509",
"%  c #14090D",
"&  c #1B0B0C",
"*  c #130905",
"=  c #000013",
"-  c #0C0412",
";  c #070917",
":  c #160C11",
">  c #1A0E12",
",  c #120411",
"<  c #03111D",
"1  c #1E1115",
"2  c #1C131A",
"3  c #171019",
"4  c #1F100F",
"5  c #230605",
"6  c #2C0303",
"7  c #260806",
"8  c #2B0907",
"9  c #230D0C",
"0  c #2B0C0A",
"q  c #28010B",
"w  c #310403",
"e  c #330B09",
"r  c #3C0D0B",
"t  c #380706",
"y  c #26120E",
"u  c #2D110D",
"i  c #32110E",
"p  c #3A120D",
"a  c #240F11",
"s  c #221315",
"d  c #2C1612",
"f  c #2C1815",
"g  c #211519",
"h  c #251B1D",
"j  c #2B1C1C",
"k  c #271917",
"l  c #341612",
"z  c #3B1711",
"x  c #331A15",
"c  c #3C1B14",
"v  c #331E19",
"b  c #34211C",
"n  c #3C231B",
"m  c #3E2519",
"M  c #2F201F",
"N  c #1C1B20",
"B  c #271E20",
"V  c #291F20",
"C  c #252224",
"Z  c #2B2223",
"A  c #312624",
"S  c #3B2721",
"D  c #322827",
"F  c #3B2A25",
"G  c #342A29",
"H  c #392D29",
"J  c #3C302B",
"K  c #3F3633",
"L  c #420A0A",
"P  c #43120D",
"I  c #48140E",
"U  c #421611",
"Y  c #441C14",
"T  c #4B1C14",
"R  c #4A1610",
"E  c #541D13",
"W  c #5A1B13",
"Q  c #56130C",
"!  c #442216",
"~  c #4B2115",
"^  c #43251A",
"/  c #4A241A",
"(  c #452A1D",
")  c #4B2B1D",
"_  c #522519",
"`  c #542D1C",
"'  c #5B2C1B",
"]  c #572516",
"[  c #5C321D",
"{  c #52311F",
"}  c #5F2900",
"|  c #792C0D",
" . c #632915",
".. c #672615",
"X. c #722D13",
"o. c #62331D",
"O. c #6B351B",
"+. c #69391F",
"@. c #7C3515",
"#. c #783719",
"$. c #7C300E",
"%. c #452C21",
"&. c #4A2E22",
"*. c #4D3123",
"=. c #4C352B",
"-. c #44332C",
";. c #533323",
":. c #553929",
">. c #5C3C2B",
",. c #593725",
"<. c #473A34",
"1. c #533C32",
"2. c #673A23",
"3. c #743B21",
"4. c #622A24",
"5. c #78411E",
"6. c #544038",
"7. c #6B432C",
"8. c #654129",
"9. c #7A4526",
"0. c #6B4934",
"q. c #754C36",
"w. c #77573F",
"e. c #7F502F",
"r. c #594F42",
"t. c #654F42",
"y. c #843A16",
"u. c #873D19",
"i. c #82320A",
"p. c #8D421A",
"a. c #83431F",
"s. c #99471A",
"d. c #9A4A1D",
"f. c #95471C",
"g. c #A24E1E",
"h. c #AA521E",
"j. c #B0571F",
"k. c #844924",
"l. c #874926",
"z. c #934C23",
"x. c #9C4E22",
"c. c #944E2A",
"v. c #8C512A",
"b. c #9C542B",
"n. c #995327",
"m. c #8C5431",
"M. c #975B35",
"N. c #A14E23",
"B. c #A45323",
"V. c #AB5522",
"C. c #AC5B2A",
"Z. c #A95928",
"A. c #B35A23",
"S. c #B25D29",
"D. c #B85C23",
"F. c #A75E32",
"G. c #95623B",
"H. c #BE6126",
"J. c #BC632B",
"K. c #B3612E",
"L. c #AD6333",
"P. c #AB673A",
"I. c #B36432",
"U. c #B86A38",
"Y. c #AE602F",
"T. c #C46529",
"R. c #C6682C",
"E. c #CB6B2D",
"W. c #C66525",
"Q. c #C56C34",
"!. c #CC6E32",
"~. c #D06F30",
"^. c #CE7034",
"/. c #CB743B",
"(. c #C8743B",
"). c #D57333",
"_. c #DD7C3B",
"`. c #D77838",
"'. c #D06E2F",
"]. c #E17D3B",
"[. c #E0772A",
"{. c #815B42",
"}. c #996743",
"|. c #8B6444",
" X c #A76D44",
".X c #BC7443",
"XX c #BB794A",
"oX c #B36B40",
"OX c #8A7566",
"+X c #C97B45",
"@X c #D47E44",
"#X c #C27F53",
"$X c #E5813E",
"%X c #E9853D",
"&X c #A38975",
"*X c #DB8144",
"=X c #DA864C",
"-X c #D68349",
";X c #C68253",
":X c #D88C57",
">X c #DA915B",
",X c #E48443",
"<X c #EA8742",
"1X c #EA8A47",
"2X c #E58B4D",
"3X c #EB8D4B",
"4X c #F18B46",
"5X c #EE914E",
"6X c #F5924C",
"7X c #EB9353",
"8X c #EB995D",
"9X c #E59459",
"0X c #F79957",
"qX c #E18F54",
"wX c #FFA35E",
"eX c #D59465",
"rX c #EA9D64",
"tX c #F29F62",
"yX c #DCA27A",
"uX c #F8A567",
"iX c #ECAB7B",
"pX c #F4AA73",
"aX c #FAB27B",
"sX c #EDA46F",
"dX c #9F9185",
"fX c #BAA594",
"gX c #EFB78C",
"hX c #E3BFA5",
"jX c #D4C5B6",
"kX c #DFD2C4",
"lX c #E7DACB",
"zX c #F7F6EC",
/* pixels */
"                                                                                                    ",
"                                  t.6.7.M.P..X;X                                                    ",
"                                6.<.` 8.v.U.(.2X:X                                                  ",
"                              <.H b +.k.Z.E.`.$X6X8X                                                ",
"                            J K F m 2.Z.W.~.].,X3XuX                                                ",
"                            K <.&.m o.C.E.`.].8XiXaXuX                                              ",
"                          <.K %.&.&.2.d.R.`.%X7XpXaXuX                                              ",
"                          6.=.F ( %.' u.E.,X].].3X8X8X                                              ",
"                          :.*.%.&.&.,.l.^.7X=X2XaXaXpXrX                                            ",
"                          ;.&.( :.;.2.7.F.+X*X@X#X;X8XrX                                            ",
"                          %.=.:.:.v f f b ` x.3.@ _ 7.q.                                            ",
"                      c T n %.0.&.O X d X @ F.O.o @ q W X.                                          ",
"                      U _ c %.2.( + 9 c s t `..Xt W #.S.x.                                          ",
"                        T z *.>.,.m / / x ! .X8Xx.B.A.!.                                            ",
"                        Y / %.&.[ [ o.4./ ! M.=X/.*X0X7X                                            ",
"                          / Y x ) ,.2.9.2.d 2.L.8XwXuX                                              ",
"                            ) x f ;.7.2.^ ~ k.c.U.rXwX+X                                            ",
"                            >.( a n >.^ s 2.N.Q.A./.2X                                              ",
"                            >.*.a f &.` Y X.Q.!.`.`.Z.                                              ",
"                            ;.,.9 & d / _ T O./._.Z.k.                                              ",
"                            *.>.n + : $ %.v.F.qXP.o.                                                ",
"                          =.;.8.*.v 9 % : ^ O.o.)                                                   ",
"                          j &.8.,.) c 5 5 ^ ] M.;X                                                  ",
"                        1 o # %.2.' ' c.L.J.).0X7X                                                  ",
"                      g , : O . ) b./.2X2XE.W.6X                                                    ",
"                  V 2 2 g h g > o #.Q.<X7X,X).5X                                                    ",
"                Z 2 3 2 B B B k > o m L.qX3X4X2X0.                                                  ",
"              g 3 3 2 2 k B B h s s ; = 2.F./.P.N H                                                 ",
"            h 3 - g 2 2 g B B h g g j h = = j A Z C K                                               ",
"          j 3 2 2 g B h B B Z C h 2 3 h j Z B B Z C C -.                                            ",
"        v 3 , 2 2 2 2 B B B Z D C h k h B V Z Z Z Z C C A                                           ",
"        s O % , > 3 2 g B A A D A C j h B V A Z Z C C D C j                                         ",
"      1 : O O % , 1 2 g h A D D G A Z C B j j C C C C D Z Z n                                       ",
"      3 % O - O % 1 s 2 h Z Z G G G A Z C B B B D D Z Z Z C A                                       ",
"    k > - O # % : 2 g g g h V G G D D Z Z j j B Z D C Z Z D Z A                                     ",
"    1 % % O # # % 1 g g g h V A H D A Z Z Z C j C D D D Z Z B Z                                     ",
"    2 : * O O O % 1 2 s g h h Z H D Z B Z Z Z B C A D Z Z Z Z B n                                   ",
"    1 % O X O O O 3 2 g h g h C G D h h B C B Z Z A D D A C Z Z M                                   ",
"  j : O X O O O # : s 2 g g g V D Z > g B B Z Z Z D D Z Z Z C Z M                                   ",
"  g O O O O O O O & 1 1 g 2 k V A g : 2 g h C Z Z D D A Z Z B B A                                   ",
"  s O , O O O O % % 1 1 2 s g V j : > > g h B Z Z D G D V Z B h H                                   ",
"  > O , % % % 1 > : 1 1 2 g g g : # : > > g h B Z D G D Z V B B F                                   ",
"  1 O # X o - > 2 s k 2 g s h 1 O : : : > g g B B D G D Z Z V B B m                                 ",
"  9 O : 1 f j g o o o % g k h % X # # : : > g g B Z G G Z Z V B B S                                 ",
"    F -.S { 9.v.m.0.:.k ; = ; O X # % , > > a g g B D D A V B B B A                                 ",
"    %.( f ^ u.h.U.XXXX;X X}.q.s X # # % : : > > g B A D Z V B j h j                                 ",
"    ( n v m u.d.Z.U.P.U.=X3X+X( o * # # % : > > a B V A V V V j B j                                 ",
"    m x c ) ) 5.h.I.L.L.+X-X^.) o & # # # % % : > g h B h B B B j                                   ",
"    n x l [ o.+.d.C.K.I.U./.^.) o & % # X O # # : > g g g g g k j                                   ",
"    n v x #.X.' +.B.I.U.U.R.(.m = > % # # O # % : s j V B B B v                                     ",
"    n x ^ n.d. .o.n.Z.U.U.W.L.x , s 1 > : > > s g g B V Z D M t.                                    ",
"    n x T x.Z.y.#.S.x.Y.J.H.n.= > 1 1 s g g g h h V V Z Z A B 0.                                    ",
"      f T z.g.p.y.J.J.Y.S.H.+.o s > > s 1 g g B B B B Z Z Z B =.                                    ",
"      x Y 5.d.d.s.J.W.E.J.d.x # a > > > 1 s g g g j h B A V B A                                     ",
"      d x O.p.d.Z.W.j.R.E.O.= s 1 > > > > 1 1 g g g g B B Z V V A                                   ",
"      d d ' y.g.S.R.h.D.).k.o f s 1 1 1 > 1 s 1 a 2 g B B V V V f                                   ",
"      d d ! @.B.T.J.j.A.W.!.2.o - s s > > 1 s g 1 s g g B j C 2 =.                                  ",
"      d d c #.Z.A.h.H.H.J.E.Q.z.! o > g > 1 1 > 1 > g g h h A = {.                                  ",
"      d d d #.V.x.f.V.T.R.R.T.E.J.k.s = k g g s 2 1 1 g g B M = e.7X                                ",
"        d d O.g.B.y.p.h.H.E.E.R.R.R.C.o.= 2 k k k s 1 2 h j j < 2.6XqX      :XaX                    ",
"        f a o.d.S.p.@.s.h.H.'.).~.~.E.T.k.l = ; 2 h f j h h Z < O.).0X#X  +XuXpX                    ",
"        d a ] y.V.S.@.....@.s.H.E.`.].`.).J.k._ s = = = g A A 2 ) s.!.P.>XgXuX*X                    ",
"        d a [  .k.^.j.s.u...I Q X.g.E.].<X].].`.R.z.9.;.g < = - A Y c.@XuXiXl./.                    ",
"          s ^ ' ` J.R.W.j.j.h.d.y.| i.h.~.,X*X/.(./.+X/.U.b.v.%.2 } ~.5X6X8X#X@XU.m.:X              ",
"          u l ! p #.B.h.A.h.H.W.^.R.I.l.a.v.G. X}.P.U.L.C.%X$X9.dXfX-X%X1X3XuXrXL.O.c.P.oX          ",
"              9 9 0 I  .X.@.y.s.V.Z.}.}.|.w.G.U.-X2X2X*XK.-XL.w.kXzXhX%X3X3X8XpXrX=X+XXX+X2X9X      ",
"                  y a a l T ~ Y ! m =.:.k.L.!.`.$X%X%X$X<X7X5.OXzXzXlX9X7XuXuX7X5X].,X2X<X3XwX0XsXgX",
"                  1 X * & y x x n m _ ] $.y.s.g.g.h.j.A.^.<Xm.0.lXzXlX,X1X7XwXrX7X=X:X:XI.m.M.P.:XyX",
"                $ % # X X X # & y i ~ T E ] W ..X.X.| ..X.u.5.7.&XjXyX[.@X!.].U.P.sXrXuXeX          ",
"                F 2 O # O # X . . . . O 9 i c ! Y Y z x y O X S :.n.`._.~.^.).i.$.J.'.uX            ",
"                >.% O % O # O X X X + O . . . . o . o o o # % . j 4.C.`.~.J.C.^.qXrXoX X            ",
"              j f % % O O O X > k 2 h V j j s % * + + X * % * # d   R N.z...t b.3XeX                ",
"              9 + O X O X X . d v h A A D G G A Z j g 1 X X O O &               v.                  ",
"              9 & X X X X X X 9 5 d l 0 d v S D A H F Z 1 O # o s                                   ",
"            u $ # X X X X X + & @ v Y 6 w t I e u Y F D H Z % : v                                   ",
"            @ # X X + X X X + $ X a z t e L Q t I R w 0 x D h H S                                   ",
"            s & & # + X X X + # o & p e w e W r W W L P L w e s c                                   ",
"            h j s # # X X X X # X 9 P 6 e e T r P ..L E  .] _ l &.                                  ",
"          s & X # X X X X O O X . y U 6 e e U r p  .I r P U ~ z ;.                                  ",
"          & 1 X X X X X O * * X . f p 6 e w p U 6 P R r L r Y c '                                   ",
"          # % X X X X O X X X X X y e 8 e 8 e p w i p r P L / c '                                   ",
"          9 % O X X O + X X X X . y e 7 e 8 9 r e 8 i e p r ~ c '                                   ",
"          & O X X X X X X X X X O 9 8 5 e 5 8 e e 8 y r e P P u E                                   ",
"          X X X X X . X X X X X + 7 5 @ e @ e e e 6 0 p e p U p ]                                   ",
"          # # X X X X X . X X X * 7 @ $ 7 5 e e e 7 0 e e r T p T                                   ",
"          % # X X X X X % % O X % 5 + @ 5 7 8 e e 5 8 e 6 p I 7 U 4.                                ",
"          & * X . X X X O X X O # $ + $ @ 7 8 e 8 7 e e 8 p z 5 c '                                 ",
"            O X X X X X X X X % # + + + @ 7 8 8 8 7 e 8 0 P U @ p ~                                 ",
"            # X X X X X X X X O + # + @ @ 5 8 8 7 8 8 8 e T c 5 i T                                 ",
"            # X X X X X X X X X O + + * * 5 8 8 8 8 8 6 e ~ p @ u Y                                 ",
"            * O X . X X X X X X X + + + + 5 8 8 8 8 8 7 i T @ @ u c                                 ",
"            O X X X X X X X X X X X + + + @ 7 7 7 7 8 5 p x * @ 0 c                                 ",
"            % : % O X X X X X X X X X + + $ 5 7 7 7 8 7 x y & $ 0 x                                 ",
"              : * X X X X X X X X X X X + $ 5 7 7 7 5 8 c + @ + 7 p                                 ",
"                X X X X X . X X O X X + X + 5 7 5 7 5 u i + & + 9 p                                 "
};
