/* XPM */
static char *_8bca5fe819f4244d7895b9dde107c8cuIQIFtCEDpnZmfy9[] = {
/* columns rows colors chars-per-pixel */
"65 58 216 2 ",
"   c None",
".  c #393739",
"X  c #52482D",
"o  c #4F4938",
"O  c #6A5F3D",
"+  c #6C613F",
"@  c #3E4D5C",
"#  c #3F5468",
"$  c #454544",
"%  c #4C4C4A",
"&  c #494846",
"*  c #52514E",
"=  c #5B5542",
"-  c #555452",
";  c #5B5955",
":  c #5D5D5C",
">  c #585756",
",  c #50504C",
"<  c #645C46",
"1  c #645D4A",
"2  c #615E53",
"3  c #615F5B",
"4  c #6B6245",
"5  c #67614C",
"6  c #6B644C",
"7  c #746B4C",
"8  c #796C4B",
"9  c #656053",
"0  c #6C6552",
"q  c #63625D",
"w  c #6D6858",
"e  c #726A53",
"r  c #726D5A",
"t  c #786E56",
"y  c #7B725A",
"u  c #7A7156",
"i  c #7C714E",
"p  c #4B5969",
"a  c #5E5E60",
"s  c #435B71",
"d  c #5D6972",
"f  c #646463",
"g  c #696761",
"h  c #6B6A62",
"j  c #6C6C6C",
"k  c #726F66",
"l  c #75736B",
"z  c #79776D",
"x  c #7C7A6E",
"c  c #7F7860",
"v  c #737474",
"b  c #7A7A73",
"n  c #7D7D7D",
"m  c #84795C",
"M  c #847859",
"N  c #817F75",
"B  c #887D60",
"V  c #6E8F7C",
"C  c #898269",
"Z  c #838275",
"A  c #85847A",
"S  c #89877B",
"D  c #8B8A7C",
"F  c #8E8772",
"G  c #928D79",
"H  c #8D937A",
"J  c #A0997F",
"K  c #5A7A98",
"L  c #557492",
"P  c #517AA1",
"I  c #71868E",
"U  c #7DA78A",
"Y  c #5B87B2",
"T  c #7697B7",
"R  c #5A92C8",
"E  c #4D93D3",
"W  c #5F98D3",
"Q  c #5898D7",
"!  c #448DD0",
"~  c #759CC4",
"^  c #639AD1",
"/  c #6C9ED3",
"(  c #619EDB",
")  c #6C96C1",
"_  c #73A2D1",
"`  c #7CA8D5",
"'  c #66A0DD",
"]  c #838383",
"[  c #8D8C82",
"{  c #8C8C8C",
"}  c #918E84",
"|  c #869A88",
" . c #949285",
".. c #969489",
"X. c #99978A",
"o. c #9B9A8C",
"O. c #989886",
"+. c #949494",
"@. c #9D9C92",
"#. c #9B9B9B",
"$. c #959999",
"%. c #A19F8E",
"&. c #A49D82",
"*. c #A09E90",
"=. c #82A286",
"-. c #8FAC8C",
";. c #89A896",
":. c #99A995",
">. c #9AB699",
",. c #A9A288",
"<. c #A4A393",
"1. c #A8A795",
"2. c #ACA996",
"3. c #A9A799",
"4. c #ACAB9B",
"5. c #A6A69B",
"6. c #B0AF9C",
"7. c #B3AF96",
"8. c #BAB394",
"9. c #B3B29E",
"0. c #B9B59B",
"q. c #BAB89B",
"w. c #ABB294",
"e. c #819EBA",
"r. c #8A99A4",
"t. c #8DA4B9",
"y. c #92A3B2",
"u. c #A4A4A4",
"i. c #AAAAAA",
"p. c #A5A9A4",
"a. c #B1AEA1",
"s. c #A4BCA1",
"d. c #AABBA5",
"f. c #B3B2A1",
"g. c #B9B7A3",
"h. c #BCBBA6",
"j. c #BDBCA9",
"k. c #B7BEA8",
"l. c #A9BBBF",
"z. c #B2B2B2",
"x. c #BBBBBB",
"c. c #B0B9BA",
"v. c #C1BFAB",
"b. c #AEC1A2",
"n. c #BAC5AB",
"m. c #B9C5AC",
"M. c #BFC8B1",
"N. c #CBC3A3",
"B. c #C4C3AC",
"V. c #C8C6AD",
"C. c #CCC9AD",
"Z. c #C3C0A7",
"A. c #D4CDAC",
"S. c #C3C5B4",
"D. c #C9C7B0",
"F. c #CDCBB4",
"G. c #C5CCB6",
"H. c #D1CFB5",
"J. c #D0CFB8",
"K. c #CDD4BA",
"L. c #C9D3B7",
"P. c #D4D2B6",
"I. c #DAD6B4",
"U. c #DED9B5",
"Y. c #D4D3BA",
"T. c #D8D7BC",
"R. c #D5DABE",
"E. c #DBDABE",
"W. c #D8D0AC",
"Q. c #E3DCB7",
"!. c #E4DEBA",
"~. c #E0D6B2",
"^. c #E7E1BD",
"/. c #E9E2BD",
"(. c #9BB4C7",
"). c #8DB1D6",
"_. c #A5BAC7",
"`. c #A8BFD4",
"'. c #B2C3CB",
"]. c #ADC0D1",
"[. c #C3C3C3",
"{. c #C3CCC4",
"}. c #CCCCCB",
"|. c #D0CFCF",
" X c #DCDCC2",
".X c #D6DAC3",
"XX c #D2D2D2",
"oX c #DDDDDD",
"OX c #D8D8D7",
"+X c #C8D0C4",
"@X c #E1DFC3",
"#X c #E0DEC8",
"$X c #DFE2C2",
"%X c #E4E2C5",
"&X c #EAE5C2",
"*X c #EDE9C5",
"=X c #E6E5CA",
"-X c #E9E6CA",
";X c #EEECCE",
":X c #EDEBCD",
">X c #F2ECC5",
",X c #F1EDCE",
"<X c #F1EDCD",
"1X c #F9F3CD",
"2X c #EEECD1",
"3X c #EEEFD8",
"4X c #F1EFD0",
"5X c #F5F1D2",
"6X c #F4F1D3",
"7X c #F9F5D5",
"8X c #FDF9D8",
"9X c #E5E5E5",
"0X c #EBEBEA",
"qX c #E8E8E7",
"wX c #F3F3F3",
"eX c #F9F9F9",
/* pixels */
"                                                                                                                                  ",
"                                                                                                                                  ",
"                                                                                                                                  ",
"                                                                                                                                  ",
"                                                                                                                                  ",
"                                                                                                                                  ",
"                                                                                                                                  ",
"                                                                          ,X                                                      ",
"                                                                      6X-X8X*XW.                                                  ",
"                                                                ,X,X7XF.[ F.5X>X*X^.~.W.                                          ",
"                                                            6X4X3XF.<...l *.&X&X*X>X>X1X~.                                        ",
"                                                      6X4X2XY.g.3.[ <.o.:.b j.<X/.*X*X/.>X                                        ",
"                                        5X6X1X{.( ).3X%Xh.5.[ @.<.4.B.P.=XE.<.@X*X-X>X/./.U.                                      ",
"                              ,X4X:X5X,X%XE.Y.B.T Q t.[ @.3.[ a.P. X=X6X=X:XF.n.>X*X>X-X^.>XQ.                                    ",
"                          @X-X:XH.6.} [ v f } <.$.^ / p.g.F. X%X.XJ.j. X=X=X=Xa.T.<X/.*X*X^.Q.                                    ",
"                      H.!.P.<.[ j j b }  .:.9.f.9.T E '.:X%XY.F.4.h.D.%X:X=X-XD.9.-X*X/.*X^.>X~.                                  ",
"                    C.P.O.q l j X.g.H.@X-XH.h.v.V.p.^ / m.h.h.g.V.E.4X,X:X:X-X%X3.P.<X&X*X/.!./.                                  ",
"                  q.q.l h h o.Z.E.-X#XE.H.v.6.v.B.B.e.W t.C.j.4.B.F.-X:X:X:X:X-XH.4.-X&X/.*X/./.I.                                ",
"                2.1.q q b 2.Y.T.Y.v.v.h.f.v.g.v.D.V.u.W _ S.P.R.@X:X:X4X,X:X,X-X-X6.H.,X/././.!.>X                                ",
"                ,.- * l 0.P.B.O.4.v.g.B.h.h.F.B.F.E.E.(.Q ].,X6X4X2X:X,X:X:X,X:X:X.X3.-X*X/.*X!./.!.                              ",
"                } x l A  .1.v.g.F..XB.D.Y. X#X-X:XY.s.;.W ` S.@X4X4X2X:X,X,X,X:X:X2Xg.B.1X-X!.*X!.1X*X                            ",
"                   .F S S D %.D.&X%X X:X4X6X=Xv. X| ;.H T / (.g.-X4X2X4X:X,X,X:X,X4X@X3.@X<X/.!./.^./.                            ",
"                  } N N S G  . .B.%X:X2X:X2X4XB.m.U s.d.I / _ >.V.6X:X6X:X,X,X4X4X:X6XS.h.4X-X!./.^.>XQ.                          ",
"                    N 3 N S }  .O.F.=X-X:X:X,X-Xf.:.V b...T ' l.f.=X2X:X:X,X,X<X4X4X2X%X6.@X<X&X^.^././.                          ",
"                    *.g 2 N [  . .*. X-X:X:X:X6XF.k.| I =.I Q ).D.Y.6X2X4X:X:X6X,X5X5X6XJ.9.4X>X^.^.^./.!.                        ",
"                      A $ h } } o.o.v.=X=X:X:X4X=Xj.$X:.=.| ~ ( {.:X2X-XR.=X4X:X5X:XE.%X2Xa.H.5X/.Q.^.Q.<X!.                      ",
"                      5.. % N X.o.<.1.T.=X=X:X:X5XF.P.;X#X%Xl.E (.$XK..XK. X5X5XK.n.d.=.=X%Xo.:X>X/.^.!.!.!.                      ",
"                  9X9Xi.2 $ * [ <.1.%.B.%X%X=X2X:X=X$XR.T.K.k.R / +X%X=X:X$Xn.M.>.-.G.b.=XF.v D.7X*X^.Q.^.>XU.                    ",
"                eX}.i.} N g * & l o.%.9.%X=X2X.Xm.R. XG.+X X=X_.! `.E.E.M.>.n.U Y.R.L.G.a.4.X.X.-X<X^.Q.Q.^.*X                    ",
"              0XoXz.*.N k N 3 $ $ Z @.<.E.=X=X.XL.=X-X2X3X%X X.XR _ s.-.s.>.L.R.T.S.3.9.f.3.X.h g.5X/.Q.Q.^.^.U.                  ",
"              qXoXz.$.K f k f % & w o...J.=X=X2X2X=X3X XR.j.D.C.T Q `.b.G..XL.9.3.*.4.3.o.[ v.P.-X1X&XU.W.~.!.>X~.                ",
"              0XqXx.*.] j 3 3 * $ - ..o.D.$X=X2XK.a.R.J.Y.@X%XT.+XW _ G.n.a.6.9.@.....3.J.4X7X7X@XN.,.,.8.8.8.N.0.                ",
"                0X[.i.{ v a g - $ * S o.V.@X=X2XY.H.K.$X.XD.j.g.4.~ ( y.f.f.5.[ ..v.#X7X7X#Xv.J B M M M m M C G                   ",
"                qX|.z.#.] q 3 3 & % h H D.E.T.-X6X@XS.6.<.3.f.f.2.r.R ).<.S 6.Y.2X8X<XA.,.B 8 8 M B M M y { oX                    ",
"                0X0Xx.u.{ v 3 g & . l } B.C.Y.D.4.3.a.@.f.1.o...N b ) ^ c.&X4X7X!.8.B 8 M M M M t 7 8 k ] $.OX9X                  ",
"                  0X}.i.#.N 3 g * $ x O.H.h.<.} g.j.@.[ S <.4.V.T.&X_.E `.,XV.&.8 < 8 M M e 6 6 6 8 k v ] +.oX0X                  ",
"                  0XqXx.u.{ j - * h Z  .X.N 2.X.Z Z <.Y.-X7X7X5X2X%Xj.R Y B < 4 M t e e 6 1 4 8 e r v ] #.}.9X                    ",
"                    wX[.z.#.K w - ; - 9 F O.l z f. X7X6X%XC.7.&.G m > P K 7 y y 0 6 2 6 4 7 6 e j n +.u.}.9X                      ",
"                    qXoXv.u.{ v - ; & H N - O.H.=X&XC.&.m 0 6 0 0 X % P L 4 0 1 1 4 6 6 0 g v K { #.z.OX9X                        ",
"                      0X[.z.+.n 3 - S O.x 7.U.H.0.C 1 1 e r 0 1 6 X p P d O 6 6 6 2 g j v ] { #.i.v.0X9X                          ",
"                      9XoXx.u.{ j > N N 8.H.8.C < < r e < < < 1 2 X s L f < 2 3 g v K G +.#.i.z.|.wX0X                            ",
"                      wXwX}.z.+.] a 3 &.0.G e 2 r r 6 6 9 1 1 < 6 = p p 2 0 j v ] { #.*.i.v.}.0X9X                                ",
"                        9XoX_.i.{ c 2 %.F 1 e r 0 6 1 1 < < 1 6 2 1 > f j K { +.*.u.z.[.OX0XqXwX                                  ",
"                          wX|.j.#.K 3 N y e e 2 1 1 1 < 1 6 2 : a k N K { $.u.i._.}.9XqXqX                                        ",
"                          0X0X[.i.{ v : r y r e e 0 1 2 3 f j v N { +.#.i.x.[.9XwX9X0X                                            ",
"                            9XoXx.u.] j - 2 2 2 2 : f j v n { { #.u.z.[.OX0X9X0X                                                  ",
"                              0X|.z.#.] j a a f f v n ] { { #.i.x.|.9X9XqX                                                        ",
"                                eXXXz.#.] v b n ] { +.#.p.x.XX9X9X9X0X                                                            ",
"                                  9XqX}.i.u.u.u.z.x.XXoX9XoX9X0X                                                                  ",
"                                    0X9XoXoXoXoXoXoX9X0X                                                                          ",
"                                                                                                                                  ",
"                                                                                                                                  ",
"                                                                                                                                  ",
"                                                                                                                                  ",
"                                                                                                                                  ",
"                                                                                                                                  ",
"                                                                                                                                  ",
"                                                                                                                                  "
};
